<?xml version="1.0" standalone="no"?>
<!DOCTYPE svg PUBLIC "-//W3C//DTD SVG 1.1//EN" "http://www.w3.org/Graphics/SVG/1.1/DTD/svg11.dtd" >
<svg>
<metadata>
Created by FontForge 20090914 at Tue Dec 13 00:27:21 2011
 By www-data
Copyright (URW)++,Copyright 1999 by (URW)++ Design &#38; Development; Cyrillic glyphs added by Valek Filippov (C) 2001-2002
</metadata>
<defs>
<font id="URWPalladioL-Roma" horiz-adv-x="500" >
  <font-face 
    font-family="URW Palladio L"
    font-weight="400"
    font-stretch="normal"
    units-per-em="1000"
    panose-1="2 0 5 3 0 0 0 0 0 0"
    ascent="800"
    descent="-200"
    x-height="459"
    cap-height="692"
    bbox="-166 -283 1079 993.001"
    underline-thickness="50"
    underline-position="-100"
    unicode-range="U+0020-U+FFFD"
  />
<missing-glyph horiz-adv-x="250" 
 />
    <glyph glyph-name=".notdef" unicode="&#xfffd;" horiz-adv-x="250" 
 />
    <glyph glyph-name="space" unicode=" " horiz-adv-x="250" 
 />
    <glyph glyph-name="exclam" unicode="!" horiz-adv-x="278" 
d="M138 111c15.333 0 28.999 -5.83301 40.999 -17.5s18 -25.167 18 -40.5s-6 -28.833 -18 -40.5s-26 -17.5 -42 -17.5c-14.667 0 -27.667 5.83301 -39 17.5s-17 25.167 -17 40.5s5.83301 28.833 17.5 40.5s24.834 17.5 39.501 17.5zM159.999 694h34v-25
c0 -25.333 -2.33301 -57 -7 -95c-3.33301 -27.333 -5 -43.333 -5 -48l-24 -278v-25l-28 -23l-10 5v10v7l-2 23l-26 305c-4 54 -6.33301 89.333 -7 106z" />
    <glyph glyph-name="quotedbl" unicode="&#x22;" horiz-adv-x="371" 
d="M105 469l-20 0.000976562l-33 196v5c0 9.33301 4.5 18.166 13.5 26.499s18.833 12.5 29.5 12.5s20.5 -4 29.5 -12s13.5 -16.667 13.5 -26c0 -2.66699 -0.333008 -4.66699 -1 -6zM286 469.001l-20 -0.000976562l-33 196v5c0 10 4.33301 19 13 27s18.667 12 30 12
c10.667 0 20.5 -4.16699 29.5 -12.5s13.5 -17.166 13.5 -26.499c0 -2 -0.333008 -3.66699 -1 -5z" />
    <glyph glyph-name="numbersign" unicode="#" 
d="M470 280v-56h-109l-31 -224h-58l31 224h-134l-33 -224h-58l33 224h-107v56h116l21 139h-110v56h118l31 209h58l-31 -209h133l30 209h58l-30 -209h97v-56h-105l-20 -139h100zM332 419h-133l-21 -139h134z" />
    <glyph glyph-name="dollar" unicode="$" 
d="M223 18v278.998c-70 8 -117.667 21.667 -143 41c-33.333 24.667 -50 64.667 -50 120c0 76 29.333 133 88 171c25.333 16.667 60.333 29 105 37l-4 65h45c-2 -18 -3.33301 -38.667 -4 -62c70 -5.33301 125.333 -19.666 166 -42.999c-8.66699 -32 -13 -74 -13 -126h-32v42
c0 18.667 -1.5 32 -4.5 40s-9.16699 15.333 -18.5 22c-24.667 16 -57.334 25.667 -98.001 29v-260c76 -8 128.333 -22.333 157 -43c36 -26 54 -67 54 -123c0 -78 -32.333 -138 -97 -180c-28.667 -19.333 -66.667 -33.666 -114 -42.999l4 -100h-45c0.666992 10 2 42.667 4 98
c-61.333 0.666992 -125.666 14.667 -192.999 42c5.33301 36.667 9.33301 86 12 148h32v-64c0 -18 4.66699 -31.667 14 -41c26.667 -26 71.667 -42.333 135 -49zM260 291.998l0.000976562 -274.002c40 7.33301 72 24.833 96 52.5s36 61.834 36 102.501
c0 36.667 -9.83301 63.834 -29.5 81.501s-53.834 30.167 -102.501 37.5zM223.001 378.996v251c-30.667 -3.33301 -54.667 -12 -72 -26c-30.667 -24.667 -46 -61.334 -46 -110.001c0 -36.667 8.83301 -63.667 26.5 -81s48.167 -28.666 91.5 -33.999z" />
    <glyph glyph-name="percent" unicode="%" horiz-adv-x="840" 
d="M203 689c43.333 0 79.501 -14.667 108.501 -44s43.5 -66 43.5 -110c0 -48 -15.333 -87.833 -46 -119.5s-69.334 -47.5 -116.001 -47.5c-44.667 0 -81.5 14.5 -110.5 43.5s-43.5 65.833 -43.5 110.5c0 48.667 15.5 88.667 46.5 120s70.167 47 117.5 47zM200.001 666
c-27.333 0 -49 -12.501 -65 -37.501s-24 -59.167 -24 -102.5s7.16699 -76.666 21.5 -99.999s34.833 -35 61.5 -35s48.167 12.833 64.5 38.5s24.5 60.167 24.5 103.5c0 40.667 -7.5 73 -22.5 97s-35.167 36 -60.5 36zM650.001 320.999c43.333 0 79.501 -14.667 108.501 -44
s43.5 -66 43.5 -110c0 -48 -15.333 -87.833 -46 -119.5s-69.334 -47.5 -116.001 -47.5c-44.667 0 -81.5 14.5 -110.5 43.5s-43.5 65.833 -43.5 110.5c0 48.667 15.5 88.667 46.5 120s70.167 47 117.5 47zM647.002 297.999c-27.333 0 -49 -12.501 -65 -37.501
s-24 -59.167 -24 -102.5s7.16699 -76.666 21.5 -99.999s34.833 -35 61.5 -35s48.167 12.833 64.5 38.5s24.5 60.167 24.5 103.5c0 40.667 -7.5 73 -22.5 97s-35.167 36 -60.5 36zM250.002 -20.002h-40l366 729h40z" />
    <glyph glyph-name="ampersand" unicode="&#x26;" horiz-adv-x="778" 
d="M418 344l32.999 44.999c33.333 -1.33301 65.666 -2 96.999 -2l194 7c-8 -26 -12 -50 -12 -72c-36.667 5.33301 -83.334 9.33301 -140.001 12c3.33301 -12.667 5 -25.667 5 -39c0 -31.333 -6.16699 -60.333 -18.5 -87s-33.166 -56.667 -62.499 -90
c42.667 -24.667 75.834 -41.334 99.501 -50.001s47.834 -13 72.501 -13c13.333 0 33.666 6.33301 60.999 19l6 -25l-87 -63c-6 -4 -17.333 -6 -34 -6c-24 0 -52.833 7.16699 -86.5 21.5s-65.167 32.833 -94.5 55.5c-66 -51.333 -133.333 -77 -202 -77
c-59.333 0 -108.5 18 -147.5 54s-58.5 82 -58.5 138c0 50 17.667 95.667 53 137c24 26.667 58 52.667 102 78c-20 50.667 -30 95 -30 133c0 43.333 8 72 24 86l68 60c17.333 15.333 39.333 23 66 23c31.333 0 55.5 -7.83301 72.5 -23.5s25.5 -37.834 25.5 -66.501
c0 -45.333 -21.333 -90.666 -64 -135.999c-18 -18 -44.667 -40 -80 -66c52.667 -85.333 120.667 -170.666 204 -255.999c32 42.667 48 80.334 48 113.001c0 20.667 -2.66699 38.667 -8 54s-11.666 24 -18.999 26c-10.667 2.66699 -39.667 6 -87 10zM212.999 351.999
c-30.667 -24 -52.167 -46.667 -64.5 -68s-18.5 -46.333 -18.5 -75c0 -46.667 16.5 -87.167 49.5 -121.5s71.833 -51.5 116.5 -51.5c37.333 0 78.666 15.333 123.999 46c-57.333 64 -100.666 115 -129.999 153s-55 77 -77 117zM263.999 430.999
c3.33301 2.66699 7 5.33398 11 8.00098c25.333 19.333 45.333 40.666 60 63.999s22 45.333 22 66c0 19.333 -5.5 35.333 -16.5 48s-24.833 19 -41.5 19c-40.667 0 -61 -26.333 -61 -79c0 -32.667 8.66699 -74.667 26 -126z" />
    <glyph glyph-name="quotesingle" unicode="'" horiz-adv-x="208" 
d="M114 469l-20 0.000976562l-33 196v5c0 9.33301 4.5 18.166 13.5 26.499s18.833 12.5 29.5 12.5s20.5 -4 29.5 -12s13.5 -16.667 13.5 -26c0 -2.66699 -0.333008 -4.66699 -1 -6z" />
    <glyph glyph-name="parenleft" unicode="(" horiz-adv-x="333" 
d="M301 -194l-19.0039 -20.9971c-41.333 38.667 -72.166 70.5 -92.499 95.5s-39.166 54.167 -56.499 87.5c-48.667 91.333 -73 190.666 -73 297.999c0 76 13 147.333 39 214c18.667 48.667 40.834 90.167 66.501 124.5s64.5 74.833 116.5 121.5l19 -26
c-36 -42 -62.667 -77.833 -80 -107.5s-32.666 -65.5 -45.999 -107.5c-19.333 -66 -29 -139 -29 -219c0 -84.667 10.333 -162.334 31 -233.001c13.333 -45.333 28.333 -83.333 45 -114s43 -68.334 79 -113.001z" />
    <glyph glyph-name="parenright" unicode=")" horiz-adv-x="333" 
d="M51 -215l-19.001 20.998c36 44.667 62.333 82.334 79 113.001s31.667 68.667 45 114c20.667 70.667 31 148.334 31 233.001c0 81.333 -10 154.333 -30 219c-12.667 41.333 -27.5 76.833 -44.5 106.5s-43.833 65.834 -80.5 108.501l19 26
c52 -47.333 90.833 -88 116.5 -122s47.834 -75.333 66.501 -124c26 -66.667 39 -138.334 39 -215.001c0 -123.333 -31 -234.333 -93 -333c-26.667 -42 -69.667 -91 -129 -147z" />
    <glyph glyph-name="asterisk" unicode="*" horiz-adv-x="389" 
d="M168 514l-131 64l-3 10l44 52h10l95 -98l26 143l9 4l62 -19l3 -15l-69 -125l139 24l6 -4v-62l-9 -8l-138 20l68 -122v-10l-68 -26l-10 4l-18 142l-106 -88h-10l-36 51l5 9z" />
    <glyph glyph-name="plus" unicode="+" horiz-adv-x="606" 
d="M275 289v223h56v-223h224v-56h-224v-226h-56v226h-224v56h224z" />
    <glyph glyph-name="comma" unicode="," horiz-adv-x="250" 
d="M204 123l14 -13.999c-24.667 -68.667 -73.667 -150.334 -147 -245.001l-41 -19l-14 11c29.333 48 50.833 90 64.5 126s22.167 73 25.5 111c35.333 10 68 20 98 30z" />
    <glyph glyph-name="hyphen" unicode="-" horiz-adv-x="333" 
d="M282 215h-260l-5 5l27 67h263l5 -5z" />
    <glyph glyph-name="period" unicode="." horiz-adv-x="250" 
d="M124 111c15.333 0 28.999 -5.83301 40.999 -17.5s18 -25.167 18 -40.5s-6 -28.833 -18 -40.5s-26 -17.5 -42 -17.5c-14.667 0 -27.667 5.83301 -39 17.5s-17 25.167 -17 40.5s5.83301 28.833 17.5 40.5s24.834 17.5 39.501 17.5z" />
    <glyph glyph-name="slash" unicode="/" horiz-adv-x="606" 
d="M519 726l-372 -845h-60l372 845h60z" />
    <glyph glyph-name="zero" unicode="0" 
d="M263 689c68.667 0 119.5 -26.5 152.5 -79.5s49.5 -134.167 49.5 -243.5c0 -257.333 -75.667 -386 -227 -386c-65.333 0 -116.333 25.667 -153 77c-37.333 52 -56 141 -56 267c0 243.333 78 365 234 365zM245 654c-47.333 0 -81.168 -22.668 -101.501 -68.001
s-30.5 -120.666 -30.5 -225.999c0 -122 10.833 -210 32.5 -264s56.834 -81 105.501 -81c46 0 79.167 23.5 99.5 70.5s30.5 123.833 30.5 230.5c0 120 -10.5 206.333 -31.5 259s-55.833 79 -104.5 79z" />
    <glyph glyph-name="one" unicode="1" 
d="M67 555l-7.00195 43.001c88.667 31.333 164.334 63.333 227.001 96l14 -5v-593c0 -26 4 -43.167 12 -51.5s25.667 -13.166 53 -14.499l52 -3v-30c-10.667 0 -23 0.166992 -37 0.5s-25.167 0.666016 -33.5 0.999023s-14.166 0.5 -17.499 0.5
c-22.667 0.666992 -45.667 1 -69 1c-7.33301 0 -62.333 -1 -165 -3v30l56 3c27.333 1.33301 45 6.16602 53 14.499s12 25.5 12 51.5v485c0 22 -2.66699 33 -8 33c-1.33301 0 -2.33301 -0.333008 -3 -1l-129 -58h-10z" />
    <glyph glyph-name="two" unicode="2" 
d="M16 23l169.999 180.998c56 60 95.833 110.5 119.5 151.5s35.5 80.167 35.5 117.5c0 42.667 -12.667 76.5 -38 101.5s-59.666 37.5 -102.999 37.5c-33.333 0 -59.5 -6.66699 -78.5 -20s-32.5 -34.333 -40.5 -63l-13 -46h-29l17 136c24.667 24.667 50.167 42.5 76.5 53.5
s57.5 16.5 93.5 16.5c63.333 0 113.333 -16.667 150 -50s55 -78.666 55 -135.999c0 -37.333 -9 -72.666 -27 -105.999s-51.333 -75.666 -100 -126.999l-182 -193c154 3.33301 269.333 6.66602 346 9.99902c-1.33301 -14.667 -2 -29.667 -2 -45c0 -16 0.666992 -31 2 -45
c-128.667 2 -205 3 -229 3s-98.333 -1 -223 -3v26z" />
    <glyph glyph-name="three" unicode="3" 
d="M43 498l28.998 124.003c24 24 48.333 41.167 73 51.5s54 15.5 88 15.5c55.333 0 100 -13.5 134 -40.5s51 -62.833 51 -107.5c0 -29.333 -8.33301 -56.833 -25 -82.5s-45 -53.834 -85 -84.501c44 -8 76.667 -19.667 98 -35c37.333 -26 56 -64.333 56 -115
c0 -46.667 -17 -90.667 -51 -132c-27.333 -33.333 -62 -60.333 -104 -81s-83 -31 -123 -31c-38 0 -82.667 8.66699 -134 26c-5.33301 46.667 -17 95.667 -35 147l27 10c16.667 -46.667 35.334 -79.667 56.001 -99c30.667 -28.667 69.667 -43 117 -43
c46.667 0 84 15.333 112 46s42 71.667 42 123c0 45.333 -11.5 80.666 -34.5 105.999s-55.167 38 -96.5 38c-23.333 0 -51.333 -7.33301 -84 -22l-7 6l12 53l15 -1c17.333 -1.33301 28 -2 32 -2c35.333 0 65.833 13.667 91.5 41s38.5 59.666 38.5 96.999
c0 31.333 -11.5 58.5 -34.5 81.5s-50.833 34.5 -83.5 34.5c-26 0 -52.167 -7 -78.5 -21s-42.166 -29.667 -47.499 -47l-18 -56h-31z" />
    <glyph glyph-name="four" unicode="4" 
d="M280 181h-267.002l-11 23l283 463l74 27l12 -5c-4.66699 -38 -7 -139.667 -7 -305v-139h24h3c17.333 -1.33301 44.333 -0.333008 81 3v-71c-24.667 2.66699 -60.667 4 -108 4v-75c0 -30 3.83301 -49.833 11.5 -59.5s23.834 -15.167 48.501 -16.5l48 -3v-30
c-88.667 2 -141 3 -157 3s-68.333 -1 -157 -3v30l62 3c24.667 0.666992 40.834 6 48.501 16s11.5 30 11.5 60v75zM279.998 245v352l-215 -352h215z" />
    <glyph glyph-name="five" unicode="5" 
d="M127 605l-9 -209c56 33.333 104.667 50 146 50c57.333 0 104.166 -18 140.499 -54s54.5 -82.333 54.5 -139c0 -76 -31 -141.333 -93 -196c-58.667 -51.333 -123 -77 -193 -77c-44 0 -81 8 -111 24c-11.333 36.667 -27.666 81 -48.999 133l24 14l46 -82
c6.66699 -12.667 21.167 -23.167 43.5 -31.5s47.166 -12.5 74.499 -12.5c54.667 0 97.167 15.5 127.5 46.5s45.5 74.167 45.5 129.5c0 54 -14 96.833 -42 128.5s-66 47.5 -114 47.5c-24 0 -44.667 -4.16699 -62 -12.5s-37.666 -24.5 -60.999 -48.5l-20 6
c4 58.667 6 133.667 6 225c0 10 -0.666992 55.667 -2 137l5 5c62.667 -3.33301 120.667 -5 174 -5s111.333 1.66699 174 5l5 -5c-1.33301 -12 -2 -25.333 -2 -40c0 -14 0.666992 -27 2 -39l-5 -5c-96 0 -197.667 1.66699 -305 5z" />
    <glyph glyph-name="six" unicode="6" 
d="M416 672l0.000976562 -7.99902c-90 -27.333 -157.333 -67 -202 -119s-72.334 -123.333 -83.001 -214l23 18c29.333 23.333 53.666 39.166 72.999 47.499s41.333 12.5 66 12.5c52.667 0 95 -17.333 127 -52s48 -80.667 48 -138c0 -68 -21.667 -124.833 -65 -170.5
s-97.333 -68.5 -162 -68.5s-115.667 23.833 -153 71.5s-56 112.834 -56 195.501c0 141.333 53 256.666 159 345.999c25.333 22 50.833 39.5 76.5 52.5s62.834 27.5 111.501 43.5zM255.001 349.001c-24 0 -46.668 -5.33301 -68.001 -16s-37.666 -24.667 -48.999 -42
c-10 -15.333 -15 -39 -15 -71c0 -67.333 11.167 -118.666 33.5 -153.999s54.833 -53 97.5 -53c38.667 0 69.667 15.5 93 46.5s35 72.5 35 124.5c0 49.333 -11.667 89.166 -35 119.499s-54 45.5 -92 45.5z" />
    <glyph glyph-name="seven" unicode="7" 
d="M56 10l244.001 392c33.333 54 69.666 121 108.999 201h-267c-23.333 0 -38.333 -4 -45 -12s-12 -27.333 -16 -58l-7 -56h-30c2 60.667 3 94.667 3 102c0 6.66699 -1 41.667 -3 105l10 5c80.667 -3.33301 153.667 -5 219 -5c59.333 0 134 1.66699 224 5v-30l-183 -329
c-64 -116 -116.333 -227 -157 -333c-26 2 -41.333 3 -46 3s-20 -1 -46 -3z" />
    <glyph glyph-name="eight" unicode="8" 
d="M168 345c-44 28.667 -74.1699 54.499 -90.5029 77.499s-24.5 51.5 -24.5 85.5c0 52.667 19.5 96 58.5 130s88.167 51 147.5 51c52.667 0 95.334 -13.167 128.001 -39.5s49 -61.166 49 -104.499c0 -30 -9.16699 -57 -27.5 -81s-50.166 -51.667 -95.499 -83
c56.667 -26 96 -51.667 118 -77s33 -58 33 -98c0 -62 -23.333 -115.167 -70 -159.5s-102.667 -66.5 -168 -66.5c-56.667 0 -103.5 17 -140.5 51s-55.5 76.667 -55.5 128s19.333 96.333 58 135c18.667 18 45.334 35 80.001 51zM283.997 294.999l-80.001 36.001
c-37.333 -22.667 -63.833 -46.5 -79.5 -71.5s-23.5 -55.833 -23.5 -92.5c0 -46.667 12.667 -83.834 38 -111.501s59.333 -41.5 102 -41.5c40.667 0 74.834 14.5 102.501 43.5s41.5 64.5 41.5 106.5c0 26.667 -9 51.667 -27 75s-42.667 42 -74 56zM222.996 423
l54.999 -27.002c32.667 20.667 55.834 41.667 69.501 63s20.5 46.333 20.5 75c0 36.667 -11 66 -33 88s-51.333 33 -88 33c-35.333 0 -64 -10.167 -86 -30.5s-33 -47.166 -33 -80.499c0 -49.333 31.667 -89.666 95 -120.999z" />
    <glyph glyph-name="nine" unicode="9" 
d="M96 -20l-33.999 17.001v8c90.667 22 162 62.333 214 121s80 130 84 214l-70 -58c-20.667 -17.333 -51 -26 -91 -26c-52 0 -94.833 18.833 -128.5 56.5s-50.5 85.167 -50.5 142.5c0 66.667 21.333 122.334 64 167.001s96 67 160 67c66 0 118 -24.167 156 -72.5
s57 -114.833 57 -199.5c0 -136.667 -49.333 -247.334 -148 -332.001c-26.667 -22.667 -54.834 -41.334 -84.501 -56.001s-72.5 -31 -128.5 -49zM240.001 656.001c-41.333 0 -74.001 -14.667 -98.001 -44s-36 -69.333 -36 -120c0 -52 12.333 -94.167 37 -126.5
s57 -48.5 97 -48.5c38.667 0 70 14.167 94 42.5s36 65.5 36 111.5c0 48.667 -10 90.667 -30 126c-21.333 39.333 -54.666 59 -99.999 59z" />
    <glyph glyph-name="colon" unicode=":" horiz-adv-x="250" 
d="M123 111c15.333 0 28.999 -5.83301 40.999 -17.5s18 -25.167 18 -40.5s-6 -28.833 -18 -40.5s-26 -17.5 -42 -17.5c-14.667 0 -27.667 5.83301 -39 17.5s-17 25.167 -17 40.5s5.83301 28.833 17.5 40.5s24.834 17.5 39.501 17.5zM122.999 456
c15.333 0 28.999 -6.00098 40.999 -18.001s18 -25.667 18 -41s-6 -28.666 -18 -39.999s-26 -17 -42 -17c-14.667 0 -27.667 5.83301 -39 17.5s-17 25.167 -17 40.5s5.83301 28.833 17.5 40.5s24.834 17.5 39.501 17.5z" />
    <glyph glyph-name="semicolon" unicode=";" horiz-adv-x="250" 
d="M204 125l14 -13.999c-24.667 -68.667 -73.667 -150.334 -147 -245.001l-41 -19l-14 11c29.333 48 50.833 90 64.5 126s22.167 73 25.5 111c35.333 10 68 20 98 30zM150 456.001c15.333 0 28.999 -6.00098 40.999 -18.001s18 -25.667 18 -41s-6 -28.666 -18 -39.999
s-26 -17 -42 -17c-14.667 0 -27.667 5.83301 -39 17.5s-17 25.167 -17 40.5s5.83301 28.833 17.5 40.5s24.834 17.5 39.501 17.5z" />
    <glyph glyph-name="less" unicode="&#x3c;" horiz-adv-x="606" 
d="M558 -2l-501 234v58l501 234v-64l-429 -201l429 -197v-64z" />
    <glyph glyph-name="equal" unicode="=" horiz-adv-x="606" 
d="M555 386v-56h-504v56h504zM555 192v-56h-504v56h504z" />
    <glyph glyph-name="greater" unicode="&#x3e;" horiz-adv-x="606" 
d="M48 -2v64l429 197l-429 201v64l501 -234v-58z" />
    <glyph glyph-name="question" unicode="?" horiz-adv-x="444" 
d="M43 546l38 113.002c47.333 23.333 91.333 35 132 35c51.333 0 94.5 -14.833 129.5 -44.5s52.5 -66.167 52.5 -109.5c0 -28.667 -7.66699 -55 -23 -79s-44.333 -55.667 -87 -95c-40.667 -36.667 -66.5 -62.167 -77.5 -76.5s-16.5 -29.833 -16.5 -46.5
c0 -14.667 7.33301 -30.667 22 -48l-21 -14c-29.333 18.667 -44 43 -44 73c0 17.333 5.16699 34.666 15.5 51.999s30.833 42.666 61.5 75.999c29.333 32.667 49.5 58.667 60.5 78s16.5 39 16.5 59c0 32 -11.5 58.167 -34.5 78.5s-52.5 30.5 -88.5 30.5
c-46.667 0 -75.667 -14 -87 -42l-20 -48zM198 111.002c15.333 0 28.999 -5.83301 40.999 -17.5s18 -25.167 18 -40.5s-6 -28.833 -18 -40.5s-26 -17.5 -42 -17.5c-14.667 0 -27.667 5.83301 -39 17.5s-17 25.167 -17 40.5s5.83301 28.833 17.5 40.5s24.834 17.5 39.501 17.5
z" />
    <glyph glyph-name="at" unicode="@" horiz-adv-x="747" 
d="M658 171h60.999c-26.667 -44 -53 -77 -79 -99c-69.333 -61.333 -151.333 -92 -246 -92c-104 0 -191.667 33.833 -263 101.5s-107 150.834 -107 249.501c0 102 35.5 188 106.5 258s158.5 105 262.5 105c92.667 0 171 -27.5 235 -82.5s96 -122.5 96 -202.5
c0 -68.667 -24.333 -131.667 -73 -189s-102 -86 -160 -86c-45.333 0 -70.666 28 -75.999 84c-24.667 -31.333 -45.5 -52.333 -62.5 -63s-37.167 -16 -60.5 -16c-37.333 0 -68.833 13.667 -94.5 41s-38.5 60.666 -38.5 99.999c0 59.333 22 112.333 66 159s94.333 70 151 70
c47.333 0 76.666 -26.667 87.999 -80l18 70h88l-77 -279c-2.66699 -8.66699 -4 -18 -4 -28c0 -8.66699 2.33301 -15.667 7 -21s10.667 -8 18 -8c37.333 0 72.833 26 106.5 78s50.5 106.667 50.5 164c0 68.667 -26 125.667 -78 171s-117.333 68 -196 68
c-91.333 0 -167.166 -29.167 -227.499 -87.5s-90.5 -131.5 -90.5 -219.5s30.5 -161.167 91.5 -219.5s137.833 -87.5 230.5 -87.5c44 0 84.667 8.33301 122 25c28 12.667 51.5 27.167 70.5 43.5s40.5 40.5 64.5 72.5zM392.999 482c-30.667 2 -59.999 -17.333 -87.999 -58
c-16 -23.333 -29.5 -51.333 -40.5 -84s-16.5 -61.334 -16.5 -86.001c0 -26.667 5.5 -48 16.5 -64s25.5 -24 43.5 -24c33.333 0 62.666 22.667 87.999 68c14 24.667 25.667 53.834 35 87.501s14 63.167 14 88.5c0 20.667 -4.83301 37.5 -14.5 50.5s-22.167 20.167 -37.5 21.5
z" />
    <glyph glyph-name="A" unicode="A" horiz-adv-x="778" 
d="M408 700l241.999 -568.001c18 -41.333 31.333 -68.166 40 -80.499s19.334 -19.5 32.001 -21.5l34 -3v-30c-72 2 -114.333 3 -127 3c-10.667 0 -57 -1 -139 -3v30l47 3c27.333 2 41 8.66699 41 20c0 8 -7 29.333 -21 64l-46 115h-288l-28 -67
c-23.333 -55.333 -35 -90.666 -35 -105.999c0 -14.667 16 -23.334 48 -26.001l37 -3v-30c-72 2 -112.333 3 -121 3c-10.667 0 -47 -1 -109 -3v30l37 3c23.333 2 41.333 18.333 54 49l178 405l53 121l39 95h32zM239.999 268.999h253l-126 298z" />
    <glyph glyph-name="B" unicode="B" horiz-adv-x="611" 
d="M338 692l24.9971 0.00195312c58 0 102.333 -11.667 133 -35s46 -57 46 -101c0 -52 -24.333 -94.667 -73 -128c-24.667 -16.667 -58 -29.334 -100 -38.001c39.333 -3.33301 69.333 -7.83301 90 -13.5s40.334 -15.5 59.001 -29.5c38.667 -27.333 58 -67 58 -119
c0 -35.333 -8.33301 -69 -25 -101s-39.667 -58.333 -69 -79c-46.667 -34 -108 -51 -184 -51c-6.66699 0 -36.667 0.666992 -90 2c-8 0.666992 -19.333 1 -34 1c-4 0 -40.333 -1 -109 -3v23l26 10c14.667 6 22 27.667 22 65v474c0 39.333 -2.66699 63.666 -8 72.999
s-19.666 15 -42.999 17l-36 3v30c92.667 -2 145.334 -3 158.001 -3c10 0 61.333 1 154 3zM207.997 362.002l-0.000976562 -314.999c22 -5.33301 47.667 -8 77 -8c59.333 0 105.5 14.833 138.5 44.5s49.5 71.167 49.5 124.5s-16.167 92.666 -48.5 117.999
s-82.166 38 -149.499 38c-18.667 0 -41 -0.666992 -67 -2zM207.996 644.003l-0.000976562 -243c20.667 -1.33301 41 -2 61 -2c56.667 0 99.834 11.5 129.501 34.5s44.5 56.167 44.5 99.5c0 41.333 -12.333 71.5 -37 90.5s-63.667 28.5 -117 28.5
c-30.667 0 -57.667 -2.66699 -81 -8z" />
    <glyph glyph-name="C" unicode="C" horiz-adv-x="709" 
d="M670 84l-28.001 -49.999c-69.333 -36 -145 -54 -227 -54c-117.333 0 -212.166 33.333 -284.499 100s-108.5 154 -108.5 262c0 136.667 58 239 174 307c68.667 40 147.667 60 237 60c71.333 0 148.333 -13.667 231 -41c-12 -55.333 -18.333 -106 -19 -152h-31v72
c0 19.333 -20.833 37.333 -62.5 54s-87.167 25 -136.5 25c-86 0 -155.167 -28 -207.5 -84s-78.5 -130 -78.5 -222c0 -98.667 29.833 -177.834 89.5 -237.501s138.167 -89.5 235.5 -89.5c76 0 145 20 207 60z" />
    <glyph glyph-name="D" unicode="D" horiz-adv-x="774" 
d="M57 20l31 16c16.667 8 25 27.667 25 59v474c0 39.333 -2.83301 63.833 -8.5 73.5s-19.834 15.167 -42.501 16.5l-40 3v30c114 -2 182.667 -3 206 -3c24 0 69.333 0.666992 136 2c12 0.666992 24.667 1 38 1c105.333 0 189.833 -28 253.5 -84s95.5 -130.333 95.5 -223
c0 -53.333 -10.333 -105.5 -31 -156.5s-49 -94.167 -85 -129.5c-68.667 -68 -166.667 -102 -294 -102c-9.33301 0 -40.333 0.666992 -93 2c-12 0.666992 -29.333 1 -52 1c-15.333 0 -61.666 -1 -138.999 -3v23zM208 644l0.000976562 -595
c23.333 -5.33301 57.666 -8 102.999 -8c56.667 0 102.167 4.83301 136.5 14.5s66.5 26.834 96.5 51.501c66.667 54.667 100 138.667 100 252c0 99.333 -23.667 172.666 -71 219.999c-19.333 19.333 -39 33 -59 41c-47.333 21.333 -112.333 32 -195 32
c-46 0 -83 -2.66699 -111 -8z" />
    <glyph glyph-name="E" unicode="E" horiz-adv-x="611" 
d="M22 662l0.00195312 30.0029c99.333 -2 158.666 -3 177.999 -3c4.66699 0 49 0.666992 133 2c27.333 0.666992 60.333 1 99 1c33.333 0 74.666 -1 123.999 -3c-10.667 -42.667 -16 -93.334 -16 -152.001h-35v65c0 12 -1.5 20 -4.5 24s-10.5 7.33301 -22.5 10
c-33.333 9.33301 -81.666 14 -144.999 14c-54.667 0 -93.667 -2.66699 -117 -8v-267c34 -2 70.667 -3 110 -3c58 0 95.333 3.66699 112 11c4.66699 8.66699 7.33398 17.334 8.00098 26.001l5 52h30c-2 -66.667 -3 -105.334 -3 -116.001c0 -12 1 -49 3 -111h-30l-5 59l-8 25
c-16 8 -55.667 12 -119 12c-40.667 0 -75 -1 -103 -3v-280c26 -5.33301 59 -8 99 -8c98.667 0 160 4 184 12c15.333 5.33301 26.333 31.666 33 78.999c1.33301 4 3 15.333 5 34h35c-10.667 -55.333 -16 -110 -16 -164c-90.667 -2 -146.334 -3 -167.001 -3
c-14.667 0 -68.334 0.666992 -161.001 2c-25.333 0.666992 -49 1 -71 1c-16 0 -57 -1 -123 -3v30l36 3c23.333 2 37.666 7.66699 42.999 17s8 33.666 8 72.999v449c0 39.333 -2.66699 63.833 -8 73.5s-19.666 15.167 -42.999 16.5z" />
    <glyph glyph-name="F" unicode="F" horiz-adv-x="556" 
d="M216 327l0.00195312 -206.999c0 -39.333 2.66699 -63.833 8 -73.5s19.666 -15.167 42.999 -16.5l48 -3v-30c-59.333 2 -108.333 3 -147 3s-87.334 -1 -146.001 -3v30l48 3c23.333 1.33301 37.666 6.83301 42.999 16.5s8 34.167 8 73.5v449
c0 39.333 -2.66699 63.833 -8 73.5s-19.666 15.167 -42.999 16.5l-48 3v30c98 -2 156.667 -3 176 -3c40 0 76.333 0.666992 109 2l107 1c32 0 72.667 -1 122 -3c-10.667 -42.667 -16 -93.334 -16 -152.001h-35v65c0 12 -1.5 20 -4.5 24s-10.5 7.33301 -22.5 10
c-36 9.33301 -81 14 -135 14c-48.667 0 -84.334 -2.66699 -107.001 -8v-267c34 -2 70.667 -3 110 -3c58 0 95.333 3.66699 112 11c4.66699 8.66699 7.33398 17.334 8.00098 26.001l5 52h30c-2 -66.667 -3 -105.334 -3 -116.001c0 -12 1 -49 3 -111h-30l-5 59l-8 25
c-16 8 -55.667 12 -119 12c-40.667 0 -75 -1 -103 -3z" />
    <glyph glyph-name="G" unicode="G" horiz-adv-x="763" 
d="M641 516l0.00292969 53.001c0 18.667 -6.5 34.334 -19.5 47.001s-34.167 23.667 -63.5 33c-38 12 -82.667 18 -134 18c-93.333 0 -165.833 -26.667 -217.5 -80s-77.5 -128.333 -77.5 -225c0 -104 29.167 -186.667 87.5 -248s137.166 -92 236.499 -92
c33.333 0 63.166 3.16699 89.499 9.5s42.166 14.166 47.499 23.499c4 7.33301 6 21.666 6 42.999v101c0 12 -2.5 20.5 -7.5 25.5s-13.833 8.16699 -26.5 9.5l-83 7v30c58 -1.33301 98.667 -2 122 -2c22.667 0 63.667 0.666992 123 2l4 -25l-29 -10
c-5.33301 -2 -8.5 -4.83301 -9.5 -8.5s-1.5 -13.167 -1.5 -28.5v-168c-122 -34 -214 -51 -276 -51c-58 0 -112.667 9.5 -164 28.5s-94.333 45.833 -129 80.5c-64.667 62.667 -97 146.667 -97 252c0 110.667 39 199.667 117 267s181.667 101 311 101
c40 0 76.333 -2.83301 109 -8.5s77 -16.5 133 -32.5c-13.333 -51.333 -20 -102 -20 -152h-31z" />
    <glyph glyph-name="H" unicode="H" horiz-adv-x="832" 
d="M616 120v223c-18 1.33301 -45.667 2 -83 2h-234c-37.333 0 -65 -0.666992 -83 -2v-223c0 -39.333 2.66699 -63.833 8 -73.5s19.666 -15.167 42.999 -16.5l48 -3v-30c-59.333 2 -108.333 3 -147 3s-87.334 -1 -146.001 -3v30l48 3
c23.333 1.33301 37.666 6.83301 42.999 16.5s8 34.167 8 73.5v449c0 39.333 -2.66699 63.833 -8 73.5s-19.666 15.167 -42.999 16.5l-48 3v30c72 -2 120.667 -3 146 -3c49.333 0 98.333 1 147 3v-30l-48 -3c-23.333 -1.33301 -37.666 -6.83301 -42.999 -16.5
s-8 -34.167 -8 -73.5v-178c26.667 -1.33301 54.334 -2 83.001 -2h234c27.333 0 55 0.666992 83 2v178c0 39.333 -2.66699 63.833 -8 73.5s-19.666 15.167 -42.999 16.5l-48 3v30c72 -2 120.667 -3 146 -3c49.333 0 98.333 1 147 3v-30l-48 -3
c-23.333 -1.33301 -37.666 -6.83301 -42.999 -16.5s-8 -34.167 -8 -73.5v-449c0 -39.333 2.66699 -63.833 8 -73.5s19.666 -15.167 42.999 -16.5l48 -3v-30c-58.667 2 -107.667 3 -147 3c-38 0 -86.667 -1 -146 -3v30l48 3c23.333 1.33301 37.666 6.83301 42.999 16.5
s8 34.167 8 73.5z" />
    <glyph glyph-name="I" unicode="I" horiz-adv-x="337" 
d="M216 569l0.000976562 -449c0 -39.333 2.66699 -63.833 8 -73.5s19.666 -15.167 42.999 -16.5l48 -3v-30c-59.333 2 -108.333 3 -147 3s-87.334 -1 -146.001 -3v30l48 3c23.333 1.33301 37.666 6.83301 42.999 16.5s8 34.167 8 73.5v449c0 39.333 -2.66699 63.833 -8 73.5
s-19.666 15.167 -42.999 16.5l-48 3v30c72 -2 120.667 -3 146 -3c49.333 0 98.333 1 147 3v-30l-48 -3c-23.333 -1.33301 -37.666 -6.83301 -42.999 -16.5s-8 -34.167 -8 -73.5z" />
    <glyph glyph-name="J" unicode="J" horiz-adv-x="333" 
d="M-10 -192l-5.00195 76.001l11 6c22 -13.333 44.333 -20 67 -20c20 0 34 8.33301 42 25s12 46 12 88v586c0 39.333 -2.66699 63.833 -8 73.5s-19.666 15.167 -42.999 16.5l-48 3v30c72 -2 120.667 -3 146 -3c49.333 0 98.333 1 147 3v-30l-48 -3
c-23.333 -1.33301 -37.666 -6.83301 -42.999 -16.5s-8 -34.167 -8 -73.5v-452c0 -60.667 -4.16699 -106.834 -12.5 -138.501s-24.833 -62.5 -49.5 -92.5c-19.333 -24.667 -42.5 -45 -69.5 -61s-49.167 -22.667 -66.5 -20l-7 1z" />
    <glyph glyph-name="K" unicode="K" horiz-adv-x="726" 
d="M216 325l0.00195312 -204.998c0 -39.333 2.66699 -63.833 8 -73.5s19.666 -15.167 42.999 -16.5l48 -3v-30c-59.333 2 -108.333 3 -147 3s-87.334 -1 -146.001 -3v30l48 3c23.333 1.33301 37.666 6.83301 42.999 16.5s8 34.167 8 73.5v449
c0 39.333 -2.66699 63.833 -8 73.5s-19.666 15.167 -42.999 16.5l-48 3v30c72 -2 120.667 -3 146 -3c49.333 0 98.333 1 147 3v-30l-48 -3c-23.333 -1.33301 -37.666 -6.83301 -42.999 -16.5s-8 -34.167 -8 -73.5v-214l278 271c19.333 19.333 29 32.333 29 39v27
c58 -2 87.667 -3 89 -3c11.333 0 38 1 80 3v-30l-42 -2c-24.667 -0.666992 -50.667 -13.334 -78 -38.001l-266 -240l330 -312c28 -26.667 48.667 -40.334 62 -41.001l21 -2v-30c-33.333 2 -55 3 -65 3c-6.66699 0 -33.334 -1 -80.001 -3l-348 335z" />
    <glyph glyph-name="L" unicode="L" horiz-adv-x="611" 
d="M216 569v-522.001c23.333 -5.33301 51.666 -8 84.999 -8c132 0 205 6 219 18c6 5.33301 12.333 23.333 19 54l1 3c0 1.33301 0.333008 2.83301 1 4.5s1 2.83398 1 3.50098l12 50h32c-8 -78 -15 -135.333 -21 -172c-90.667 -2 -146.667 -3 -168 -3
c-58.667 0 -120.667 0.666992 -186 2c-14.667 0.666992 -30.334 1 -47.001 1c-22 0 -55 -1 -99 -3v23l31 16c16.667 8 25 27.667 25 59v474c0 39.333 -2.66699 63.833 -8 73.5s-19.666 15.167 -42.999 16.5l-48 3v30c72 -2 120.667 -3 146 -3c49.333 0 98.333 1 147 3v-30
l-48 -3c-23.333 -1.33301 -37.666 -6.83301 -42.999 -16.5s-8 -34.167 -8 -73.5z" />
    <glyph glyph-name="M" unicode="M" horiz-adv-x="946" 
d="M732 120l0.00390625 458.001c-18.667 -35.333 -33.334 -64 -44.001 -86l-178 -378c-6.66699 -13.333 -18.334 -40.333 -35.001 -81c-10 -24.667 -16.333 -40 -19 -46h-20l-279 591v-458c0 -39.333 2.83301 -63.833 8.5 -73.5s19.834 -15.167 42.501 -16.5l44 -3v-30
c-70 2 -110 3 -120 3c-11.333 0 -50 -1 -116 -3v30l44 3c22.667 1.33301 36.834 6.83301 42.501 16.5s8.5 34.167 8.5 73.5v449c0 39.333 -2.83301 63.833 -8.5 73.5s-19.834 15.167 -42.501 16.5l-44 3v30c53.333 -2 85 -3 95 -3s41.667 1 95 3l264 -556l262 556
c53.333 -2 85 -3 95 -3c11.333 0 42.333 1 93 3v-30l-42 -3c-22.667 -1.33301 -36.834 -6.83301 -42.501 -16.5s-8.5 -34.167 -8.5 -73.5v-449c0 -39.333 2.66699 -63.833 8 -73.5s19.666 -15.167 42.999 -16.5l48 -3v-30c-58.667 2 -109 3 -151 3c-39.333 0 -82 -1 -128 -3
v30l34 3c23.333 2 37.666 7.66699 42.999 17s8 33.666 8 72.999z" />
    <glyph glyph-name="N" unicode="N" horiz-adv-x="831" 
d="M137 689l54.001 3l481 -594v471c0 39.333 -2.83301 63.833 -8.5 73.5s-19.834 15.167 -42.501 16.5l-44 3v30c66 -2 104.667 -3 116 -3c10 0 50 1 120 3v-30l-44 -3c-22.667 -1.33301 -36.834 -6.83301 -42.501 -16.5s-8.5 -34.167 -8.5 -73.5v-552
c0 -2 0.666992 -10.333 2 -25c0.666992 -4.66699 1 -8.66699 1 -12l-90 16l-473 587v-463c0 -39.333 2.83301 -63.833 8.5 -73.5s19.834 -15.167 42.501 -16.5l44 -3v-30c-70 2 -110 3 -120 3c-11.333 0 -50 -1 -116 -3v30l44 3c22.667 1.33301 36.834 6.83301 42.501 16.5
s8.5 34.167 8.5 73.5v449c0 39.333 -2.83301 63.833 -8.5 73.5s-19.834 15.167 -42.501 16.5l-44 3v30c30.667 -1.33301 70.667 -2.33301 120 -3z" />
    <glyph glyph-name="O" unicode="O" horiz-adv-x="786" 
d="M402 709c111.333 0 199.499 -30.832 264.499 -92.499s97.5 -144.834 97.5 -249.501c0 -110 -37.667 -202 -113 -276s-169 -111 -281 -111c-101.333 0 -184.666 34 -249.999 102s-98 154.333 -98 259c0 110 34.833 198.833 104.5 266.5s161.5 101.5 275.5 101.5z
M384.999 667.001c-82 0 -145.167 -25.001 -189.5 -75.001s-66.5 -121.333 -66.5 -214c0 -106.667 25.833 -192.667 77.5 -258s119.5 -98 203.5 -98c77.333 0 137.833 27.833 181.5 83.5s65.5 132.834 65.5 231.501c0 104 -24 185 -72 243s-114.667 87 -200 87z" />
    <glyph glyph-name="P" unicode="P" horiz-adv-x="604" 
d="M216 642l0.00292969 -522.001c0 -39.333 2.66699 -63.833 8 -73.5s19.666 -15.167 42.999 -16.5l48 -3v-30c-59.333 2 -108.333 3 -147 3s-87.334 -1 -146.001 -3v30l48 3c23.333 1.33301 37.666 6.83301 42.999 16.5s8 34.167 8 73.5v449
c0 36.667 -3.16699 60.5 -9.5 71.5s-20.833 17.167 -43.5 18.5l-45 3v30c106.667 -2 167.334 -3 182.001 -3c45.333 0 92.666 0.666992 141.999 2c8.66699 0.666992 18 1 28 1c63.333 0 113.333 -13.833 150 -41.5s55 -65.5 55 -113.5c0 -60 -23.167 -110.5 -69.5 -151.5
s-103.833 -61.5 -172.5 -61.5c-19.333 0 -38.666 2 -57.999 6l-10 36c22 -6.66699 42.667 -10 62 -10c43.333 0 78.833 14.333 106.5 43s41.5 65.334 41.5 110.001c0 47.333 -14.167 83.333 -42.5 108s-69.5 37 -123.5 37c-30.667 0 -63.334 -4 -98.001 -12z" />
    <glyph glyph-name="Q" unicode="Q" horiz-adv-x="786" 
d="M388 -19l-10.998 0.000976562c-107.333 0 -193.333 33 -258 99s-97 153.667 -97 263s34.667 197.666 104 264.999s160 101 272 101s201 -30.5 267 -91.5s99 -143.167 99 -246.5c0 -72 -17.333 -138.333 -52 -199s-82.334 -108.667 -143.001 -144
c-26 -14.667 -50.667 -25.334 -74 -32.001s-54.666 -11.667 -93.999 -15c33.333 -4 73.666 -16.333 120.999 -37c76.667 -32.667 137.667 -49 183 -49c8 0 27.667 2 59 6v-21l-84 -56c-42.667 8.66699 -78 17.334 -106 26.001l-148 46c-30.667 10 -56.667 15 -78 15
c-8 0 -17.333 -2.66699 -28 -8l-59 -32l2 32c55.333 42.667 91.666 66.667 108.999 72zM385.002 667.001c-82.667 0 -146.001 -25.167 -190.001 -75.5s-66 -122.5 -66 -216.5c0 -104.667 26.667 -190.667 80 -258c50.667 -62.667 118.334 -94 203.001 -94
c78.667 0 139.167 27 181.5 81s63.5 131 63.5 231c0 104.667 -23.833 186.167 -71.5 244.5s-114.5 87.5 -200.5 87.5z" />
    <glyph glyph-name="R" unicode="R" horiz-adv-x="668" 
d="M216 642l0.00292969 -522.001c0 -39.333 2.66699 -63.833 8 -73.5s19.666 -15.167 42.999 -16.5l48 -3v-30c-59.333 2 -108.333 3 -147 3s-87.334 -1 -146.001 -3v30l48 3c23.333 1.33301 37.666 6.83301 42.999 16.5s8 34.167 8 73.5v449
c0 39.333 -2.83301 63.833 -8.5 73.5s-19.834 15.167 -42.501 16.5l-41 3v30c93.333 -2 151 -3 173 -3c22.667 0 77.334 1 164.001 3h16c62 0 109.833 -13 143.5 -39s50.5 -63 50.5 -111c0 -58.667 -26.667 -107 -80 -145c-28.667 -20 -67 -36 -115 -48l227 -296
c11.333 -14.667 31.666 -23.334 60.999 -26.001v-30c-42 2 -66 3 -72 3c-14 0 -36.667 -1 -68 -3l-23 31c-4 4.66699 -10 12.334 -18 23.001l-184 247c-8 10.667 -16.667 21.334 -26 32.001l-26 30l6 12c8.66699 -0.666992 18.334 -1 29.001 -1c58 0 104 13.5 138 40.5
s51 63.5 51 109.5c0 42.667 -14 75.5 -42 98.5s-68 34.5 -120 34.5c-31.333 0 -64 -4 -98 -12z" />
    <glyph glyph-name="S" unicode="S" horiz-adv-x="525" 
d="M447 526l-32.002 -0.00195312l-6 57c-1.33301 14.667 -5.33301 26.334 -12 35.001s-18.334 17.334 -35.001 26.001c-27.333 15.333 -61.666 23 -102.999 23c-44 0 -80.167 -13.5 -108.5 -40.5s-42.5 -61.5 -42.5 -103.5c0 -38.667 12.333 -67.334 37 -86.001
s67.334 -32 128.001 -40c56.667 -7.33301 98 -15.166 124 -23.499s47.667 -20.833 65 -37.5c27.333 -25.333 41 -60.666 41 -105.999c0 -72.667 -28.167 -132.5 -84.5 -179.5s-128.166 -70.5 -215.499 -70.5c-57.333 0 -115 12.667 -173 38c5.33301 40 8 77.667 8 113
c0 14.667 -0.333008 28 -1 40h32l8 -67c2.66699 -20.667 20.5 -39.167 53.5 -55.5s69.5 -24.5 109.5 -24.5c52 0 94.833 14.5 128.5 43.5s50.5 66.167 50.5 111.5c0 38 -12.667 67.333 -38 88c-22.667 20 -68.667 35 -138 45c-86.667 11.333 -145.667 31.333 -177 60
c-28 26 -42 63.333 -42 112c0 65.333 24.167 119.166 72.5 161.499s109.833 63.5 184.5 63.5c50 0 110 -14 180 -42c-9.33301 -50.667 -14 -97.667 -14 -141z" />
    <glyph glyph-name="T" unicode="T" horiz-adv-x="613" 
d="M255 643l-154.997 -0.00195312c-26 0 -39.333 -11 -40 -33l-4 -79h-31c0 54 -2.33301 107.667 -7 161l68 -1c19.333 0 40.166 -0.166992 62.499 -0.5s39.333 -0.666016 51 -0.999023s18.834 -0.5 21.501 -0.5h158c29.333 0 57 0.333008 83 1c4.66699 0 49 0.666992 133 2
c-4.66699 -53.333 -7 -107 -7 -161h-31l-4 79c-0.666992 22 -14 33 -40 33h-155c-2.66699 -29.333 -4 -62.666 -4 -99.999v-423c0 -39.333 2.66699 -63.833 8 -73.5s19.666 -15.167 42.999 -16.5l48 -3v-30c-59.333 2 -108.333 3 -147 3s-87.334 -1 -146.001 -3v30l48 3
c23.333 1.33301 37.666 6.83301 42.999 16.5s8 34.167 8 73.5v423c0 36.667 -1.33301 70 -4 100z" />
    <glyph glyph-name="U" unicode="U" horiz-adv-x="778" 
d="M664 569l-0.000976562 -289.001c0 -109.333 -23 -187 -69 -233c-44 -44.667 -116.333 -67 -217 -67s-171 20.667 -211 62c-37.333 38 -56 95.333 -56 172v355c0 39.333 -2.66699 63.833 -8 73.5s-19.666 15.167 -42.999 16.5l-48 3v30c72 -2 120.667 -3 146 -3
c49.333 0 98.333 1 147 3v-30l-48 -3c-23.333 -1.33301 -37.666 -6.83301 -42.999 -16.5s-8 -34.167 -8 -73.5v-344c0 -64 15.833 -110.5 47.5 -139.5s82.167 -43.5 151.5 -43.5c72.667 0 126.334 16.833 161.001 50.5s52 85.834 52 156.501v320
c0 39.333 -2.83301 63.833 -8.5 73.5s-19.834 15.167 -42.501 16.5l-44 3v30c66 -2 104.667 -3 116 -3c10 0 50 1 120 3v-30l-44 -3c-22.667 -1.33301 -36.834 -6.83301 -42.501 -16.5s-8.5 -34.167 -8.5 -73.5z" />
    <glyph glyph-name="V" unicode="V" horiz-adv-x="722" 
d="M274 662l-56.001 -3.00195c-21.333 -1.33301 -32 -8 -32 -20c0 -2 0.666992 -5.66699 2 -11l197 -507l183 473c6 14.667 9 27.667 9 39c0 16 -11.667 24.667 -35 26l-52 3v30c10.667 -0.666992 23.334 -1 38.001 -1c38.667 -1.33301 62 -2 70 -2l108 3v-30l-30 -3
c-10 -1.33301 -18.667 -6.83301 -26 -16.5s-16.666 -28.167 -27.999 -55.5l-174 -421c-26.667 -65.333 -48 -123.666 -64 -174.999h-50c-13.333 47.333 -32.666 102.333 -57.999 165l-188 462c-6.66699 14.667 -13 24.834 -19 30.501s-14.333 9.16699 -25 10.5l-36 3v30
c73.333 -2 117.666 -3 132.999 -3s59.666 1 132.999 3v-30z" />
    <glyph glyph-name="W" unicode="W" horiz-adv-x="1000" 
d="M734 -9l-50.001 0.00195312c-23.333 72 -47 140.667 -71 206l-125 339l-174 -442c-15.333 -38 -27.333 -72.333 -36 -103h-50l-23 103l-119 515c-4.66699 18 -10.5 30.5 -17.5 37.5s-17.833 11.167 -32.5 12.5l-28 3v30c77.333 -2 119.333 -3 126 -3l126 3v-30l-42 -3
c-13.333 -0.666992 -22.833 -3.5 -28.5 -8.5s-8.5 -13.167 -8.5 -24.5s1.33301 -22.333 4 -33l100 -449l124 315c44 113.333 74 193.666 90 240.999h32c5.33301 -22 16.333 -56 33 -102l164 -461l132 489c0.666992 2 1 5 1 9c-0.666992 8 -4.16699 13.667 -10.5 17
s-18.5 5.66602 -36.5 6.99902l-40 3v30c63.333 -2 98.333 -3 105 -3l105 3v-30l-32 -3c-19.333 -2 -32 -11.667 -38 -29l-153 -538c-3.33301 -10 -7.16602 -23.167 -11.499 -39.5s-6.83301 -25.5 -7.5 -27.5c-2 -10.667 -4.66699 -22 -8 -34z" />
    <glyph glyph-name="X" unicode="X" horiz-adv-x="667" 
d="M648 27l0.00195312 -29.999c-42.667 2 -66.334 3 -71.001 3c-8 0 -32.667 -1 -74 -3l-184 306c-23.333 -32.667 -38.333 -54 -45 -64l-157 -242c-28.667 2 -45.667 3 -51 3s-22.666 -1 -51.999 -3v30l26 3c10.667 1.33301 20 5.33301 28 12s18.333 18.667 31 36
c0.666992 0.666992 1.5 1.66699 2.5 3s2.16699 3 3.5 5l189 255l-128 213c-34.667 58 -65.334 88 -92.001 90l-45 3l-2 26l141 27c17.333 -9.33301 36.333 -31 57 -65l128 -216l185 270h101v-30l-41 -3c-7.33301 -1.33301 -15.333 -6.33301 -24 -15
s-23.334 -26.334 -44.001 -53.001l-154 -208l176 -280c17.333 -27.333 30.333 -45.5 39 -54.5s17.667 -14.167 27 -15.5z" />
    <glyph glyph-name="Y" unicode="Y" horiz-adv-x="667" 
d="M9 680l115.003 23.998l5 1c9.33301 0.666992 22.833 -9.16602 40.5 -29.499s34.5 -44.833 50.5 -73.5l143 -261l103 163c38 60 74 123.333 108 190h80v-15c-64 -76.667 -126.667 -161 -188 -253c-29.333 -44 -48.666 -77.667 -57.999 -101s-14 -48.666 -14 -75.999v-129
c0 -39.333 2.66699 -63.833 8 -73.5s19.666 -15.167 42.999 -16.5l48 -3v-30c-59.333 2 -108.333 3 -147 3s-87.334 -1 -146.001 -3v30l48 3c23.333 1.33301 37.666 6.83301 42.999 16.5s8 34.167 8 73.5v142c0 16.667 -3 30 -9 40l-124 216
c-20.667 36 -42.834 66 -66.501 90s-44.167 37.333 -61.5 40l-29 3v29z" />
    <glyph glyph-name="Z" unicode="Z" horiz-adv-x="667" 
d="M637 663l-486.001 -618.999h273c76.667 0 124 3.66699 142 11s28.667 27.666 32 60.999l6 57h34c-4 -44 -6 -102.667 -6 -176l-277 3h-28l-312 -3v28c57.333 68 89.666 107 96.999 117l302 388l41 53c16 20 31 41.667 45 65h-228c-61.333 0 -101.666 -3 -120.999 -9
s-29.666 -18.667 -30.999 -38l-6 -71h-34c2 37.333 3 64.333 3 81s-1 43.667 -3 81l165 -1l182 -2h50l156 3z" />
    <glyph glyph-name="bracketleft" unicode="[" horiz-adv-x="333" 
d="M88 -184l-9.00195 13.001c5.33301 27.333 8 69.666 8 126.999v11c0 12 0.333008 23.333 1 34v13v514v13c-0.666992 6.66699 -1 19 -1 37c0 68 -2.66699 113 -8 135l9 13c46 -1.33301 78.333 -2 97 -2c18 0 50.333 0.666992 97 2l6 -6v-26l-4 -5h-38
c-28 0 -48.333 -5.33301 -61 -16c-8 -8 -12 -27 -12 -57c0 -15.333 -0.333008 -32.333 -1 -51v-37v-514v-37c0.666992 -20 1 -37.333 1 -52c0 -29.333 4 -48 12 -56c12.667 -10.667 33 -16 61 -16h38l4 -5v-26l-6 -6c-45.333 1.33301 -77.666 2 -96.999 2
c-17.333 0 -49.666 -0.666992 -96.999 -2z" />
    <glyph glyph-name="backslash" unicode="\" horiz-adv-x="606" 
d="M81 726h59l372 -726h-59z" />
    <glyph glyph-name="bracketright" unicode="]" horiz-adv-x="333" 
d="M245 726l9.00098 -13c-5.33301 -21.333 -8 -66 -8 -134c0 -18 -0.333008 -30.667 -1 -38v-13v-514v-13c0.666992 -8.66699 1 -22 1 -40c0.666992 -70 3.33398 -114 8.00098 -132l-9 -13c-46 1.33301 -78.333 2 -97 2c-18 0 -50.333 -0.666992 -97 -2l-6 6v26l4 5h38
c27.333 0 47.333 5.33301 60 16c8.66699 8 13 27.333 13 58c0 14 0.333008 30.667 1 50v37v514v37c-0.666992 18.667 -1 35.667 -1 51c0 30 -4.33301 49 -13 57c-12.667 10.667 -32.667 16 -60 16h-38l-4 5v26l6 6c45.333 -1.33301 77.666 -2 96.999 -2
c17.333 0 49.666 0.666992 96.999 2z" />
    <glyph glyph-name="asciicircum" unicode="^" horiz-adv-x="606" 
d="M119 283h-68l219 406h66l218 -406h-68l-183 338z" />
    <glyph glyph-name="underscore" unicode="_" 
d="M500 -125h-500v50h500v-50z" />
    <glyph glyph-name="grave" unicode="`" horiz-adv-x="333" 
d="M215 506l-144 90c-16.667 10.667 -27.5 19 -32.5 25s-7.5 13.333 -7.5 22c0 9.33301 3 17.333 9 24s13.333 10 22 10c14.667 0 33 -11 55 -33l138 -138h-40z" />
    <glyph glyph-name="a" unicode="a" 
d="M324 82l-124 -86c-7.33301 -5.33301 -21.333 -8 -42 -8c-39.333 0 -70.166 10.833 -92.499 32.5s-33.5 51.834 -33.5 90.501c0 43.333 15.167 77.5 45.5 102.5s79.5 43.833 147.5 56.5l99 18c-1.33301 45.333 -12.666 78 -33.999 98s-55.333 30 -102 30
c-23.333 0 -39.333 -3.16699 -48 -9.5s-18.334 -21.166 -29.001 -44.499l-13 -31l-26 7v65l53 32c37.333 22.667 77.666 34 120.999 34c58 0 98.833 -14.833 122.5 -44.5s35.5 -81.167 35.5 -154.5v-183c0 -24.667 1.66699 -40.334 5 -47.001s11 -10.334 23 -11.001l39 -2
v-30c-44 2 -68.667 3 -74 3c-8.66699 0 -34.667 -1 -78 -3zM324 124l-0.000976562 131.998c-78.667 -11.333 -130.667 -24.666 -156 -39.999c-33.333 -21.333 -50 -51.666 -50 -90.999c0 -21.333 7.5 -40 22.5 -56s32.5 -24 52.5 -24c19.333 0 42.333 8 69 24
s47.334 34.333 62.001 55z" />
    <glyph glyph-name="b" unicode="b" horiz-adv-x="553" 
d="M150 718l0.000976562 -349l55 56c29.333 29.333 70 44 122 44c52.667 0 96 -18.667 130 -56s51 -85 51 -143c0 -36.667 -7.66699 -73.167 -23 -109.5s-34 -62.5 -56 -78.5l-100 -72c-20.667 -14.667 -49.334 -22 -86.001 -22c-49.333 0 -92.333 12 -129 36l-40 -36l-16 6
c5.33301 53.333 8 106.333 8 159v467c0 27.333 -8.33301 41 -25 41h-56v28c66 10 118 22.333 156 37zM150.001 308v-215.001c0 -11.333 14.5 -23.166 43.5 -35.499s56.5 -18.5 82.5 -18.5c42.667 0 77.5 17.667 104.5 53s40.5 81 40.5 137
c0 53.333 -12.333 95.833 -37 127.5s-58 47.5 -100 47.5c-42.667 0 -78.667 -15.333 -108 -46c-17.333 -19.333 -26 -36 -26 -50z" />
    <glyph glyph-name="c" unicode="c" horiz-adv-x="444" 
d="M399 311l-28.001 -0.000976562l-7 61c-9.33301 12.667 -24.5 23.334 -45.5 32.001s-42.5 13 -64.5 13c-44.667 0 -79.167 -14.5 -103.5 -43.5s-36.5 -70.167 -36.5 -123.5c0 -66 16.833 -118.833 50.5 -158.5s78.167 -59.5 133.5 -59.5c34 0 69 9.66699 105 29l10 -15
l-21 -32c-5.33301 -7.33301 -23 -14.833 -53 -22.5s-58 -11.5 -84 -11.5c-67.333 0 -122.333 21.5 -165 64.5s-64 98.167 -64 165.5c0 90 35.667 157.333 107 202c60 38 114.667 57 164 57c38.667 0 77.334 -11.667 116.001 -35c-9.33301 -37.333 -14 -78.333 -14 -123z" />
    <glyph glyph-name="d" unicode="d" horiz-adv-x="611" 
d="M412 437l0.00195312 183.001c0 27.333 -8.33301 41 -25 41h-56v28c66 10 118 22.333 156 37l9 -8v-616c0 -32 2 -51.833 6 -59.5s14.333 -11.834 31 -12.501l46 -3v-30c-5.33301 0 -11.833 0.166992 -19.5 0.5s-13.834 0.666016 -18.501 0.999023s-8 0.5 -10 0.5
c-14 0.666992 -28.333 1 -43 1c-2 0 -27.667 -1 -77 -3l5 92l-111 -93c-6.66699 -5.33301 -22.667 -8 -48 -8c-64.667 0 -113.334 14 -146.001 42c-50.667 41.333 -76 103.333 -76 186c0 42.667 8.5 80.834 25.5 114.501s39.833 58.167 68.5 73.5l88 46
c24.667 12.667 50 19 76 19c29.333 0 69 -10.667 119 -32zM412.002 221.001l-0.00195312 128.999c0 8.66699 -11 20.334 -33 35.001c-36 24.667 -73.667 37 -113 37c-45.333 0 -80.666 -15.167 -105.999 -45.5s-38 -72.833 -38 -127.5
c0 -59.333 14.167 -108.166 42.5 -146.499s64.5 -57.5 108.5 -57.5c23.333 0 46.333 7.16699 69 21.5s41 33.166 55 56.499c6.66699 12 10.834 23.333 12.501 34s2.5 32 2.5 64z" />
    <glyph glyph-name="e" unicode="e" horiz-adv-x="479" 
d="M437 70l-20.001 -33.999c-5.33301 -8 -22.666 -18 -51.999 -30c-39.333 -17.333 -77.666 -26 -114.999 -26s-72 7.33301 -104 22s-58 35.334 -78 62.001c-28 39.333 -42 91 -42 155c0 52 9 94.667 27 128s47.333 61.666 88 84.999c42 24.667 82.333 37 121 37
c56 0 101 -17.333 135 -52s51 -80.667 51 -138c0 -4.66699 -0.666992 -16.334 -2 -35.001c-58.667 -9.33301 -119 -14 -181 -14h-146c2 -50 11.333 -89.667 28 -119c30 -52 79 -78 147 -78c21.333 0 40.166 3 56.499 9s40.833 18.667 73.5 38zM358.999 267.001
c-1.33301 33.333 -4.33203 59.001 -8.99902 77.001s-12.334 35.333 -23.001 52c-18 26.667 -43.667 40 -77 40c-24 0 -46 -6.33301 -66 -19s-35.333 -30 -46 -52c-11.333 -22.667 -17 -54.334 -17 -95.001c43.333 -4 85.333 -6 126 -6c22.667 0 60 1 112 3z" />
    <glyph glyph-name="f" unicode="f" horiz-adv-x="333" 
d="M341 717l0.00195312 -77l-12 -6c-21.333 18.667 -44.333 28 -69 28c-28.667 0 -47.5 -9.33301 -56.5 -28s-13.5 -57 -13.5 -115v-85l131 4l-7 -53h-124v-283c0 -32 2 -51.833 6 -59.5s14.333 -11.834 31 -12.501l46 -3v-30c-66.667 2 -108.334 3 -125.001 3
s-58.334 -1 -125.001 -3v30l46 3c16.667 0.666992 27 4.83398 31 12.501s6 27.5 6 59.5v283l-69 -4v22l69 31v42c0 64 14 112 42 144l58 66c24.667 28 54.334 42 89.001 42c11.333 0 26.666 -3.66699 45.999 -11z" />
    <glyph glyph-name="g" unicode="g" horiz-adv-x="556" 
d="M519 378h-92.001c7.33301 -19.333 11 -37.333 11 -54c0 -51.333 -22.333 -93.333 -67 -126c-45.333 -32 -91 -48 -137 -48c-2.66699 0 -10.667 0.666992 -24 2c-4 -4 -8 -7.66699 -12 -11c-22.667 -19.333 -34 -34.666 -34 -45.999c0 -26 25.333 -39 76 -39h160
c34.667 0 63 -11.333 85 -34s33 -52 33 -88c0 -60.667 -26.167 -112 -78.5 -154s-116.166 -63 -191.499 -63c-63.333 0 -115.166 14.333 -155.499 43s-60.5 65.667 -60.5 111c0 15.333 2.83301 30.833 8.5 46.5s12.167 25.5 19.5 29.5l87 47c-24 6.66699 -41 14.5 -51 23.5
s-15 20.5 -15 34.5c0 13.333 5 27.666 15 42.999l79 61c-36.667 4 -65.834 17.833 -87.501 41.5s-32.5 54.167 -32.5 91.5c0 62 28.333 109.333 85 142c43.333 25.333 88.666 38 135.999 38c46.667 0 87.334 -14 122.001 -42l142 4l4 -12zM239.999 435
c-32 0 -56.833 -10.667 -74.5 -32s-26.5 -51.333 -26.5 -90s10.333 -69.834 31 -93.501s47.667 -35.5 81 -35.5c30.667 0 55.5 10.167 74.5 30.5s28.5 46.833 28.5 79.5c0 42.667 -10.5 76.834 -31.5 102.501s-48.5 38.5 -82.5 38.5zM286.999 -14
c-62 0 -99.666 -3.33203 -112.999 -9.99902c-20 -8.66699 -36 -22.334 -48 -41.001s-18 -39.334 -18 -62.001c0 -36.667 13.667 -66.667 41 -90s62.666 -35 105.999 -35c52.667 0 96.5 14.333 131.5 43s52.5 64.334 52.5 107.001c0 32.667 -11.167 55.5 -33.5 68.5
s-61.833 19.5 -118.5 19.5z" />
    <glyph glyph-name="h" unicode="h" horiz-adv-x="582" 
d="M7 661v28.001c66 10 118 22.333 156 37l9 -8v-340l76 66c19.333 16.667 45.666 25 78.999 25c111.333 0 167 -58 167 -174v-193c0 -32 2 -51.833 6 -59.5s14.333 -11.834 31 -12.501l41 -3v-30c-46 2 -73.667 3 -83 3c-12 0 -38.333 -1 -79 -3v284
c0 38.667 -10.167 69.5 -30.5 92.5s-47.166 34.5 -80.499 34.5c-30.667 0 -59.5 -10 -86.5 -30s-40.5 -41.333 -40.5 -64v-212c0 -32 2 -51.833 6 -59.5s14.333 -11.834 31 -12.501l45 -3v-30c-68 2 -109.333 3 -124 3s-56 -1 -124 -3v30l45 3
c16.667 0.666992 27 4.83398 31 12.501s6 27.5 6 59.5v518c0 27.333 -8.33301 41 -25 41h-56z" />
    <glyph glyph-name="i" unicode="i" horiz-adv-x="291" 
d="M188 465l0.00195312 -363c0 -32 2 -51.833 6 -59.5s14.333 -11.834 31 -12.501l46 -3v-30c-66.667 2 -108.334 3 -125.001 3s-58.334 -1 -125.001 -3v30l46 3c16.667 0.666992 27 4.83398 31 12.501s6 27.5 6 59.5v225c0 33.333 -2.33301 53.833 -7 61.5
s-17 11.5 -37 11.5h-37v28c52 6 104 19.667 156 41zM142.002 687c14 0 26.667 -5.83301 38 -17.5s17 -24.5 17 -38.5c0 -14.667 -5.66699 -27.5 -17 -38.5s-24.333 -16.5 -39 -16.5s-27.5 5.5 -38.5 16.5s-16.5 23.833 -16.5 38.5c0 15.333 5.66699 28.5 17 39.5
s24.333 16.5 39 16.5z" />
    <glyph glyph-name="j" unicode="j" horiz-adv-x="234" 
d="M159 465l0.000976562 -483.999c0 -79.333 -17.667 -142.333 -53 -189c-18.667 -24.667 -38.334 -42.834 -59.001 -54.501s-45.667 -18.5 -75 -20.5l-12 38c16 -2 26 -3 30 -3c24 0 42.667 12.667 56 38c19.333 33.333 29 101 29 203v334
c0 33.333 -2.33301 53.833 -7 61.5s-17 11.5 -37 11.5h-37v28c52 6 104 19.667 156 41zM112.001 688.001c14.667 0 27.5 -5.5 38.5 -16.5s16.5 -23.833 16.5 -38.5c0 -15.333 -5.5 -28.5 -16.5 -39.5s-24.167 -16.5 -39.5 -16.5c-14 0 -26.667 5.66699 -38 17
s-17 24.333 -17 39c0 14 5.66699 26.667 17 38s24.333 17 39 17z" />
    <glyph glyph-name="k" unicode="k" horiz-adv-x="556" 
d="M23 661l0.000976562 28c66 10 118 22.333 156 37l9 -8v-457l73 59c36 28.667 86 75 150 139h100v-30c-30 0.666992 -66 -15 -108 -47l-129 -101c18.667 -22 40 -44.667 64 -68l126 -125c33.333 -32 61.666 -48 84.999 -48v-23l-96 -29l-265 252v-138
c0 -32 2 -51.833 6 -59.5s14.333 -11.834 31 -12.501l44 -3v-30c-59.333 2 -100 3 -122 3c-17.333 0 -59.333 -1 -126 -3v30l46 3c16.667 0.666992 27 4.83398 31 12.501s6 27.5 6 59.5v518c0 27.333 -8.33301 41 -25 41h-56z" />
    <glyph glyph-name="l" unicode="l" horiz-adv-x="291" 
d="M23 661l0.00195312 28c66 10 118 22.333 156 37l9 -8v-616c0 -32 2 -51.833 6 -59.5s14.333 -11.834 31 -12.501l46 -3v-30c-66.667 2 -108.334 3 -125.001 3s-58.334 -1 -125.001 -3v30l46 3c16.667 0.666992 27 4.83398 31 12.501s6 27.5 6 59.5v518
c0 27.333 -8.33301 41 -25 41h-56z" />
    <glyph glyph-name="m" unicode="m" horiz-adv-x="883" 
d="M18 400l0.00195312 28c52 6 104 19.667 156 41l9 -4v-85l69 64c18.667 16.667 46.334 25 83.001 25c34.667 0 63 -7.16699 85 -21.5s41 -38.166 57 -71.499l76 68c18.667 16.667 46 25 82 25c46 0 82.5 -14.5 109.5 -43.5s40.5 -68.167 40.5 -117.5v-206
c0 -32 2 -51.833 6 -59.5s14.333 -11.834 31 -12.501l47 -3v-30c-50.667 2 -80.334 3 -89.001 3c-12 0 -38.333 -1 -79 -3v284c0 38 -8.33301 68.667 -25 92s-38.667 35 -66 35c-30 0 -58.5 -10 -85.5 -30s-40.5 -41.333 -40.5 -64v-212c0 -32 2 -51.833 6 -59.5
s14.333 -11.834 31 -12.501l46 -3v-30c-66.667 2 -108.334 3 -125.001 3s-58.334 -1 -125.001 -3v30l46 3c16.667 0.666992 27 4.83398 31 12.501s6 27.5 6 59.5v179c0 38 -8.33301 68.667 -25 92s-38.667 35 -66 35c-30 0 -58.5 -10 -85.5 -30s-40.5 -41.333 -40.5 -64
v-212c0 -32 2 -51.833 6 -59.5s14.333 -11.834 31 -12.501l42 -3v-30c-65.333 2 -105 3 -119 3c-20.667 0 -63 -1 -127 -3v30l46 3c16.667 0.666992 27 4.83398 31 12.501s6 27.5 6 59.5v225c0 33.333 -2.33301 53.833 -7 61.5s-17 11.5 -37 11.5h-37z" />
    <glyph glyph-name="n" unicode="n" horiz-adv-x="582" 
d="M410 -3v284.001c0 38.667 -10.167 69.5 -30.5 92.5s-47.166 34.5 -80.499 34.5c-30.667 0 -59.5 -10 -86.5 -30s-40.5 -41.333 -40.5 -64v-212c0 -32 2 -51.833 6 -59.5s14.333 -11.834 31 -12.501l45 -3v-30c-68 2 -109.333 3 -124 3s-56 -1 -124 -3v30l45 3
c16.667 0.666992 27 4.83398 31 12.501s6 27.5 6 59.5v225c0 33.333 -2.33301 53.833 -7 61.5s-17 11.5 -37 11.5h-37v28c52 6 104 19.667 156 41l9 -4v-87l76 66c19.333 16.667 45.666 25 78.999 25c111.333 0 167 -58 167 -174v-193c0 -32 2 -51.833 6 -59.5
s14.333 -11.834 31 -12.501l41 -3v-30c-46 2 -73.667 3 -83 3c-12 0 -38.333 -1 -79 -3z" />
    <glyph glyph-name="o" unicode="o" horiz-adv-x="546" 
d="M279 469c68.667 0 124.999 -21.835 168.999 -65.502s66 -99.167 66 -166.5c0 -74.667 -24.667 -136.167 -74 -184.5s-112.666 -72.5 -189.999 -72.5c-64.667 0 -117.167 21.833 -157.5 65.5s-60.5 100.834 -60.5 171.501c0 74.667 22.833 135.334 68.5 182.001
s105.167 70 178.5 70zM260.999 435.998c-44 0 -77.668 -15.833 -101.001 -47.5s-35 -77.5 -35 -137.5c0 -71.333 15.167 -128.833 45.5 -172.5s69.833 -65.5 118.5 -65.5c40.667 0 72.834 16.833 96.501 50.5s35.5 79.167 35.5 136.5c0 68 -15.167 124.333 -45.5 169
s-68.5 67 -114.5 67z" />
    <glyph glyph-name="p" unicode="p" horiz-adv-x="601" 
d="M10 400l0.00195312 27.999c52 6 104 19.667 156 41l9 -4v-96l82 75c18 16.667 47.667 25 89 25c58 0 107.167 -19.167 147.5 -57.5s60.5 -85.166 60.5 -140.499c0 -32 -9.5 -68.833 -28.5 -110.5s-38.5 -69.167 -58.5 -82.5l-114 -74c-17.333 -10.667 -41 -16 -71 -16
c-43.333 0 -79 8.33301 -107 25v-189c0 -32 2 -51.833 6 -59.5s14.333 -11.834 31 -12.501l46 -3v-30c-66.667 2 -108.334 3 -125.001 3s-58.334 -1 -125.001 -3v30l46 3c16.667 0.666992 27 4.83398 31 12.501s6 27.5 6 59.5v503c0 33.333 -2.33301 53.833 -7 61.5
s-17 11.5 -37 11.5h-37zM175.002 305.999v-208c37.333 -39.333 82.333 -59 135 -59c45.333 0 82.833 18.5 112.5 55.5s44.5 83.5 44.5 139.5c0 52 -13.833 93.333 -41.5 124s-65.167 46 -112.5 46c-50.667 0 -90.667 -18.667 -120 -56c-12 -16 -18 -30 -18 -42z" />
    <glyph glyph-name="q" unicode="q" horiz-adv-x="560" 
d="M393 66l-104.002 -65.998c-12.667 -8 -29.667 -12 -51 -12c-62 0 -111.333 19.667 -148 59s-55 91.666 -55 156.999c0 88 32.333 152.667 97 194l84 54c18.667 11.333 45 17 79 17c42.667 0 88.334 -11 137.001 -33l49 31l19 -11c-15.333 -34 -23 -80 -23 -138v-494
c0 -32 2 -51.833 6 -59.5s14.333 -11.834 31 -12.501l46 -3v-30c-70.667 2 -111.667 3 -123 3c-15.333 0 -61.666 -1 -138.999 -3v30l58 3c16.667 1.33301 27 5.83301 31 13.5s6 27.167 6 58.5v242zM392.998 120.002l0.000976562 261.001
c-32.667 27.333 -72.334 41 -119.001 41c-48 0 -85.333 -15.333 -112 -46s-40 -73.334 -40 -128.001c0 -60.667 13.833 -109.667 41.5 -147s63.5 -56 107.5 -56c22.667 0 46.334 6.66699 71.001 20c13.333 7.33301 25.166 16.5 35.499 27.5s15.5 20.167 15.5 27.5z" />
    <glyph glyph-name="r" unicode="r" horiz-adv-x="395" 
d="M23 400l-0.00195312 27.999c52 6 104 19.667 156 41l9 -4v-103l56 66c22.667 27.333 50.334 41 83.001 41c20 0 35.667 -3.66699 47 -11l-9 -120h-21c-15.333 30.667 -37.666 46 -66.999 46c-24.667 0 -45.667 -10.833 -63 -32.5s-26 -47.5 -26 -77.5v-172
c0 -32.667 2.16699 -52.5 6.5 -59.5s17.833 -11.167 40.5 -12.5l52 -3v-30c-82 2 -129.667 3 -143 3c-10 0 -51 -1 -123 -3v30l46 3c16.667 0.666992 27 4.83398 31 12.501s6 27.5 6 59.5v225c0 33.333 -2.33301 53.833 -7 61.5s-17 11.5 -37 11.5h-37z" />
    <glyph glyph-name="s" unicode="s" horiz-adv-x="424" 
d="M41 143h30.0029v-41c0 -24.667 11.667 -45 35 -61s53.333 -24 90 -24c35.333 0 64.333 8.66699 87 26s34 39.333 34 66c0 36.667 -21.333 59.667 -64 69c-68 14.667 -117.333 29 -148 43c-45.333 20.667 -68 55 -68 103c0 44.667 16.667 80 50 106s79 39 137 39
c37.333 0 80.666 -8.33301 129.999 -25c-2.66699 -25.333 -4.33398 -63 -5.00098 -113h-28v23c0 23.333 -11.333 42.833 -34 58.5s-50.667 23.5 -84 23.5c-30.667 0 -54.334 -6.83301 -71.001 -20.5s-25 -32.834 -25 -57.501c0 -22.667 7.83301 -40 23.5 -52
s44.167 -22 85.5 -30c44 -8.66699 76.333 -16.667 97 -24s37.334 -17.333 50.001 -30c18.667 -19.333 28 -44 28 -74c0 -49.333 -21 -89.666 -63 -120.999s-95.667 -47 -161 -47c-42.667 0 -88.334 8 -137.001 24c7.33301 36.667 11 83 11 139z" />
    <glyph glyph-name="t" unicode="t" horiz-adv-x="326" 
d="M98 382l-75.999 -4v21l78 35v70c0 26 -1.33301 52.333 -4 79c33.333 10.667 61.666 23.334 84.999 38.001l12 -11c-7.33301 -58.667 -11 -106 -11 -142v-38l137 6l-9 -54h-128v-262c0 -24.667 4.33301 -42.334 13 -53.001s22.667 -16 42 -16
c16.667 0 36.334 6.33301 59.001 19l13 -17l-48 -53c-6.66699 -8 -24.334 -12 -53.001 -12c-38.667 0 -66.667 8.33301 -84 25s-26 43.667 -26 81v288z" />
    <glyph glyph-name="u" unicode="u" horiz-adv-x="603" 
d="M503 465l0.000976562 -362.999c0 -32 2 -51.833 6 -59.5s14.333 -11.834 31 -12.501l41 -3v-30c-46 2 -73.667 3 -83 3c-10.667 0 -38.334 -1 -83.001 -3c2.66699 42 4 72.667 4 92l-67 -62c-28 -26 -65.333 -39 -112 -39c-56 0 -95 15 -117 45c-16 22 -24 64 -24 126
v168c0 33.333 -2.33301 53.833 -7 61.5s-17 11.5 -37 11.5h-37v28c52 6 104 19.667 156 41l9 -4v-295c0 -44.667 7 -75 21 -91c16.667 -20 43 -30 79 -30c38 0 71 14 99 42c24.667 24.667 37 49 37 73v163c0 33.333 -2.33301 53.833 -7 61.5s-17 11.5 -37 11.5h-37v28
c52 6 104 19.667 156 41z" />
    <glyph glyph-name="v" unicode="v" horiz-adv-x="565" 
d="M539 431l-31.001 -2.00098c-10 -0.666992 -19 -6 -27 -16s-17.667 -27 -29 -51l-118 -260c-1.33301 0 -9.66602 -21.333 -24.999 -64c0 -0.666992 -0.833008 -3.33398 -2.5 -8.00098l-7 -19c-3 -8 -5.16699 -14 -6.5 -18h-50l-172 403
c-5.33301 12.667 -10 21.167 -14 25.5s-9.66699 6.83301 -17 7.5l-34 2v28c49.333 -2 88 -3 116 -3c12.667 0 51.667 1 117 3v-28l-49 -2c-16.667 -1.33301 -25 -7.66602 -25 -18.999s3 -24 9 -38l119 -288c28 61.333 48.667 108 62 140l42 106c12.667 32 19 56.333 19 73
s-8 25.334 -24 26.001l-41 2v28c60 -2 91.333 -3 94 -3s34 1 94 3v-28z" />
    <glyph glyph-name="w" unicode="w" horiz-adv-x="834" 
d="M413 469h22.999c7.33301 -25.333 17 -52.333 29 -81l115 -290c28.667 72.667 44.667 114 48 124l50 140c4.66699 12 7 24 7 36c0 19.333 -13 29.666 -39 30.999l-34 2v28c54.667 -2 87.334 -3 98.001 -3s43.334 1 98.001 3v-28l-26 -2
c-10.667 -1.33301 -20.167 -7.66602 -28.5 -18.999s-20.166 -34 -35.499 -68l-68 -156c-4 -6 -19.333 -48.333 -46 -127l-23 -66h-46l-136 342l-20 -42c-16.667 -35.333 -27.334 -58.666 -32.001 -69.999l-98 -230h-47l-102 336
c-12.667 39.333 -23.334 65.666 -32.001 78.999s-20 20.333 -34 21l-28 2v28c66 -2 105.667 -3 119 -3s53 1 119 3v-28l-40 -2c-25.333 -1.33301 -38 -9.33301 -38 -24c0 -8.66699 1.33301 -17 4 -25l84 -276z" />
    <glyph glyph-name="x" unicode="x" horiz-adv-x="516" 
d="M288 254l148 -200.001c10.667 -14.667 22.334 -22.667 35.001 -24l25 -3v-30c-34.667 2 -55.334 3 -62.001 3c-6 0 -26.333 -1 -61 -3c-8 6.66699 -16.333 17 -25 31l-1 2l-107 162l-74 -98c-8 -9.33301 -21 -29.666 -39 -60.999l-21 -33h-86v27h17c12 0 22 5 30 15
l149 176l-120 174c-13.333 18 -30 27.667 -50 29l-21 2l-5 26l116 20c27.333 -27.333 47.333 -50.333 60 -69l76 -116l124 175h82v-28h-14c-16.667 0 -28 -3.66699 -34 -11z" />
    <glyph glyph-name="y" unicode="y" horiz-adv-x="556" 
d="M297 86l118.997 292c4 10 6 18.667 6 26c0 14.667 -14 23 -42 25l-26 2v28c52.667 -2 84.334 -3 95.001 -3s42.334 1 95.001 3v-28l-28 -2c-12.667 -1.33301 -24.834 -10.5 -36.501 -27.5s-27.5 -48.167 -47.5 -93.5l-203 -468
c-19.333 -43.333 -40.5 -74.666 -63.5 -93.999s-51.167 -29 -84.5 -29c-17.333 0 -35.333 5 -54 15l24 75h13c17.333 -15.333 34.333 -23 51 -23c39.333 0 75.666 43.667 108.999 131l23 61c-11.333 32 -30 79.333 -56 142l-109 262
c-7.33301 17.333 -14.666 29.5 -21.999 36.5s-17.333 11.167 -30 12.5l-18 2v28c64.667 -2 103.334 -3 116.001 -3s51.334 1 116.001 3v-28l-38 -2c-22.667 -0.666992 -34 -8.33398 -34 -23.001c0 -9.33301 3.33301 -23.333 10 -42l64 -168
c14.667 -40 31.667 -76.667 51 -110z" />
    <glyph glyph-name="z" unicode="z" 
d="M455 432l-313.999 -397h135c90.667 0 138 8.33301 142 25l18 79h30l-6 -47c-6 -41.333 -9 -73 -9 -95l-276 3c-32.667 0 -83.667 -1 -153 -3l-6 20l90 105l170 212c26 32.667 47.667 62.667 65 90h-143c-36.667 0 -61.334 -1.66699 -74.001 -5s-20 -10.333 -22 -21
l-12 -68h-30c4.66699 53.333 7.66699 97.333 9 132l248 -3c22 0 68 1 138 3v-30z" />
    <glyph glyph-name="braceleft" unicode="{" horiz-adv-x="333" 
d="M206 595l-0.000976562 -186.001c0 -44 -5.66699 -75.167 -17 -93.5s-33.666 -32.5 -66.999 -42.5c34 -10.667 56.5 -25.334 67.5 -44.001s16.5 -52.334 16.5 -101.001v-173c0 -39.333 6.16699 -68.666 18.5 -87.999s33.833 -33.333 64.5 -42
c-58 0.666992 -97 9.66699 -117 27c-25.333 22.667 -38 66.334 -38 131.001v168c0 40 -4.83301 67.833 -14.5 83.5s-30.167 28.5 -61.5 38.5c29.333 10 49.333 23.333 60 40s16 43 16 79v186c0 58.667 13.667 99.334 41 122.001c20.667 16.667 58.667 25.334 114 26.001
c-31.333 -10.667 -53 -25.334 -65 -44.001s-18 -47.667 -18 -87z" />
    <glyph glyph-name="bar" unicode="|" horiz-adv-x="606" 
d="M275 0v726h56v-726h-56z" />
    <glyph glyph-name="braceright" unicode="}" horiz-adv-x="333" 
d="M199 151l-0.000976562 -168.002c0 -68 -13.667 -112.333 -41 -133c-18.667 -16 -56.667 -24.333 -114 -25c30.667 8.66699 52.167 22.667 64.5 42s18.5 48.666 18.5 87.999v173c0 48.667 5.5 82.334 16.5 101.001s33.5 33.334 67.5 44.001
c-33.333 10 -55.666 24.167 -66.999 42.5s-17 49.5 -17 93.5v186c0 39.333 -6 68.333 -18 87s-33.667 33.334 -65 44.001c55.333 -0.666992 94.333 -10 117 -28c25.333 -22.667 38 -62.667 38 -120v-186c0 -36 5.33301 -62.333 16 -79s30.667 -30 60 -40
c-31.333 -10 -51.833 -22.833 -61.5 -38.5s-14.5 -43.5 -14.5 -83.5z" />
    <glyph glyph-name="asciitilde" unicode="~" horiz-adv-x="606" 
d="M521 341l34.001 -26.998c-41.333 -75.333 -87.333 -113 -138 -113c-22 0 -65.333 13.667 -130 41c-32 13.333 -53 21.666 -63 24.999s-21 5 -33 5c-20 0 -37.667 -6.5 -53 -19.5s-33 -36.5 -53 -70.5l-34 27c24.667 43.333 47.667 74.166 69 92.499
s44.666 27.5 69.999 27.5c26 0 68.667 -13 128 -39c50 -22 82.667 -33 98 -33c38.667 0 73.667 28 105 84z" />
    <glyph glyph-name="exclamdown" unicode="&#xa1;" horiz-adv-x="278" 
d="M115 -225l-34 -0.00195312v25c0 18.667 2.33301 50.334 7 95.001c2 17.333 3.66699 33.333 5 48l24 278v25l28 23l10 -5c0 -10 0.666992 -23.333 2 -40l26 -305c2.66699 -37.333 5 -72.666 7 -105.999zM138 468.998c15.333 0 28.999 -6.00098 40.999 -18.001
s18 -25.667 18 -41s-6 -28.666 -18 -39.999s-26 -17 -42 -17c-14.667 0 -27.667 5.83301 -39 17.5s-17 25.167 -17 40.5s5.83301 28.833 17.5 40.5s24.834 17.5 39.501 17.5z" />
    <glyph glyph-name="cent" unicode="&#xa2;" 
d="M347 411l-105.997 -352.999c27.333 -14.667 55.666 -22 84.999 -22s67 9.33301 113 28l9 -11l-20 -33c-48 -22.667 -96.333 -34 -145 -34c-20.667 0 -41.334 1.66699 -62.001 5l-28 -92h-41l32 104c-36.667 19.333 -64.667 43 -84 71c-26 38.667 -39 88 -39 148
c0 95.333 34 160 102 194l80 40c18.667 9.33301 46 14 82 14l27 92h40l-27 -92c26 -0.666992 52.667 -9.33398 80 -26.001c-7.33301 -44.667 -11 -88 -11 -130h-28l-9 66c-10.667 12 -27.334 22.333 -50.001 31zM208.003 84.001l101 335c-20.667 3.33301 -33.667 5 -39 5
c-38 0 -67.5 -15.167 -88.5 -45.5s-31.5 -72.833 -31.5 -127.5c0 -33.333 4.66699 -65 14 -95c8 -26 22.667 -50 44 -72z" />
    <glyph glyph-name="sterling" unicode="&#xa3;" 
d="M374 360l-4 -47.999c-94 2.66699 -154.333 4.33398 -181 5.00098c-4.66699 -82 -36 -164.667 -94 -248c34.667 4.66699 79 7 133 7c0.666992 0 53 -2 157 -6c6.66699 -0.666992 14.334 -1 23.001 -1c9.33301 0 16 2.5 20 7.5s7 14.833 9 29.5l7 52h26v-148
c-16.667 -13.333 -33.334 -20 -50.001 -20c-60 0 -119.667 6.33301 -179 19c-50.667 12 -104.667 19.667 -162 23l-45 -45h-22v49c9.33301 9.33301 22 18.333 38 27c7.33301 3.33301 12.333 6.16602 15 8.49902s5.66699 7.16602 9 14.499c22.667 45.333 34 112 34 200v30
l-96 -3l8 45c36 -0.666992 65.333 -1.66699 88 -3v106c0 64 33 120 99 168c60.667 43.333 118.334 65 173.001 65c36 0 68.667 -8.66699 98 -26c-6.66699 -33.333 -10 -67.333 -10 -102c0 -12.667 0.333008 -24 1 -34h-33c-0.666992 28.667 -2.83398 49.667 -6.50098 63
s-10.5 24 -20.5 32c-17.333 13.333 -41 20 -71 20c-57.333 0 -98 -24.667 -122 -74c-16 -34 -24 -77.333 -24 -130v-89z" />
    <glyph glyph-name="currency" unicode="&#xa4;" 
d="M77 531l48 -48c36 27.333 77.667 41 125 41c46 0 87.667 -13.667 125 -41l48 48l47 -47l-49 -49c28 -32 42 -72.667 42 -122c0 -46.667 -14 -87.667 -42 -123l49 -49l-45 -45l-48 48c-34.667 -28 -77 -42 -127 -42s-92.333 14 -127 42l-48 -48l-45 45l49 49
c-28 35.333 -42 76.333 -42 123c0 49.333 14 90 42 122l-49 49zM253 465c-43.333 0 -80.333 -14.832 -111 -44.499s-46 -65.167 -46 -106.5c0 -42.667 15 -78.834 45 -108.501s66.333 -44.5 109 -44.5s79 14.833 109 44.5s45 65.5 45 107.5c0 40.667 -15 76.167 -45 106.5
s-65.333 45.5 -106 45.5z" />
    <glyph glyph-name="yen" unicode="&#xa5;" 
d="M334 382l122 0.00195312v-39h-139c-11.333 -25.333 -17 -47 -17 -65v-32h156v-39h-156v-87c0 -39.333 2.33301 -63.833 7 -73.5s17 -15.167 37 -16.5l41 -3v-30c-51.333 2 -94.666 3 -129.999 3c-34.667 0 -72.334 -1 -113.001 -3v30l41 3
c20 1.33301 32.333 6.83301 37 16.5s7 34.167 7 73.5v87h-156v39h156v16c0 11.333 -2 21.666 -6 30.999l-21 50h-129v39h111l-75 160c-20.667 45.333 -37.5 75 -50.5 89s-30.167 20.333 -51.5 19v29l92 21c2 0.666992 5.33301 1 10 1c12.667 0 23.167 -5.33301 31.5 -16
s17.833 -30.667 28.5 -60c1.33301 -4.66699 2.66602 -8.66699 3.99902 -12l3 -7.5c0.666992 -1.66699 1 -2.83398 1 -3.50098l104 -261l70 163c28.667 67.333 54.334 130.666 77.001 189.999h70v-15c-42.667 -59.333 -86 -135.666 -130 -228.999z" />
    <glyph glyph-name="brokenbar" unicode="&#xa6;" horiz-adv-x="606" 
d="M275 0v292h56v-292h-56zM275 726h56v-287h-56v287z" />
    <glyph glyph-name="section" unicode="&#xa7;" 
d="M403 521l-30.999 -0.00292969l-5 87c-38 32.667 -78.333 49 -121 49c-40 0 -72.833 -11.167 -98.5 -33.5s-38.5 -51.166 -38.5 -86.499c0 -30 13.667 -54 41 -72c18 -13.333 63.667 -31.666 137 -54.999c66.667 -21.333 113 -43.5 139 -66.5s39 -53.167 39 -90.5
c0 -50 -26 -97.333 -78 -142c40 -22 60 -56.667 60 -104c0 -57.333 -25.333 -109.333 -76 -156s-107.334 -70 -170.001 -70c-52 0 -104.333 14.667 -157 44c6 58 10 110.333 12 157h32l5 -90c20.667 -22 41.167 -37.333 61.5 -46s45.833 -13 76.5 -13
c46.667 0 83.834 10.833 111.501 32.5s41.5 50.834 41.5 87.501c0 33.333 -15.333 61 -46 83c-18.667 13.333 -63 31.333 -133 54c-40 12.667 -69.833 23.834 -89.5 33.501s-37.5 21.5 -53.5 35.5c-24 20.667 -36 48.667 -36 84c0 52 27.667 98.333 83 139
c-38.667 28.667 -58 63 -58 103c0 60.667 23 113.167 69 157.5s100.333 66.5 163 66.5c45.333 0 89.666 -12 132.999 -36c-6.66699 -48.667 -11 -99.334 -13 -152.001zM135.001 368.997c-28.667 -26 -43 -55 -43 -87c0 -26.667 14 -49.667 42 -69s77 -39.333 147 -60
c36.667 -11.333 64.667 -21.333 84 -30c22.667 35.333 34 65.333 34 90c0 32 -15.333 57.667 -46 77c-24 14.667 -66.667 31 -128 49c-34 10 -64 20 -90 30z" />
    <glyph glyph-name="dieresis" unicode="&#xa8;" horiz-adv-x="333" 
d="M68 637c14.667 0 26.501 -4.66699 35.501 -14s13.5 -21.333 13.5 -36c0 -15.333 -4.5 -27.5 -13.5 -36.5s-21.167 -13.5 -36.5 -13.5s-27.5 4.5 -36.5 13.5s-13.5 21.167 -13.5 36.5s4.66699 27.5 14 36.5s21.666 13.5 36.999 13.5zM267.001 637
c14.667 0 26.501 -4.66699 35.501 -14s13.5 -21.333 13.5 -36c0 -15.333 -4.66699 -27.5 -14 -36.5s-21.333 -13.5 -36 -13.5s-26.667 4.5 -36 13.5s-14 21.167 -14 36.5s4.66699 27.5 14 36.5s21.666 13.5 36.999 13.5z" />
    <glyph glyph-name="copyright" unicode="&#xa9;" horiz-adv-x="747" 
d="M527 522l0.000976562 -106.999h-26c-4 71.333 -40 107 -108 107c-44 0 -79.5 -15.833 -106.5 -47.5s-40.5 -73.167 -40.5 -124.5c0 -53.333 14.167 -97.333 42.5 -132s63.833 -52 106.5 -52c53.333 0 93.666 25.667 120.999 77l21 -9c-10 -20.667 -20 -36 -30 -46
c-34 -35.333 -79 -53 -135 -53c-56.667 0 -103.167 19.167 -139.5 57.5s-54.5 87.833 -54.5 148.5c0 61.333 19 111.166 57 149.499s87.333 57.5 148 57.5c43.333 0 91.333 -8.66699 144 -26zM377.001 706.001c97.333 0 181.5 -35.501 252.5 -106.501
s106.5 -155.833 106.5 -254.5c0 -100 -35.5 -185.5 -106.5 -256.5s-156.5 -106.5 -256.5 -106.5c-99.333 0 -184.5 35.333 -255.5 106s-106.5 155.334 -106.5 254.001c0 101.333 35.5 187.333 106.5 258s157.5 106 259.5 106zM377.001 662
c-90 0 -166.167 -30.833 -228.5 -92.5s-93.5 -137.167 -93.5 -226.5c0 -87.333 31.167 -162 93.5 -224s137.166 -93 224.499 -93s162.333 31.167 225 93.5s94 137.166 94 224.499c0 86.667 -31.167 161.334 -93.5 224.001s-136.166 94 -221.499 94z" />
    <glyph glyph-name="ordfeminine" unicode="&#xaa;" horiz-adv-x="333" 
d="M214 477l-80.9971 -51.999c-14 -2 -24.667 -3 -32 -3c-23.333 0 -42 6.33301 -56 19s-21 30 -21 52c0 26.667 10.167 47.667 30.5 63s52.166 26.666 95.499 33.999l64 10c-0.666992 27.333 -7.83398 47 -21.501 59s-35.834 18 -66.501 18
c-14 0 -23.5 -1.16699 -28.5 -3.5s-10.167 -8.16602 -15.5 -17.499l-3 -5l-3 -6l-9 -19l-17 4v39l35 20c23.333 13.333 48.666 20 75.999 20c44.667 0 75.334 -13 92.001 -39c8.66699 -12 13 -38.667 13 -80v-102c0 -19.333 1.33301 -31.5 4 -36.5s9.33398 -7.5 20.001 -7.5
h20v-18c-2.66699 0 -6 0.166992 -10 0.5s-7.33301 0.666016 -10 0.999023s-4.33398 0.5 -5.00098 0.5c-8 0.666992 -16 1 -24 1l-27 -1c-6 -0.666992 -11.667 -1 -17 -1l-6 -1zM214.003 502.001v79.001c-49.333 -6 -84 -14.833 -104 -26.5s-30 -28.834 -30 -51.501
c0 -13.333 4.83301 -24.5 14.5 -33.5s21.5 -13.5 35.5 -13.5c9.33301 0 20.5 2.66699 33.5 8s22.833 11.333 29.5 18z" />
    <glyph glyph-name="guillemotleft" unicode="&#xab;" 
d="M130 248l119 -162l-23 -15l-176 171v12l176 174l23 -13zM331 248l119 -162l-23 -15l-176 171v12l176 174l23 -13z" />
    <glyph glyph-name="logicalnot" unicode="&#xac;" horiz-adv-x="606" 
d="M495 120v210h-444v56h500v-266h-56z" />
    <glyph glyph-name="registered" unicode="&#xae;" horiz-adv-x="747" 
d="M205 554l155.999 -0.00195312c53.333 0 92.5 -7.83301 117.5 -23.5s37.5 -40.5 37.5 -74.5c0 -58 -38.333 -93.333 -115 -106c20 -2.66699 37 -12.5 51 -29.5s29 -45.5 45 -85.5c10.667 -26 20 -42.667 28 -50s20.667 -11.333 38 -12v-16h-53
c-17.333 0 -32.166 7.33301 -44.499 22s-24.833 40.334 -37.5 77.001c-11.333 32.667 -22.5 54.834 -33.5 66.501s-25.833 17.5 -44.5 17.5h-41v-129c0 -14.667 2 -24.5 6 -29.5s11.333 -7.5 22 -7.5h21v-17h-152v16h16c12.667 0 21.167 2 25.5 6s6.5 12.333 6.5 25v303
c0 20 -10.667 30 -32 30h-17v17zM308.999 359.998l27 -0.000976562c42.667 0 74 7.33301 94 22s30 37.667 30 69c0 26.667 -8.16699 47.334 -24.5 62.001s-39.5 22 -69.5 22h-29c-18.667 0 -28 -9.66699 -28 -29v-146zM376.999 705.997
c97.333 0 181.5 -35.501 252.5 -106.501s106.5 -155.833 106.5 -254.5c0 -100 -35.5 -185.5 -106.5 -256.5s-156.5 -106.5 -256.5 -106.5c-99.333 0 -184.5 35.333 -255.5 106s-106.5 155.334 -106.5 254.001c0 101.333 35.5 187.333 106.5 258s157.5 106 259.5 106z
M376.999 661.996c-90 0 -166.167 -30.833 -228.5 -92.5s-93.5 -137.167 -93.5 -226.5c0 -87.333 31.167 -162 93.5 -224s137.166 -93 224.499 -93s162.333 31.167 225 93.5s94 137.166 94 224.499c0 86.667 -31.167 161.334 -93.5 224.001s-136.166 94 -221.499 94z" />
    <glyph glyph-name="macron" unicode="&#xaf;" horiz-adv-x="333" 
d="M323 538h-312v53h312v-53z" />
    <glyph glyph-name="degree" unicode="&#xb0;" horiz-adv-x="400" 
d="M199 689c42 0 77.667 -14.8311 107 -44.498s44 -65.5 44 -107.5c0 -40 -14.833 -74.667 -44.5 -104s-64.834 -44 -105.501 -44c-41.333 0 -76.666 14.667 -105.999 44s-44 64.666 -44 105.999s14.5 76.666 43.5 105.999s64.167 44 105.5 44zM199 649.002
c-30 0 -55.666 -10.666 -76.999 -31.999s-32 -47.333 -32 -78s10.667 -56.667 32 -78s47.333 -32 78 -32c30 0 55.833 10.667 77.5 32s32.5 46.666 32.5 75.999c0 30.667 -10.833 57 -32.5 79s-47.834 33 -78.501 33z" />
    <glyph glyph-name="plusminus" unicode="&#xb1;" horiz-adv-x="606" 
d="M275 289v223h56v-223h224v-56h-224v-136h-56v136h-224v56h224zM555 0h-504v56h504v-56z" />
    <glyph glyph-name="twosuperior" unicode="&#xb2;" horiz-adv-x="300" 
d="M6 291l103.003 108.001c33.333 34.667 57 64 71 88s21 47 21 69c0 24 -7.33301 43 -22 57s-34.334 21 -59.001 21c-36.667 0 -59.334 -15.333 -68.001 -46l-9 -30h-24l11 85c28.667 28.667 64 43 106 43c38.667 0 69.334 -10.167 92.001 -30.5s34 -47.833 34 -82.5
c0 -22.667 -5.5 -44 -16.5 -64s-31.167 -45.333 -60.5 -76l-104 -108c92.667 2.66699 160.334 4.66699 203.001 6l-1 -7c-0.666992 -7.33301 -1 -15 -1 -23s0.333008 -15.667 1 -23l1 -7c-20.667 0 -41.834 0.166992 -63.501 0.5s-38.334 0.666016 -50.001 0.999023
s-20.834 0.5 -27.501 0.5c-21.333 0 -67 -0.666992 -137 -2v20z" />
    <glyph glyph-name="threesuperior" unicode="&#xb3;" horiz-adv-x="300" 
d="M22 567l18.001 78c29.333 27.333 62.666 41 99.999 41c34 0 61.5 -8.33301 82.5 -25s31.5 -38.334 31.5 -65.001c0 -32.667 -20.333 -65 -61 -97c58.667 -12 88 -42.333 88 -91c0 -37.333 -17.667 -71.166 -53 -101.499s-74.333 -45.5 -117 -45.5
c-22.667 0 -48.334 4.66699 -77.001 14l-7 2c-2.66699 24.667 -10 55.334 -22 92.001l22 8c8.66699 -23.333 17 -40.333 25 -51c18.667 -22.667 44.667 -34 78 -34c26.667 0 48.167 8.66699 64.5 26s24.5 40.666 24.5 69.999c0 26 -6.66699 46.167 -20 60.5
s-32 21.5 -56 21.5c-14.667 0 -31.667 -4.33301 -51 -13l-7 6l8 36c4 0 8.33301 -0.166992 13 -0.5s8.33398 -0.666016 11.001 -0.999023s5 -0.5 7 -0.5c20 0 37.333 7.66699 52 23s22 33.666 22 54.999c0 17.333 -6.5 32.5 -19.5 45.5s-28.833 19.5 -47.5 19.5
c-15.333 0 -30.333 -4 -45 -12s-23.667 -16.667 -27 -26l-12 -35h-25z" />
    <glyph glyph-name="acute" unicode="&#xb4;" horiz-adv-x="333" 
d="M78 506l138 138c22 22 40.333 33 55 33c8.66699 0 16 -3.33301 22 -10s9 -14.667 9 -24c0 -8.66699 -2.5 -16 -7.5 -22s-15.833 -14.333 -32.5 -25l-144 -90h-40z" />
    <glyph glyph-name="paragraph" unicode="&#xb6;" horiz-adv-x="628" 
d="M589 -120l-0.000976562 -29.999c-103.333 2 -170.666 3 -201.999 3c-32 0 -99.333 -1 -202 -3v30l42 3c22.667 1.33301 37.167 7.5 43.5 18.5s9.5 34.833 9.5 71.5v372c-66.667 4.66699 -122 23.667 -166 57c-50 38 -75 84.667 -75 140
c0 45.333 16.5 82.166 49.5 110.499s75.833 42.5 128.5 42.5c3.33301 0 23 -0.666992 59 -2c44 -2.66699 92.333 -4 145 -4s108.667 1.66699 168 5v-30l-32 -3c-26 -2.66699 -43 -9.5 -51 -20.5s-12 -33.167 -12 -66.5v-601c0 -36.667 3.16699 -60.5 9.5 -71.5
s20.833 -17.167 43.5 -18.5zM279.999 382.001v273c-4 0.666992 -9 1 -15 1c-33.333 0 -60.833 -12.333 -82.5 -37s-32.5 -55.667 -32.5 -93s11.167 -68.333 33.5 -93s54.5 -41.667 96.5 -51zM420.999 655.001h-68v-775h68v775z" />
    <glyph glyph-name="periodcentered" unicode="&#xb7;" horiz-adv-x="250" 
d="M124 319c15.333 0 28.999 -6.00098 40.999 -18.001s18 -25.667 18 -41s-6 -28.666 -18 -39.999s-26 -17 -42 -17c-14.667 0 -27.667 5.83301 -39 17.5s-17 25.167 -17 40.5s5.83301 28.833 17.5 40.5s24.834 17.5 39.501 17.5z" />
    <glyph glyph-name="cedilla" unicode="&#xb8;" horiz-adv-x="333" 
d="M141 -108l41.999 98.001h34l-25 -65c8.66699 2.66699 17.667 4 27 4c26 0 46.667 -6.33301 62 -19s23 -29.667 23 -51c0 -26 -11.167 -46.5 -33.5 -61.5s-52.5 -22.5 -90.5 -22.5c-20.667 0 -48.667 5.33301 -84 16l14 31c26.667 -7.33301 48.334 -11 65.001 -11
c36 0 54 14.333 54 43c0 11.333 -3.66699 20.666 -11 27.999s-17 11 -29 11c-9.33301 0 -23 -2.33301 -41 -7z" />
    <glyph glyph-name="onesuperior" unicode="&#xb9;" horiz-adv-x="300" 
d="M37 600l-4.99805 31c53.333 18.667 100 38 140 58l12 -4v-352c0 -14.667 2.16699 -24.167 6.5 -28.5s14.166 -6.83301 29.499 -7.5l34 -2v-24c-27.333 0.666992 -46 1 -56 1c-14.667 0.666992 -28.667 1 -42 1c-2.66699 0 -36.667 -0.666992 -102 -2v24l37 2
c15.333 0.666992 25.166 3.16699 29.499 7.5s6.5 13.833 6.5 28.5v286c0 8 -0.666992 13.333 -2 16l-78 -35h-10z" />
    <glyph glyph-name="ordmasculine" unicode="&#xba;" horiz-adv-x="333" 
d="M173 709c44 0 80 -13.333 108 -40s42 -60.667 42 -102c0 -42 -16 -77.667 -48 -107s-71.333 -44 -118 -44c-44 0 -79.5 13 -106.5 39s-40.5 60.333 -40.5 103c0 44.667 15 81 45 109s69.333 42 118 42zM159 689c-28.667 0 -50.666 -9.49902 -65.999 -28.499
s-23 -46.167 -23 -81.5c0 -42 9.5 -76.333 28.5 -103s43.833 -40 74.5 -40c27.333 0 49.166 10.5 65.499 31.5s24.5 48.833 24.5 83.5c0 39.333 -10 72.166 -30 98.499s-44.667 39.5 -74 39.5z" />
    <glyph glyph-name="guillemotright" unicode="&#xbb;" 
d="M251 86l119 162l-119 167l23 13l176 -174v-12l-176 -171zM50 86l119 162l-119 167l23 13l176 -174v-12l-176 -171z" />
    <glyph glyph-name="onequarter" unicode="&#xbc;" horiz-adv-x="750" 
d="M595 107l-173 -0.000976562l-5 15c8 16 17 32.667 27 50l158 228l49 16l9 -3c-3.33301 -60 -5 -121 -5 -183v-77h17h2c10 -1.33301 27.667 -0.666016 53 2.00098v-51c-18 2 -41.333 3 -70 3v-36c0 -32.667 14.667 -49 44 -49h21v-25c-44 2 -77.333 3 -100 3
c-17.333 0 -53 -1 -107 -3v25h21c22 0 37.333 3.5 46 10.5s13 19.833 13 38.5v36zM595 152.999v192l-129 -192h129zM208 -0.000976562h-52l451 689h52zM50 298.999h36.0029c18 0 29.667 5 35 15s8 31.667 8 65v238c0 12 -1.66699 18.333 -5 19h-3l-80 -34h-7l-4 32l161 58
l10 -3c-5.33301 -80 -8 -148 -8 -204v-106c0 -34 2.5 -55.833 7.5 -65.5s16.5 -14.5 34.5 -14.5h33v-26c-8 0 -17.5 0.166992 -28.5 0.5s-19.667 0.666016 -26 0.999023s-10.833 0.5 -13.5 0.5c-14.667 0.666992 -29.334 1 -44.001 1c-15.333 0 -30.333 -0.333008 -45 -1
c-2.66699 0 -6.83398 -0.166992 -12.501 -0.5s-13.334 -0.666016 -23.001 -0.999023s-18.167 -0.5 -25.5 -0.5v26z" />
    <glyph glyph-name="onehalf" unicode="&#xbd;" horiz-adv-x="750" 
d="M174 0h-52l451 689h52zM35 299h36.0029c18 0 29.667 5 35 15s8 31.667 8 65v238c0 12 -1.66699 18.333 -5 19h-3l-80 -34h-7l-4 32l161 58l10 -3c-5.33301 -80 -8 -148 -8 -204v-106c0 -34 2.5 -55.833 7.5 -65.5s16.5 -14.5 34.5 -14.5h33v-26
c-8 0 -17.5 0.166992 -28.5 0.5s-19.667 0.666016 -26 0.999023s-10.833 0.5 -13.5 0.5c-14.667 0.666992 -29.334 1 -44.001 1c-15.333 0 -30.333 -0.333008 -45 -1c-2.66699 0 -6.83398 -0.166992 -12.501 -0.5s-13.334 -0.666016 -23.001 -0.999023
s-18.167 -0.5 -25.5 -0.5v26zM449.003 282l12 89c30 28 67 42 111 42c41.333 0 74.666 -10.333 99.999 -31s38 -47.667 38 -81c0 -44 -25.333 -90.333 -76 -139l-115 -109h122c34 0 65.333 1.66699 94 5c-1.33301 -10.667 -2 -21.667 -2 -33c0 -10.667 0.666992 -20 2 -28
c-95.333 2 -147.666 3 -156.999 3c-15.333 0 -63.333 -1 -144 -3v20l108 104c36.667 35.333 62.5 65 77.5 89s22.5 47.667 22.5 71c0 26.667 -7.33301 47.167 -22 61.5s-35.667 21.5 -63 21.5c-35.333 0 -59 -15.667 -71 -47l-13 -35h-24z" />
    <glyph glyph-name="threequarters" unicode="&#xbe;" horiz-adv-x="750" 
d="M41 578l19 71c28.667 26.667 63.334 40 104.001 40c36.667 0 66 -8.16699 88 -24.5s33 -37.833 33 -64.5c0 -17.333 -5.5 -33.5 -16.5 -48.5s-29.5 -31.833 -55.5 -50.5c35.333 -5.33301 60.833 -15.166 76.5 -29.499s23.5 -34.833 23.5 -61.5
c0 -38.667 -17.5 -72.334 -52.5 -101.001s-76.167 -43 -123.5 -43c-26 0 -58 5.33301 -96 16c-1.33301 12.667 -7 34.334 -17 65.001c-3.33301 10 -6.33301 19.667 -9 29l31 8c10.667 -30.667 24.167 -52.667 40.5 -66s38.166 -20 65.499 -20c28.667 0 51.667 8.5 69 25.5
s26 39.5 26 67.5c0 53.333 -28.333 80 -85 80c-18 0 -34.333 -4.33301 -49 -13l-10 4l10 43c10.667 0 16.667 -0.333008 18 -1h14c21.333 0 40 7.66699 56 23s24 33 24 53c0 17.333 -7.16699 32.166 -21.5 44.499s-31.833 18.5 -52.5 18.5
c-21.333 0 -39.5 -5.83301 -54.5 -17.5s-25.167 -27.5 -30.5 -47.5h-25zM217 0h-52l451 689h52zM603 107l-173 -0.000976562l-5 15c8 16 17 32.667 27 50l158 228l49 16l9 -3c-3.33301 -60 -5 -121 -5 -183v-77h17h2c10 -1.33301 27.667 -0.666016 53 2.00098v-51
c-18 2 -41.333 3 -70 3v-36c0 -32.667 14.667 -49 44 -49h21v-25c-44 2 -77.333 3 -100 3c-17.333 0 -53 -1 -107 -3v25h21c22 0 37.333 3.5 46 10.5s13 19.833 13 38.5v36zM603 152.999v192l-129 -192h129z" />
    <glyph glyph-name="questiondown" unicode="&#xbf;" horiz-adv-x="444" 
d="M395 -83l-38.001 -112.999c-47.333 -23.333 -91.666 -35 -132.999 -35c-51.333 0 -94.333 14.833 -129 44.5s-52 66.167 -52 109.5c0 28.667 7.66699 55 23 79s44.333 55.333 87 94c40 36 65.667 61.5 77 76.5s17 30.833 17 47.5c0 14 -7.33301 30 -22 48l21 14
c29.333 -18.667 44 -43 44 -73c0 -16.667 -5.33301 -33.834 -16 -51.501s-31 -43.167 -61 -76.5c-29.333 -32.667 -49.5 -58.667 -60.5 -78s-16.5 -39 -16.5 -59c0 -32 11.5 -58.167 34.5 -78.5s52.5 -30.5 88.5 -30.5c46.667 0 75.667 14 87 42l20 48zM240.999 469.001
c15.333 0 28.999 -6.00098 40.999 -18.001s18 -25.667 18 -41s-6 -28.666 -18 -39.999s-26 -17 -42 -17c-14.667 0 -27.667 5.83301 -39 17.5s-17 25.167 -17 40.5s5.83301 28.833 17.5 40.5s24.834 17.5 39.501 17.5z" />
    <glyph glyph-name="Agrave" unicode="&#xc0;" horiz-adv-x="778" 
d="M408 700l241.999 -568.001c18 -41.333 31.333 -68.166 40 -80.499s19.334 -19.5 32.001 -21.5l34 -3v-30c-72 2 -114.333 3 -127 3c-10.667 0 -57 -1 -139 -3v30l47 3c27.333 2 41 8.66699 41 20c0 8 -7 29.333 -21 64l-46 115h-288l-28 -67
c-23.333 -55.333 -35 -90.666 -35 -105.999c0 -14.667 16 -23.334 48 -26.001l37 -3v-30c-72 2 -112.333 3 -121 3c-10.667 0 -47 -1 -109 -3v30l37 3c23.333 2 41.333 18.333 54 49l178 405l53 121l39 95h32zM239.999 268.999h253l-126 298zM429.999 736.999l-144 90
c-16.667 10.667 -27.5 19 -32.5 25s-7.5 13.333 -7.5 22c0 9.33301 3 17.333 9 24s13.333 10 22 10c14.667 0 33 -11 55 -33l138 -138h-40z" />
    <glyph glyph-name="Aacute" unicode="&#xc1;" horiz-adv-x="778" 
d="M408 700l241.999 -568.001c18 -41.333 31.333 -68.166 40 -80.499s19.334 -19.5 32.001 -21.5l34 -3v-30c-72 2 -114.333 3 -127 3c-10.667 0 -57 -1 -139 -3v30l47 3c27.333 2 41 8.66699 41 20c0 8 -7 29.333 -21 64l-46 115h-288l-28 -67
c-23.333 -55.333 -35 -90.666 -35 -105.999c0 -14.667 16 -23.334 48 -26.001l37 -3v-30c-72 2 -112.333 3 -121 3c-10.667 0 -47 -1 -109 -3v30l37 3c23.333 2 41.333 18.333 54 49l178 405l53 121l39 95h32zM239.999 268.999h253l-126 298zM306.999 736.999l138 138
c22 22 40.333 33 55 33c8.66699 0 16 -3.33301 22 -10s9 -14.667 9 -24c0 -8.66699 -2.5 -16 -7.5 -22s-15.833 -14.333 -32.5 -25l-144 -90h-40z" />
    <glyph glyph-name="Acircumflex" unicode="&#xc2;" horiz-adv-x="778" 
d="M408 700l241.999 -568.001c18 -41.333 31.333 -68.166 40 -80.499s19.334 -19.5 32.001 -21.5l34 -3v-30c-72 2 -114.333 3 -127 3c-10.667 0 -57 -1 -139 -3v30l47 3c27.333 2 41 8.66699 41 20c0 8 -7 29.333 -21 64l-46 115h-288l-28 -67
c-23.333 -55.333 -35 -90.666 -35 -105.999c0 -14.667 16 -23.334 48 -26.001l37 -3v-30c-72 2 -112.333 3 -121 3c-10.667 0 -47 -1 -109 -3v30l37 3c23.333 2 41.333 18.333 54 49l178 405l53 121l39 95h32zM239.999 268.999h253l-126 298zM358.999 907.999h62l125 -167
h-35l-121 103l-121 -103h-35z" />
    <glyph glyph-name="Atilde" unicode="&#xc3;" horiz-adv-x="778" 
d="M408 700l241.999 -568.001c18 -41.333 31.333 -68.166 40 -80.499s19.334 -19.5 32.001 -21.5l34 -3v-30c-72 2 -114.333 3 -127 3c-10.667 0 -57 -1 -139 -3v30l47 3c27.333 2 41 8.66699 41 20c0 8 -7 29.333 -21 64l-46 115h-288l-28 -67
c-23.333 -55.333 -35 -90.666 -35 -105.999c0 -14.667 16 -23.334 48 -26.001l37 -3v-30c-72 2 -112.333 3 -121 3c-10.667 0 -47 -1 -109 -3v30l37 3c23.333 2 41.333 18.333 54 49l178 405l53 121l39 95h32zM239.999 268.999h253l-126 298zM525.999 870.999
l29 -0.000976562c-2 -29.333 -13.5 -54.166 -34.5 -74.499s-45.833 -30.5 -74.5 -30.5c-18 0 -40.667 6.33301 -68 19c-34 17.333 -57.667 26 -71 26c-22.667 0 -40.334 -15 -53.001 -45h-29c14.667 66.667 50 100 106 100c18.667 0 48.334 -10 89.001 -30
c22 -10 37.667 -15 47 -15c26 0 45.667 16.667 59 50z" />
    <glyph glyph-name="Adieresis" unicode="&#xc4;" horiz-adv-x="778" 
d="M408 700l241.999 -568.001c18 -41.333 31.333 -68.166 40 -80.499s19.334 -19.5 32.001 -21.5l34 -3v-30c-72 2 -114.333 3 -127 3c-10.667 0 -57 -1 -139 -3v30l47 3c27.333 2 41 8.66699 41 20c0 8 -7 29.333 -21 64l-46 115h-288l-28 -67
c-23.333 -55.333 -35 -90.666 -35 -105.999c0 -14.667 16 -23.334 48 -26.001l37 -3v-30c-72 2 -112.333 3 -121 3c-10.667 0 -47 -1 -109 -3v30l37 3c23.333 2 41.333 18.333 54 49l178 405l53 121l39 95h32zM239.999 268.999h253l-126 298zM290.999 867.999
c14.667 0 26.501 -4.66699 35.501 -14s13.5 -21.333 13.5 -36s-4.66699 -26.667 -14 -36s-21.333 -14 -36 -14s-26.667 4.66699 -36 14s-14 21.333 -14 36c0 15.333 4.66699 27.5 14 36.5s21.666 13.5 36.999 13.5zM490 867.999c14.667 0 26.501 -4.66699 35.501 -14
s13.5 -21.333 13.5 -36s-4.5 -26.667 -13.5 -36s-21.167 -14 -36.5 -14s-27.5 4.66699 -36.5 14s-13.5 21.333 -13.5 36c0 15.333 4.66699 27.5 14 36.5s21.666 13.5 36.999 13.5z" />
    <glyph glyph-name="Aring" unicode="&#xc5;" horiz-adv-x="778" 
d="M408 700l241.999 -568.001c18 -41.333 31.333 -68.166 40 -80.499s19.334 -19.5 32.001 -21.5l34 -3v-30c-72 2 -114.333 3 -127 3c-10.667 0 -57 -1 -139 -3v30l47 3c27.333 2 41 8.66699 41 20c0 8 -7 29.333 -21 64l-46 115h-288l-28 -67
c-23.333 -55.333 -35 -90.666 -35 -105.999c0 -14.667 16 -23.334 48 -26.001l37 -3v-30c-72 2 -112.333 3 -121 3c-10.667 0 -47 -1 -109 -3v30l37 3c23.333 2 41.333 18.333 54 49l178 405l53 121l39 95h32zM239.999 268.999h253l-126 298zM391.999 942.999
c26.667 0 49.666 -9.83203 68.999 -29.499s29 -43.167 29 -70.5c0 -28 -9.83301 -51.667 -29.5 -71s-43.167 -29 -70.5 -29c-28 0 -51.667 9.66699 -71 29s-29 43.333 -29 72c0 27.333 9.83301 50.666 29.5 69.999s43.834 29 72.501 29zM390.998 907
c-19.333 0 -34.667 -5.83203 -46 -17.499s-17 -26.834 -17 -45.501c0 -20 5.5 -35.833 16.5 -47.5s26.167 -17.5 45.5 -17.5c18.667 0 33.667 5.83301 45 17.5s17 27.167 17 46.5c0 18.667 -5.66699 34 -17 46s-26 18 -44 18z" />
    <glyph glyph-name="AE" unicode="&#xc6;" horiz-adv-x="944" 
d="M-10 27l33.998 5.00293c14 2 31.333 20.333 52 55l289 512c12.667 22 19 37.667 19 47c0 6 -18 10.333 -54 13l-44 3v30l257 -3c22.667 0 84.667 1 186 3h40c32 0 73 -1 123 -3c-10.667 -42.667 -16 -93.334 -16 -152.001h-35v65c0 12 -1.5 20 -4.5 24
s-10.5 7.33301 -22.5 10c-33.333 9.33301 -81.666 14 -144.999 14c-54.667 0 -93.667 -2.66699 -117 -8v-267c34 -2 70.667 -3 110 -3c58 0 95.333 3.66699 112 11c4.66699 8.66699 7.33398 17.334 8.00098 26.001l5 52h30c-2 -66.667 -3 -105.334 -3 -116.001
c0 -12 1 -49 3 -111h-30l-5 59l-8 25c-16 8 -55.667 12 -119 12c-40.667 0 -75 -1 -103 -3v-280c26 -5.33301 59 -8 99 -8c98.667 0 160 4 184 12c15.333 5.33301 26.333 31.666 33 78.999c1.33301 4 3 15.333 5 34h35c-10.667 -55.333 -16 -110 -16 -164
c-91.333 -2 -147.333 -3 -168 -3c-4 0 -10.833 0.166992 -20.5 0.5s-23.667 0.666016 -42 0.999023s-34.833 0.5 -49.5 0.5l-135 1l-69 -3v23l28 16c17.333 10 26 38 26 84v122c-79.333 2 -120.333 3 -123 3c-10.667 0 -51 -1 -121 -3l-64 -114c-18.667 -34 -28 -57 -28 -69
c0 -16 17.667 -25.667 53 -29l36 -3v-30c-51.333 2 -84 3 -98 3c-8.66699 0 -51 -1 -127 -3v30zM449.998 655.003l-208 -372h220v372h-12z" />
    <glyph glyph-name="Ccedilla" unicode="&#xc7;" horiz-adv-x="709" 
d="M401 -20l-21.002 -54.9971c8.66699 2.66699 17.667 4 27 4c26 0 46.667 -6.33301 62 -19s23 -29.667 23 -51c0 -26 -11.167 -46.5 -33.5 -61.5s-52.5 -22.5 -90.5 -22.5c-20.667 0 -48.667 5.33301 -84 16l14 31c26.667 -7.33301 48.334 -11 65.001 -11
c36 0 54 14.333 54 43c0 11.333 -3.66699 20.666 -11 27.999s-17 11 -29 11c-9.33301 0 -23 -2.33301 -41 -7l-7 6l39 90c-108.667 12 -193.5 49.667 -254.5 113s-91.5 145.666 -91.5 246.999c0 136.667 58 239 174 307c68.667 40 147.667 60 237 60
c71.333 0 148.333 -13.667 231 -41c-12 -55.333 -18.333 -106 -19 -152h-31v72c0 19.333 -20.833 37.333 -62.5 54s-87.167 25 -136.5 25c-86 0 -155.167 -28 -207.5 -84s-78.5 -130 -78.5 -222c0 -98.667 29.833 -177.834 89.5 -237.501s138.167 -89.5 235.5 -89.5
c76 0 145 20 207 60l9 -10l-28 -50c-69.333 -36 -144.666 -54 -225.999 -54h-15z" />
    <glyph glyph-name="Egrave" unicode="&#xc8;" horiz-adv-x="611" 
d="M22 662l0.00195312 30.0029c99.333 -2 158.666 -3 177.999 -3c4.66699 0 49 0.666992 133 2c27.333 0.666992 60.333 1 99 1c33.333 0 74.666 -1 123.999 -3c-10.667 -42.667 -16 -93.334 -16 -152.001h-35v65c0 12 -1.5 20 -4.5 24s-10.5 7.33301 -22.5 10
c-33.333 9.33301 -81.666 14 -144.999 14c-54.667 0 -93.667 -2.66699 -117 -8v-267c34 -2 70.667 -3 110 -3c58 0 95.333 3.66699 112 11c4.66699 8.66699 7.33398 17.334 8.00098 26.001l5 52h30c-2 -66.667 -3 -105.334 -3 -116.001c0 -12 1 -49 3 -111h-30l-5 59l-8 25
c-16 8 -55.667 12 -119 12c-40.667 0 -75 -1 -103 -3v-280c26 -5.33301 59 -8 99 -8c98.667 0 160 4 184 12c15.333 5.33301 26.333 31.666 33 78.999c1.33301 4 3 15.333 5 34h35c-10.667 -55.333 -16 -110 -16 -164c-90.667 -2 -146.334 -3 -167.001 -3
c-14.667 0 -68.334 0.666992 -161.001 2c-25.333 0.666992 -49 1 -71 1c-16 0 -57 -1 -123 -3v30l36 3c23.333 2 37.666 7.66699 42.999 17s8 33.666 8 72.999v449c0 39.333 -2.66699 63.833 -8 73.5s-19.666 15.167 -42.999 16.5zM346.002 737.003l-144 90
c-16.667 10.667 -27.5 19 -32.5 25s-7.5 13.333 -7.5 22c0 9.33301 3 17.333 9 24s13.333 10 22 10c14.667 0 33 -11 55 -33l138 -138h-40z" />
    <glyph glyph-name="Eacute" unicode="&#xc9;" horiz-adv-x="611" 
d="M22 662l0.00195312 30.0029c99.333 -2 158.666 -3 177.999 -3c4.66699 0 49 0.666992 133 2c27.333 0.666992 60.333 1 99 1c33.333 0 74.666 -1 123.999 -3c-10.667 -42.667 -16 -93.334 -16 -152.001h-35v65c0 12 -1.5 20 -4.5 24s-10.5 7.33301 -22.5 10
c-33.333 9.33301 -81.666 14 -144.999 14c-54.667 0 -93.667 -2.66699 -117 -8v-267c34 -2 70.667 -3 110 -3c58 0 95.333 3.66699 112 11c4.66699 8.66699 7.33398 17.334 8.00098 26.001l5 52h30c-2 -66.667 -3 -105.334 -3 -116.001c0 -12 1 -49 3 -111h-30l-5 59l-8 25
c-16 8 -55.667 12 -119 12c-40.667 0 -75 -1 -103 -3v-280c26 -5.33301 59 -8 99 -8c98.667 0 160 4 184 12c15.333 5.33301 26.333 31.666 33 78.999c1.33301 4 3 15.333 5 34h35c-10.667 -55.333 -16 -110 -16 -164c-90.667 -2 -146.334 -3 -167.001 -3
c-14.667 0 -68.334 0.666992 -161.001 2c-25.333 0.666992 -49 1 -71 1c-16 0 -57 -1 -123 -3v30l36 3c23.333 2 37.666 7.66699 42.999 17s8 33.666 8 72.999v449c0 39.333 -2.66699 63.833 -8 73.5s-19.666 15.167 -42.999 16.5zM224.002 737.003l138 138
c22 22 40.333 33 55 33c8.66699 0 16 -3.33301 22 -10s9 -14.667 9 -24c0 -8.66699 -2.5 -16 -7.5 -22s-15.833 -14.333 -32.5 -25l-144 -90h-40z" />
    <glyph glyph-name="Ecircumflex" unicode="&#xca;" horiz-adv-x="611" 
d="M22 662l0.00195312 30.0029c99.333 -2 158.666 -3 177.999 -3c4.66699 0 49 0.666992 133 2c27.333 0.666992 60.333 1 99 1c33.333 0 74.666 -1 123.999 -3c-10.667 -42.667 -16 -93.334 -16 -152.001h-35v65c0 12 -1.5 20 -4.5 24s-10.5 7.33301 -22.5 10
c-33.333 9.33301 -81.666 14 -144.999 14c-54.667 0 -93.667 -2.66699 -117 -8v-267c34 -2 70.667 -3 110 -3c58 0 95.333 3.66699 112 11c4.66699 8.66699 7.33398 17.334 8.00098 26.001l5 52h30c-2 -66.667 -3 -105.334 -3 -116.001c0 -12 1 -49 3 -111h-30l-5 59l-8 25
c-16 8 -55.667 12 -119 12c-40.667 0 -75 -1 -103 -3v-280c26 -5.33301 59 -8 99 -8c98.667 0 160 4 184 12c15.333 5.33301 26.333 31.666 33 78.999c1.33301 4 3 15.333 5 34h35c-10.667 -55.333 -16 -110 -16 -164c-90.667 -2 -146.334 -3 -167.001 -3
c-14.667 0 -68.334 0.666992 -161.001 2c-25.333 0.666992 -49 1 -71 1c-16 0 -57 -1 -123 -3v30l36 3c23.333 2 37.666 7.66699 42.999 17s8 33.666 8 72.999v449c0 39.333 -2.66699 63.833 -8 73.5s-19.666 15.167 -42.999 16.5zM276.002 908.003h62l125 -167h-35
l-121 103l-121 -103h-35z" />
    <glyph glyph-name="Edieresis" unicode="&#xcb;" horiz-adv-x="611" 
d="M22 662l0.00195312 30.0029c99.333 -2 158.666 -3 177.999 -3c4.66699 0 49 0.666992 133 2c27.333 0.666992 60.333 1 99 1c33.333 0 74.666 -1 123.999 -3c-10.667 -42.667 -16 -93.334 -16 -152.001h-35v65c0 12 -1.5 20 -4.5 24s-10.5 7.33301 -22.5 10
c-33.333 9.33301 -81.666 14 -144.999 14c-54.667 0 -93.667 -2.66699 -117 -8v-267c34 -2 70.667 -3 110 -3c58 0 95.333 3.66699 112 11c4.66699 8.66699 7.33398 17.334 8.00098 26.001l5 52h30c-2 -66.667 -3 -105.334 -3 -116.001c0 -12 1 -49 3 -111h-30l-5 59l-8 25
c-16 8 -55.667 12 -119 12c-40.667 0 -75 -1 -103 -3v-280c26 -5.33301 59 -8 99 -8c98.667 0 160 4 184 12c15.333 5.33301 26.333 31.666 33 78.999c1.33301 4 3 15.333 5 34h35c-10.667 -55.333 -16 -110 -16 -164c-90.667 -2 -146.334 -3 -167.001 -3
c-14.667 0 -68.334 0.666992 -161.001 2c-25.333 0.666992 -49 1 -71 1c-16 0 -57 -1 -123 -3v30l36 3c23.333 2 37.666 7.66699 42.999 17s8 33.666 8 72.999v449c0 39.333 -2.66699 63.833 -8 73.5s-19.666 15.167 -42.999 16.5zM207.002 868.003
c14.667 0 26.501 -4.66699 35.501 -14s13.5 -21.333 13.5 -36s-4.66699 -26.667 -14 -36s-21.333 -14 -36 -14s-26.667 4.66699 -36 14s-14 21.333 -14 36c0 15.333 4.66699 27.5 14 36.5s21.666 13.5 36.999 13.5zM406.003 868.003c14.667 0 26.501 -4.66699 35.501 -14
s13.5 -21.333 13.5 -36s-4.5 -26.667 -13.5 -36s-21.167 -14 -36.5 -14s-27.5 4.66699 -36.5 14s-13.5 21.333 -13.5 36c0 15.333 4.66699 27.5 14 36.5s21.666 13.5 36.999 13.5z" />
    <glyph glyph-name="Igrave" unicode="&#xcc;" horiz-adv-x="337" 
d="M216 569l0.000976562 -449c0 -39.333 2.66699 -63.833 8 -73.5s19.666 -15.167 42.999 -16.5l48 -3v-30c-59.333 2 -108.333 3 -147 3s-87.334 -1 -146.001 -3v30l48 3c23.333 1.33301 37.666 6.83301 42.999 16.5s8 34.167 8 73.5v449c0 39.333 -2.66699 63.833 -8 73.5
s-19.666 15.167 -42.999 16.5l-48 3v30c72 -2 120.667 -3 146 -3c49.333 0 98.333 1 147 3v-30l-48 -3c-23.333 -1.33301 -37.666 -6.83301 -42.999 -16.5s-8 -34.167 -8 -73.5zM209.001 737l-144 90c-16.667 10.667 -27.5 19 -32.5 25s-7.5 13.333 -7.5 22
c0 9.33301 3 17.333 9 24s13.333 10 22 10c14.667 0 33 -11 55 -33l138 -138h-40z" />
    <glyph glyph-name="Iacute" unicode="&#xcd;" horiz-adv-x="337" 
d="M216 569l0.000976562 -449c0 -39.333 2.66699 -63.833 8 -73.5s19.666 -15.167 42.999 -16.5l48 -3v-30c-59.333 2 -108.333 3 -147 3s-87.334 -1 -146.001 -3v30l48 3c23.333 1.33301 37.666 6.83301 42.999 16.5s8 34.167 8 73.5v449c0 39.333 -2.66699 63.833 -8 73.5
s-19.666 15.167 -42.999 16.5l-48 3v30c72 -2 120.667 -3 146 -3c49.333 0 98.333 1 147 3v-30l-48 -3c-23.333 -1.33301 -37.666 -6.83301 -42.999 -16.5s-8 -34.167 -8 -73.5zM80.001 737l138 138c22 22 40.333 33 55 33c8.66699 0 16 -3.33301 22 -10s9 -14.667 9 -24
c0 -8.66699 -2.5 -16 -7.5 -22s-15.833 -14.333 -32.5 -25l-144 -90h-40z" />
    <glyph glyph-name="Icircumflex" unicode="&#xce;" horiz-adv-x="337" 
d="M216 569l0.000976562 -449c0 -39.333 2.66699 -63.833 8 -73.5s19.666 -15.167 42.999 -16.5l48 -3v-30c-59.333 2 -108.333 3 -147 3s-87.334 -1 -146.001 -3v30l48 3c23.333 1.33301 37.666 6.83301 42.999 16.5s8 34.167 8 73.5v449c0 39.333 -2.66699 63.833 -8 73.5
s-19.666 15.167 -42.999 16.5l-48 3v30c72 -2 120.667 -3 146 -3c49.333 0 98.333 1 147 3v-30l-48 -3c-23.333 -1.33301 -37.666 -6.83301 -42.999 -16.5s-8 -34.167 -8 -73.5zM138.001 908h62l125 -167h-35l-121 103l-121 -103h-35z" />
    <glyph glyph-name="Idieresis" unicode="&#xcf;" horiz-adv-x="337" 
d="M216 569l0.000976562 -449c0 -39.333 2.66699 -63.833 8 -73.5s19.666 -15.167 42.999 -16.5l48 -3v-30c-59.333 2 -108.333 3 -147 3s-87.334 -1 -146.001 -3v30l48 3c23.333 1.33301 37.666 6.83301 42.999 16.5s8 34.167 8 73.5v449c0 39.333 -2.66699 63.833 -8 73.5
s-19.666 15.167 -42.999 16.5l-48 3v30c72 -2 120.667 -3 146 -3c49.333 0 98.333 1 147 3v-30l-48 -3c-23.333 -1.33301 -37.666 -6.83301 -42.999 -16.5s-8 -34.167 -8 -73.5zM70.001 868c14.667 0 26.501 -4.66699 35.501 -14s13.5 -21.333 13.5 -36
s-4.5 -26.667 -13.5 -36s-21.167 -14 -36.5 -14s-27.5 4.66699 -36.5 14s-13.5 21.333 -13.5 36c0 15.333 4.66699 27.5 14 36.5s21.666 13.5 36.999 13.5zM269.002 868c14.667 0 26.501 -4.66699 35.501 -14s13.5 -21.333 13.5 -36s-4.66699 -26.667 -14 -36
s-21.333 -14 -36 -14s-26.667 4.66699 -36 14s-14 21.333 -14 36c0 15.333 4.66699 27.5 14 36.5s21.666 13.5 36.999 13.5z" />
    <glyph glyph-name="Eth" unicode="&#xd0;" horiz-adv-x="774" 
d="M57 20l30.998 16c16.667 8 25 27.667 25 59v251h-99v36h99v187c0 39.333 -2.83301 63.833 -8.5 73.5s-19.834 15.167 -42.501 16.5l-40 3v30c112.667 -2 180 -3 202 -3c46.667 0 102.334 1 167.001 3h13c104 0 187.833 -27.833 251.5 -83.5s95.5 -129.167 95.5 -220.5
c0 -64.667 -14.167 -126.667 -42.5 -186s-65.833 -105 -112.5 -137c-65.333 -45.333 -147.333 -68 -246 -68c-6.66699 0 -27.667 0.333008 -63 1c-45.333 1.33301 -76.666 2 -93.999 2c-13.333 0 -58.666 -1 -135.999 -3v23zM207.998 644v-261.998h184v-36h-184v-297
c23.333 -5.33301 57.333 -8 102 -8c58.667 0 104.667 4.66699 138 14s65 26.666 95 51.999c67.333 57.333 101 142.333 101 255c0 111.333 -31.667 190.666 -95 237.999c-48 34.667 -124.667 52 -230 52c-46 0 -83 -2.66699 -111 -8z" />
    <glyph glyph-name="Ntilde" unicode="&#xd1;" horiz-adv-x="831" 
d="M137 689l54.001 3l481 -594v471c0 39.333 -2.83301 63.833 -8.5 73.5s-19.834 15.167 -42.501 16.5l-44 3v30c66 -2 104.667 -3 116 -3c10 0 50 1 120 3v-30l-44 -3c-22.667 -1.33301 -36.834 -6.83301 -42.501 -16.5s-8.5 -34.167 -8.5 -73.5v-552
c0 -2 0.666992 -10.333 2 -25c0.666992 -4.66699 1 -8.66699 1 -12l-90 16l-473 587v-463c0 -39.333 2.83301 -63.833 8.5 -73.5s19.834 -15.167 42.501 -16.5l44 -3v-30c-70 2 -110 3 -120 3c-11.333 0 -50 -1 -116 -3v30l44 3c22.667 1.33301 36.834 6.83301 42.501 16.5
s8.5 34.167 8.5 73.5v449c0 39.333 -2.83301 63.833 -8.5 73.5s-19.834 15.167 -42.501 16.5l-44 3v30c30.667 -1.33301 70.667 -2.33301 120 -3zM553.001 871l29 -0.000976562c-2 -29.333 -13.5 -54.166 -34.5 -74.499s-45.833 -30.5 -74.5 -30.5
c-18 0 -40.667 6.33301 -68 19c-34 17.333 -57.667 26 -71 26c-22.667 0 -40.334 -15 -53.001 -45h-29c14.667 66.667 50 100 106 100c18.667 0 48.334 -10 89.001 -30c22 -10 37.667 -15 47 -15c26 0 45.667 16.667 59 50z" />
    <glyph glyph-name="Ograve" unicode="&#xd2;" horiz-adv-x="786" 
d="M402 709c111.333 0 199.499 -30.832 264.499 -92.499s97.5 -144.834 97.5 -249.501c0 -110 -37.667 -202 -113 -276s-169 -111 -281 -111c-101.333 0 -184.666 34 -249.999 102s-98 154.333 -98 259c0 110 34.833 198.833 104.5 266.5s161.5 101.5 275.5 101.5z
M384.999 667.001c-82 0 -145.167 -25.001 -189.5 -75.001s-66.5 -121.333 -66.5 -214c0 -106.667 25.833 -192.667 77.5 -258s119.5 -98 203.5 -98c77.333 0 137.833 27.833 181.5 83.5s65.5 132.834 65.5 231.501c0 104 -24 185 -72 243s-114.667 87 -200 87zM433.999 737
l-144 90c-16.667 10.667 -27.5 19 -32.5 25s-7.5 13.333 -7.5 22c0 9.33301 3 17.333 9 24s13.333 10 22 10c14.667 0 33 -11 55 -33l138 -138h-40z" />
    <glyph glyph-name="Oacute" unicode="&#xd3;" horiz-adv-x="786" 
d="M402 709c111.333 0 199.499 -30.832 264.499 -92.499s97.5 -144.834 97.5 -249.501c0 -110 -37.667 -202 -113 -276s-169 -111 -281 -111c-101.333 0 -184.666 34 -249.999 102s-98 154.333 -98 259c0 110 34.833 198.833 104.5 266.5s161.5 101.5 275.5 101.5z
M384.999 667.001c-82 0 -145.167 -25.001 -189.5 -75.001s-66.5 -121.333 -66.5 -214c0 -106.667 25.833 -192.667 77.5 -258s119.5 -98 203.5 -98c77.333 0 137.833 27.833 181.5 83.5s65.5 132.834 65.5 231.501c0 104 -24 185 -72 243s-114.667 87 -200 87zM310.999 737
l138 138c22 22 40.333 33 55 33c8.66699 0 16 -3.33301 22 -10s9 -14.667 9 -24c0 -8.66699 -2.5 -16 -7.5 -22s-15.833 -14.333 -32.5 -25l-144 -90h-40z" />
    <glyph glyph-name="Ocircumflex" unicode="&#xd4;" horiz-adv-x="786" 
d="M402 709c111.333 0 199.499 -30.832 264.499 -92.499s97.5 -144.834 97.5 -249.501c0 -110 -37.667 -202 -113 -276s-169 -111 -281 -111c-101.333 0 -184.666 34 -249.999 102s-98 154.333 -98 259c0 110 34.833 198.833 104.5 266.5s161.5 101.5 275.5 101.5z
M384.999 667.001c-82 0 -145.167 -25.001 -189.5 -75.001s-66.5 -121.333 -66.5 -214c0 -106.667 25.833 -192.667 77.5 -258s119.5 -98 203.5 -98c77.333 0 137.833 27.833 181.5 83.5s65.5 132.834 65.5 231.501c0 104 -24 185 -72 243s-114.667 87 -200 87zM362.999 908
h62l125 -167h-35l-121 103l-121 -103h-35z" />
    <glyph glyph-name="Otilde" unicode="&#xd5;" horiz-adv-x="786" 
d="M402 709c111.333 0 199.499 -30.832 264.499 -92.499s97.5 -144.834 97.5 -249.501c0 -110 -37.667 -202 -113 -276s-169 -111 -281 -111c-101.333 0 -184.666 34 -249.999 102s-98 154.333 -98 259c0 110 34.833 198.833 104.5 266.5s161.5 101.5 275.5 101.5z
M384.999 667.001c-82 0 -145.167 -25.001 -189.5 -75.001s-66.5 -121.333 -66.5 -214c0 -106.667 25.833 -192.667 77.5 -258s119.5 -98 203.5 -98c77.333 0 137.833 27.833 181.5 83.5s65.5 132.834 65.5 231.501c0 104 -24 185 -72 243s-114.667 87 -200 87zM529.999 871
l29 -0.000976562c-2 -29.333 -13.5 -54.166 -34.5 -74.499s-45.833 -30.5 -74.5 -30.5c-18 0 -40.667 6.33301 -68 19c-34 17.333 -57.667 26 -71 26c-22.667 0 -40.334 -15 -53.001 -45h-29c14.667 66.667 50 100 106 100c18.667 0 48.334 -10 89.001 -30
c22 -10 37.667 -15 47 -15c26 0 45.667 16.667 59 50z" />
    <glyph glyph-name="Odieresis" unicode="&#xd6;" horiz-adv-x="786" 
d="M402 709c111.333 0 199.499 -30.832 264.499 -92.499s97.5 -144.834 97.5 -249.501c0 -110 -37.667 -202 -113 -276s-169 -111 -281 -111c-101.333 0 -184.666 34 -249.999 102s-98 154.333 -98 259c0 110 34.833 198.833 104.5 266.5s161.5 101.5 275.5 101.5z
M384.999 667.001c-82 0 -145.167 -25.001 -189.5 -75.001s-66.5 -121.333 -66.5 -214c0 -106.667 25.833 -192.667 77.5 -258s119.5 -98 203.5 -98c77.333 0 137.833 27.833 181.5 83.5s65.5 132.834 65.5 231.501c0 104 -24 185 -72 243s-114.667 87 -200 87zM294.999 868
c14.667 0 26.501 -4.66699 35.501 -14s13.5 -21.333 13.5 -36s-4.66699 -26.667 -14 -36s-21.333 -14 -36 -14s-26.667 4.66699 -36 14s-14 21.333 -14 36c0 15.333 4.66699 27.5 14 36.5s21.666 13.5 36.999 13.5zM494 868c14.667 0 26.501 -4.66699 35.501 -14
s13.5 -21.333 13.5 -36s-4.5 -26.667 -13.5 -36s-21.167 -14 -36.5 -14s-27.5 4.66699 -36.5 14s-13.5 21.333 -13.5 36c0 15.333 4.66699 27.5 14 36.5s21.666 13.5 36.999 13.5z" />
    <glyph glyph-name="multiply" unicode="&#xd7;" horiz-adv-x="606" 
d="M263 255l-180 180l41 39l179 -179l179 179l41 -39l-181 -180l181 -180l-41 -39l-179 179l-179 -179l-41 39z" />
    <glyph glyph-name="Oslash" unicode="&#xd8;" horiz-adv-x="833" 
d="M154 67l-91 -84.999l-33 29l94 88c-24 31.333 -41 60.333 -51 87c-18.667 48 -28 100 -28 156c0 110.667 34.667 199.5 104 266.5s161 100.5 275 100.5c66.667 0 126.667 -12 180 -36c22.667 -10 47.667 -25.667 75 -47l86 83l32 -30l-88 -83c52 -66 78 -141.333 78 -226
c0 -110.667 -37.5 -203.334 -112.5 -278.001s-168.167 -112 -279.5 -112c-60.667 0 -116 12 -166 36c-19.333 9.33301 -44.333 26.333 -75 51zM641 531.001l-421.997 -400.001c29.333 -38.667 60.666 -66.5 93.999 -83.5s72.666 -25.5 117.999 -25.5
c79.333 0 140.666 27.833 183.999 83.5s65 133.834 65 234.501c0 72 -13 135.667 -39 191zM196.003 167l420 402.999c-20 22 -37.333 38.333 -52 49s-33.667 20.334 -57 29.001c-33.333 12.667 -68 19 -104 19c-80 0 -141.833 -25.333 -185.5 -76s-65.5 -122.667 -65.5 -216
c0 -78 14.667 -147.333 44 -208z" />
    <glyph glyph-name="Ugrave" unicode="&#xd9;" horiz-adv-x="778" 
d="M664 569l-0.000976562 -289.001c0 -109.333 -23 -187 -69 -233c-44 -44.667 -116.333 -67 -217 -67s-171 20.667 -211 62c-37.333 38 -56 95.333 -56 172v355c0 39.333 -2.66699 63.833 -8 73.5s-19.666 15.167 -42.999 16.5l-48 3v30c72 -2 120.667 -3 146 -3
c49.333 0 98.333 1 147 3v-30l-48 -3c-23.333 -1.33301 -37.666 -6.83301 -42.999 -16.5s-8 -34.167 -8 -73.5v-344c0 -64 15.833 -110.5 47.5 -139.5s82.167 -43.5 151.5 -43.5c72.667 0 126.334 16.833 161.001 50.5s52 85.834 52 156.501v320
c0 39.333 -2.83301 63.833 -8.5 73.5s-19.834 15.167 -42.501 16.5l-44 3v30c66 -2 104.667 -3 116 -3c10 0 50 1 120 3v-30l-44 -3c-22.667 -1.33301 -36.834 -6.83301 -42.501 -16.5s-8.5 -34.167 -8.5 -73.5zM453.999 736.999l-144 90c-16.667 10.667 -27.5 19 -32.5 25
s-7.5 13.333 -7.5 22c0 9.33301 3 17.333 9 24s13.333 10 22 10c14.667 0 33 -11 55 -33l138 -138h-40z" />
    <glyph glyph-name="Uacute" unicode="&#xda;" horiz-adv-x="778" 
d="M664 569l-0.000976562 -289.001c0 -109.333 -23 -187 -69 -233c-44 -44.667 -116.333 -67 -217 -67s-171 20.667 -211 62c-37.333 38 -56 95.333 -56 172v355c0 39.333 -2.66699 63.833 -8 73.5s-19.666 15.167 -42.999 16.5l-48 3v30c72 -2 120.667 -3 146 -3
c49.333 0 98.333 1 147 3v-30l-48 -3c-23.333 -1.33301 -37.666 -6.83301 -42.999 -16.5s-8 -34.167 -8 -73.5v-344c0 -64 15.833 -110.5 47.5 -139.5s82.167 -43.5 151.5 -43.5c72.667 0 126.334 16.833 161.001 50.5s52 85.834 52 156.501v320
c0 39.333 -2.83301 63.833 -8.5 73.5s-19.834 15.167 -42.501 16.5l-44 3v30c66 -2 104.667 -3 116 -3c10 0 50 1 120 3v-30l-44 -3c-22.667 -1.33301 -36.834 -6.83301 -42.501 -16.5s-8.5 -34.167 -8.5 -73.5zM327.999 736.999l138 138c22 22 40.333 33 55 33
c8.66699 0 16 -3.33301 22 -10s9 -14.667 9 -24c0 -8.66699 -2.5 -16 -7.5 -22s-15.833 -14.333 -32.5 -25l-144 -90h-40z" />
    <glyph glyph-name="Ucircumflex" unicode="&#xdb;" horiz-adv-x="778" 
d="M664 569l-0.000976562 -289.001c0 -109.333 -23 -187 -69 -233c-44 -44.667 -116.333 -67 -217 -67s-171 20.667 -211 62c-37.333 38 -56 95.333 -56 172v355c0 39.333 -2.66699 63.833 -8 73.5s-19.666 15.167 -42.999 16.5l-48 3v30c72 -2 120.667 -3 146 -3
c49.333 0 98.333 1 147 3v-30l-48 -3c-23.333 -1.33301 -37.666 -6.83301 -42.999 -16.5s-8 -34.167 -8 -73.5v-344c0 -64 15.833 -110.5 47.5 -139.5s82.167 -43.5 151.5 -43.5c72.667 0 126.334 16.833 161.001 50.5s52 85.834 52 156.501v320
c0 39.333 -2.83301 63.833 -8.5 73.5s-19.834 15.167 -42.501 16.5l-44 3v30c66 -2 104.667 -3 116 -3c10 0 50 1 120 3v-30l-44 -3c-22.667 -1.33301 -36.834 -6.83301 -42.501 -16.5s-8.5 -34.167 -8.5 -73.5zM383.999 907.999h62l125 -167h-35l-121 103l-121 -103h-35z
" />
    <glyph glyph-name="Udieresis" unicode="&#xdc;" horiz-adv-x="778" 
d="M664 569l-0.000976562 -289.001c0 -109.333 -23 -187 -69 -233c-44 -44.667 -116.333 -67 -217 -67s-171 20.667 -211 62c-37.333 38 -56 95.333 -56 172v355c0 39.333 -2.66699 63.833 -8 73.5s-19.666 15.167 -42.999 16.5l-48 3v30c72 -2 120.667 -3 146 -3
c49.333 0 98.333 1 147 3v-30l-48 -3c-23.333 -1.33301 -37.666 -6.83301 -42.999 -16.5s-8 -34.167 -8 -73.5v-344c0 -64 15.833 -110.5 47.5 -139.5s82.167 -43.5 151.5 -43.5c72.667 0 126.334 16.833 161.001 50.5s52 85.834 52 156.501v320
c0 39.333 -2.83301 63.833 -8.5 73.5s-19.834 15.167 -42.501 16.5l-44 3v30c66 -2 104.667 -3 116 -3c10 0 50 1 120 3v-30l-44 -3c-22.667 -1.33301 -36.834 -6.83301 -42.501 -16.5s-8.5 -34.167 -8.5 -73.5zM304.999 867.999c14.667 0 26.501 -4.66699 35.501 -14
s13.5 -21.333 13.5 -36s-4.66699 -26.667 -14 -36s-21.333 -14 -36 -14s-26.667 4.66699 -36 14s-14 21.333 -14 36c0 15.333 4.66699 27.5 14 36.5s21.666 13.5 36.999 13.5zM504 867.999c14.667 0 26.501 -4.66699 35.501 -14s13.5 -21.333 13.5 -36
s-4.5 -26.667 -13.5 -36s-21.167 -14 -36.5 -14s-27.5 4.66699 -36.5 14s-13.5 21.333 -13.5 36c0 15.333 4.66699 27.5 14 36.5s21.666 13.5 36.999 13.5z" />
    <glyph glyph-name="Yacute" unicode="&#xdd;" horiz-adv-x="667" 
d="M9 680l115.003 23.998l5 1c9.33301 0.666992 22.833 -9.16602 40.5 -29.499s34.5 -44.833 50.5 -73.5l143 -261l103 163c38 60 74 123.333 108 190h80v-15c-64 -76.667 -126.667 -161 -188 -253c-29.333 -44 -48.666 -77.667 -57.999 -101s-14 -48.666 -14 -75.999v-129
c0 -39.333 2.66699 -63.833 8 -73.5s19.666 -15.167 42.999 -16.5l48 -3v-30c-59.333 2 -108.333 3 -147 3s-87.334 -1 -146.001 -3v30l48 3c23.333 1.33301 37.666 6.83301 42.999 16.5s8 34.167 8 73.5v142c0 16.667 -3 30 -9 40l-124 216
c-20.667 36 -42.834 66 -66.501 90s-44.167 37.333 -61.5 40l-29 3v29zM276.003 736.998l138 138c22 22 40.333 33 55 33c8.66699 0 16 -3.33301 22 -10s9 -14.667 9 -24c0 -8.66699 -2.5 -16 -7.5 -22s-15.833 -14.333 -32.5 -25l-144 -90h-40z" />
    <glyph glyph-name="Thorn" unicode="&#xde;" horiz-adv-x="604" 
d="M226 491l0.00195312 -370.999c0 -39.333 2.66699 -63.833 8 -73.5s19.666 -15.167 42.999 -16.5l48 -3v-30c-59.333 2 -108.333 3 -147 3s-87.334 -1 -146.001 -3v30l48 3c23.333 1.33301 37.666 6.83301 42.999 16.5s8 34.167 8 73.5v449
c0 39.333 -2.66699 63.833 -8 73.5s-19.666 15.167 -42.999 16.5l-48 3v30c72 -2 120.667 -3 146 -3c49.333 0 98.333 1 147 3v-30l-48 -3c-23.333 -1.33301 -37.666 -6.83301 -42.999 -16.5s-8 -34.167 -8 -73.5v-27c11.333 -1.33301 26.666 -2 45.999 -2
c36 0 63 0.333008 81 1h18c62 0 111.333 -13.833 148 -41.5s55 -65.167 55 -112.5c0 -58.667 -21.5 -108.5 -64.5 -149.5s-94.833 -61.5 -155.5 -61.5c-24 0 -43.333 2 -58 6l-11 37c22 -6 42.667 -9 62 -9c35.333 0 65.333 14.167 90 42.5s37 63.166 37 104.499
c0 95.333 -56.667 143 -170 143c-26 0 -52 -3 -78 -9z" />
    <glyph glyph-name="germandbls" unicode="&#xdf;" horiz-adv-x="556" 
d="M96 385l-69 0.00195312v14l69 35v66c0 36 15.333 75.333 46 118c25.333 34 56.333 61.333 93 82s73.334 31 110.001 31c44.667 0 81 -13.333 109 -40s42 -61.334 42 -104.001c0 -54.667 -14.667 -120 -44 -196c-27.333 15.333 -51 23 -71 23c-16 0 -28.833 -4 -38.5 -12
s-14.5 -18.333 -14.5 -31c0 -14 6.5 -27.167 19.5 -39.5s35.167 -26.5 66.5 -42.5c37.333 -18.667 64.166 -37.834 80.499 -57.501s24.5 -42.5 24.5 -68.5c0 -20.667 -3.5 -40.667 -10.5 -60s-15.833 -33 -26.5 -41l-58 -44c-22.667 -18 -49 -27 -79 -27
c-31.333 0 -62.333 6.66699 -93 20v-14c-64.667 2 -103 3 -115 3l-114 -3v30l36 3c16.667 1.33301 27 5.83301 31 13.5s6 27.167 6 58.5v283zM287 383.002l39.001 43c21.333 23.333 55.666 35 102.999 35c0.666992 2.66699 1.33398 5.66699 2.00098 9c6 30.667 9 55 9 73
c0 44 -11.667 78.833 -35 104.5s-55.333 38.5 -96 38.5c-46.667 0 -79.834 -16.833 -99.501 -50.5s-29.5 -90.167 -29.5 -169.5v-359c0 -29.333 3.5 -50 10.5 -62s18.833 -18 35.5 -18h28l21 85h27v-46c24 -21.333 47.667 -32 71 -32s42.666 7.16699 57.999 21.5
s23 32.5 23 54.5c0 23.333 -7 43.333 -21 60s-38 34 -72 52c-37.333 19.333 -62.166 36 -74.499 50s-18.5 32.333 -18.5 55c0 24 6.33301 42.667 19 56z" />
    <glyph glyph-name="agrave" unicode="&#xe0;" 
d="M324 82l-124 -86c-7.33301 -5.33301 -21.333 -8 -42 -8c-39.333 0 -70.166 10.833 -92.499 32.5s-33.5 51.834 -33.5 90.501c0 43.333 15.167 77.5 45.5 102.5s79.5 43.833 147.5 56.5l99 18c-1.33301 45.333 -12.666 78 -33.999 98s-55.333 30 -102 30
c-23.333 0 -39.333 -3.16699 -48 -9.5s-18.334 -21.166 -29.001 -44.499l-13 -31l-26 7v65l53 32c37.333 22.667 77.666 34 120.999 34c58 0 98.833 -14.833 122.5 -44.5s35.5 -81.167 35.5 -154.5v-183c0 -24.667 1.66699 -40.334 5 -47.001s11 -10.334 23 -11.001l39 -2
v-30c-44 2 -68.667 3 -74 3c-8.66699 0 -34.667 -1 -78 -3zM324 124l-0.000976562 131.998c-78.667 -11.333 -130.667 -24.666 -156 -39.999c-33.333 -21.333 -50 -51.666 -50 -90.999c0 -21.333 7.5 -40 22.5 -56s32.5 -24 52.5 -24c19.333 0 42.333 8 69 24
s47.334 34.333 62.001 55zM297.999 505.998l-144 90c-16.667 10.667 -27.5 19 -32.5 25s-7.5 13.333 -7.5 22c0 9.33301 3 17.333 9 24s13.333 10 22 10c14.667 0 33 -11 55 -33l138 -138h-40z" />
    <glyph glyph-name="aacute" unicode="&#xe1;" 
d="M324 82l-124 -86c-7.33301 -5.33301 -21.333 -8 -42 -8c-39.333 0 -70.166 10.833 -92.499 32.5s-33.5 51.834 -33.5 90.501c0 43.333 15.167 77.5 45.5 102.5s79.5 43.833 147.5 56.5l99 18c-1.33301 45.333 -12.666 78 -33.999 98s-55.333 30 -102 30
c-23.333 0 -39.333 -3.16699 -48 -9.5s-18.334 -21.166 -29.001 -44.499l-13 -31l-26 7v65l53 32c37.333 22.667 77.666 34 120.999 34c58 0 98.833 -14.833 122.5 -44.5s35.5 -81.167 35.5 -154.5v-183c0 -24.667 1.66699 -40.334 5 -47.001s11 -10.334 23 -11.001l39 -2
v-30c-44 2 -68.667 3 -74 3c-8.66699 0 -34.667 -1 -78 -3zM324 124l-0.000976562 131.998c-78.667 -11.333 -130.667 -24.666 -156 -39.999c-33.333 -21.333 -50 -51.666 -50 -90.999c0 -21.333 7.5 -40 22.5 -56s32.5 -24 52.5 -24c19.333 0 42.333 8 69 24
s47.334 34.333 62.001 55zM161.999 505.998l138 138c22 22 40.333 33 55 33c8.66699 0 16 -3.33301 22 -10s9 -14.667 9 -24c0 -8.66699 -2.5 -16 -7.5 -22s-15.833 -14.333 -32.5 -25l-144 -90h-40z" />
    <glyph glyph-name="acircumflex" unicode="&#xe2;" 
d="M324 82l-124 -86c-7.33301 -5.33301 -21.333 -8 -42 -8c-39.333 0 -70.166 10.833 -92.499 32.5s-33.5 51.834 -33.5 90.501c0 43.333 15.167 77.5 45.5 102.5s79.5 43.833 147.5 56.5l99 18c-1.33301 45.333 -12.666 78 -33.999 98s-55.333 30 -102 30
c-23.333 0 -39.333 -3.16699 -48 -9.5s-18.334 -21.166 -29.001 -44.499l-13 -31l-26 7v65l53 32c37.333 22.667 77.666 34 120.999 34c58 0 98.833 -14.833 122.5 -44.5s35.5 -81.167 35.5 -154.5v-183c0 -24.667 1.66699 -40.334 5 -47.001s11 -10.334 23 -11.001l39 -2
v-30c-44 2 -68.667 3 -74 3c-8.66699 0 -34.667 -1 -78 -3zM324 124l-0.000976562 131.998c-78.667 -11.333 -130.667 -24.666 -156 -39.999c-33.333 -21.333 -50 -51.666 -50 -90.999c0 -21.333 7.5 -40 22.5 -56s32.5 -24 52.5 -24c19.333 0 42.333 8 69 24
s47.334 34.333 62.001 55zM206.999 676.998h62l125 -167h-35l-121 103l-121 -103h-35z" />
    <glyph glyph-name="atilde" unicode="&#xe3;" 
d="M324 82l-124 -86c-7.33301 -5.33301 -21.333 -8 -42 -8c-39.333 0 -70.166 10.833 -92.499 32.5s-33.5 51.834 -33.5 90.501c0 43.333 15.167 77.5 45.5 102.5s79.5 43.833 147.5 56.5l99 18c-1.33301 45.333 -12.666 78 -33.999 98s-55.333 30 -102 30
c-23.333 0 -39.333 -3.16699 -48 -9.5s-18.334 -21.166 -29.001 -44.499l-13 -31l-26 7v65l53 32c37.333 22.667 77.666 34 120.999 34c58 0 98.833 -14.833 122.5 -44.5s35.5 -81.167 35.5 -154.5v-183c0 -24.667 1.66699 -40.334 5 -47.001s11 -10.334 23 -11.001l39 -2
v-30c-44 2 -68.667 3 -74 3c-8.66699 0 -34.667 -1 -78 -3zM324 124l-0.000976562 131.998c-78.667 -11.333 -130.667 -24.666 -156 -39.999c-33.333 -21.333 -50 -51.666 -50 -90.999c0 -21.333 7.5 -40 22.5 -56s32.5 -24 52.5 -24c19.333 0 42.333 8 69 24
s47.334 34.333 62.001 55zM379.999 639.998l29 -0.000976562c-2 -29.333 -13.5 -54.166 -34.5 -74.499s-45.833 -30.5 -74.5 -30.5c-18 0 -40.667 6.33301 -68 19c-34 17.333 -57.667 26 -71 26c-22.667 0 -40.334 -15 -53.001 -45h-29c14.667 66.667 50 100 106 100
c18.667 0 48.334 -10 89.001 -30c22 -10 37.667 -15 47 -15c26 0 45.667 16.667 59 50z" />
    <glyph glyph-name="adieresis" unicode="&#xe4;" 
d="M324 82l-124 -86c-7.33301 -5.33301 -21.333 -8 -42 -8c-39.333 0 -70.166 10.833 -92.499 32.5s-33.5 51.834 -33.5 90.501c0 43.333 15.167 77.5 45.5 102.5s79.5 43.833 147.5 56.5l99 18c-1.33301 45.333 -12.666 78 -33.999 98s-55.333 30 -102 30
c-23.333 0 -39.333 -3.16699 -48 -9.5s-18.334 -21.166 -29.001 -44.499l-13 -31l-26 7v65l53 32c37.333 22.667 77.666 34 120.999 34c58 0 98.833 -14.833 122.5 -44.5s35.5 -81.167 35.5 -154.5v-183c0 -24.667 1.66699 -40.334 5 -47.001s11 -10.334 23 -11.001l39 -2
v-30c-44 2 -68.667 3 -74 3c-8.66699 0 -34.667 -1 -78 -3zM324 124l-0.000976562 131.998c-78.667 -11.333 -130.667 -24.666 -156 -39.999c-33.333 -21.333 -50 -51.666 -50 -90.999c0 -21.333 7.5 -40 22.5 -56s32.5 -24 52.5 -24c19.333 0 42.333 8 69 24
s47.334 34.333 62.001 55zM142.999 636.998c14.667 0 26.501 -4.66699 35.501 -14s13.5 -21.333 13.5 -36c0 -15.333 -4.66699 -27.5 -14 -36.5s-21.333 -13.5 -36 -13.5s-26.667 4.5 -36 13.5s-14 21.167 -14 36.5s4.66699 27.5 14 36.5s21.666 13.5 36.999 13.5z
M342 636.998c14.667 0 26.501 -4.66699 35.501 -14s13.5 -21.333 13.5 -36c0 -15.333 -4.5 -27.5 -13.5 -36.5s-21.167 -13.5 -36.5 -13.5s-27.5 4.5 -36.5 13.5s-13.5 21.167 -13.5 36.5s4.66699 27.5 14 36.5s21.666 13.5 36.999 13.5z" />
    <glyph glyph-name="aring" unicode="&#xe5;" 
d="M324 82l-124 -86c-7.33301 -5.33301 -21.333 -8 -42 -8c-39.333 0 -70.166 10.833 -92.499 32.5s-33.5 51.834 -33.5 90.501c0 43.333 15.167 77.5 45.5 102.5s79.5 43.833 147.5 56.5l99 18c-1.33301 45.333 -12.666 78 -33.999 98s-55.333 30 -102 30
c-23.333 0 -39.333 -3.16699 -48 -9.5s-18.334 -21.166 -29.001 -44.499l-13 -31l-26 7v65l53 32c37.333 22.667 77.666 34 120.999 34c58 0 98.833 -14.833 122.5 -44.5s35.5 -81.167 35.5 -154.5v-183c0 -24.667 1.66699 -40.334 5 -47.001s11 -10.334 23 -11.001l39 -2
v-30c-44 2 -68.667 3 -74 3c-8.66699 0 -34.667 -1 -78 -3zM324 124l-0.000976562 131.998c-78.667 -11.333 -130.667 -24.666 -156 -39.999c-33.333 -21.333 -50 -51.666 -50 -90.999c0 -21.333 7.5 -40 22.5 -56s32.5 -24 52.5 -24c19.333 0 42.333 8 69 24
s47.334 34.333 62.001 55zM251.999 711.998c26.667 0 49.666 -9.83203 68.999 -29.499s29 -43.167 29 -70.5c0 -28 -9.83301 -51.667 -29.5 -71s-43.167 -29 -70.5 -29c-28 0 -51.667 9.66699 -71 29s-29 43.333 -29 72c0 27.333 9.83301 50.666 29.5 69.999
s43.834 29 72.501 29zM250.998 675.999c-19.333 0 -34.667 -5.66797 -46 -17.001s-17 -26.666 -17 -45.999c0 -20 5.5 -35.833 16.5 -47.5s26.167 -17.5 45.5 -17.5c18.667 0 33.667 5.83301 45 17.5s17 27.167 17 46.5c0 18.667 -5.66699 34 -17 46s-26 18 -44 18z" />
    <glyph glyph-name="ae" unicode="&#xe6;" horiz-adv-x="758" 
d="M69 399l97.999 53.001c20.667 11.333 44.334 17 71.001 17c60.667 0 109.334 -23.667 146.001 -71c32.667 26.667 60.5 45.167 83.5 55.5s48.833 15.5 77.5 15.5c34.667 0 66.5 -7.66699 95.5 -23s51.5 -36.666 67.5 -63.999c16 -28 24 -62.667 24 -104
c0 -4 -0.666992 -15.333 -2 -34c-58.667 -9.33301 -119 -14 -181 -14h-146c2 -49.333 11 -89 27 -119c30 -52 79.667 -78 149 -78c22 0 41.833 3.16699 59.5 9.5s41.5 18.833 71.5 37.5l14 -10l-20 -34c-4.66699 -7.33301 -21.334 -17 -50.001 -29
c-41.333 -18 -80.666 -27 -117.999 -27c-60 0 -109.333 17.667 -148 53c-14.667 12 -29.334 30.667 -44.001 56l-123 -96c-10.667 -8.66699 -29 -13 -55 -13c-41.333 0 -74.333 11.5 -99 34.5s-37 53.833 -37 92.5c0 44 13.667 76.667 41 98c15.333 11.333 41.5 22 78.5 32
s76.5 17.333 118.5 22l56 6c-2.66699 49.333 -11.667 85.666 -27 108.999c-20.667 28 -49.334 42 -86.001 42c-17.333 0 -35.333 -2.83301 -54 -8.5s-31 -11.834 -37 -18.501c-9.33301 -10 -17.666 -29.333 -24.999 -58l-26 6v62zM323.999 117.001l-0.000976562 116.001
c-57.333 -6.66699 -102 -14.334 -134 -23.001c-29.333 -8.66699 -48 -18.334 -56 -29.001c-12 -17.333 -18 -37 -18 -59c0 -24 7.33301 -42.833 22 -56.5s35.334 -20.5 62.001 -20.5c23.333 0 44.333 5.33301 63 16s39 29.334 61 56.001zM648.998 267.002
c0 44.667 -7.66602 81.332 -22.999 109.999c-21.333 39.333 -50.333 59 -87 59c-44 0 -78.667 -17 -104 -51c-18 -25.333 -28 -63.666 -30 -114.999c43.333 -4 85.666 -6 126.999 -6c22.667 0 61.667 1 117 3z" />
    <glyph glyph-name="ccedilla" unicode="&#xe7;" horiz-adv-x="444" 
d="M269 -20l-21.002 -55.001c8.66699 2.66699 17.667 4 27 4c26 0 46.667 -6.33301 62 -19s23 -29.667 23 -51c0 -26 -11.167 -46.5 -33.5 -61.5s-52.5 -22.5 -90.5 -22.5c-20.667 0 -48.667 5.33301 -84 16l14 31c26.667 -7.33301 48.334 -11 65.001 -11
c36 0 54 14.333 54 43c0 11.333 -3.66699 20.666 -11 27.999s-17 11 -29 11c-9.33301 0 -23 -2.33301 -41 -7l-7 6l38 89c-62.667 5.33301 -113.167 28.833 -151.5 70.5s-57.5 94.5 -57.5 158.5c0 90 35.667 157.333 107 202c60 38 114.667 57 164 57
c38.667 0 77.334 -11.667 116.001 -35c-9.33301 -37.333 -14 -78.333 -14 -123h-28l-7 61c-9.33301 12.667 -24.5 23.334 -45.5 32.001s-42.5 13 -64.5 13c-44.667 0 -79.167 -14.5 -103.5 -43.5s-36.5 -70.167 -36.5 -123.5c0 -66 16.833 -118.833 50.5 -158.5
s78.167 -59.5 133.5 -59.5c34 0 69 9.66699 105 29l10 -15l-21 -32c-6 -7.33301 -22.5 -14.666 -49.5 -21.999s-51.5 -11.333 -73.5 -12z" />
    <glyph glyph-name="egrave" unicode="&#xe8;" horiz-adv-x="479" 
d="M437 70l-20.001 -33.999c-5.33301 -8 -22.666 -18 -51.999 -30c-39.333 -17.333 -77.666 -26 -114.999 -26s-72 7.33301 -104 22s-58 35.334 -78 62.001c-28 39.333 -42 91 -42 155c0 52 9 94.667 27 128s47.333 61.666 88 84.999c42 24.667 82.333 37 121 37
c56 0 101 -17.333 135 -52s51 -80.667 51 -138c0 -4.66699 -0.666992 -16.334 -2 -35.001c-58.667 -9.33301 -119 -14 -181 -14h-146c2 -50 11.333 -89.667 28 -119c30 -52 79 -78 147 -78c21.333 0 40.166 3 56.499 9s40.833 18.667 73.5 38zM358.999 267.001
c-1.33301 33.333 -4.33203 59.001 -8.99902 77.001s-12.334 35.333 -23.001 52c-18 26.667 -43.667 40 -77 40c-24 0 -46 -6.33301 -66 -19s-35.333 -30 -46 -52c-11.333 -22.667 -17 -54.334 -17 -95.001c43.333 -4 85.333 -6 126 -6c22.667 0 60 1 112 3zM288 506.002
l-144 90c-16.667 10.667 -27.5 19 -32.5 25s-7.5 13.333 -7.5 22c0 9.33301 3 17.333 9 24s13.333 10 22 10c14.667 0 33 -11 55 -33l138 -138h-40z" />
    <glyph glyph-name="eacute" unicode="&#xe9;" horiz-adv-x="479" 
d="M437 70l-20.001 -33.999c-5.33301 -8 -22.666 -18 -51.999 -30c-39.333 -17.333 -77.666 -26 -114.999 -26s-72 7.33301 -104 22s-58 35.334 -78 62.001c-28 39.333 -42 91 -42 155c0 52 9 94.667 27 128s47.333 61.666 88 84.999c42 24.667 82.333 37 121 37
c56 0 101 -17.333 135 -52s51 -80.667 51 -138c0 -4.66699 -0.666992 -16.334 -2 -35.001c-58.667 -9.33301 -119 -14 -181 -14h-146c2 -50 11.333 -89.667 28 -119c30 -52 79 -78 147 -78c21.333 0 40.166 3 56.499 9s40.833 18.667 73.5 38zM358.999 267.001
c-1.33301 33.333 -4.33203 59.001 -8.99902 77.001s-12.334 35.333 -23.001 52c-18 26.667 -43.667 40 -77 40c-24 0 -46 -6.33301 -66 -19s-35.333 -30 -46 -52c-11.333 -22.667 -17 -54.334 -17 -95.001c43.333 -4 85.333 -6 126 -6c22.667 0 60 1 112 3zM151 506.002
l138 138c22 22 40.333 33 55 33c8.66699 0 16 -3.33301 22 -10s9 -14.667 9 -24c0 -8.66699 -2.5 -16 -7.5 -22s-15.833 -14.333 -32.5 -25l-144 -90h-40z" />
    <glyph glyph-name="ecircumflex" unicode="&#xea;" horiz-adv-x="479" 
d="M437 70l-20.001 -33.999c-5.33301 -8 -22.666 -18 -51.999 -30c-39.333 -17.333 -77.666 -26 -114.999 -26s-72 7.33301 -104 22s-58 35.334 -78 62.001c-28 39.333 -42 91 -42 155c0 52 9 94.667 27 128s47.333 61.666 88 84.999c42 24.667 82.333 37 121 37
c56 0 101 -17.333 135 -52s51 -80.667 51 -138c0 -4.66699 -0.666992 -16.334 -2 -35.001c-58.667 -9.33301 -119 -14 -181 -14h-146c2 -50 11.333 -89.667 28 -119c30 -52 79 -78 147 -78c21.333 0 40.166 3 56.499 9s40.833 18.667 73.5 38zM358.999 267.001
c-1.33301 33.333 -4.33203 59.001 -8.99902 77.001s-12.334 35.333 -23.001 52c-18 26.667 -43.667 40 -77 40c-24 0 -46 -6.33301 -66 -19s-35.333 -30 -46 -52c-11.333 -22.667 -17 -54.334 -17 -95.001c43.333 -4 85.333 -6 126 -6c22.667 0 60 1 112 3zM209 677.002h62
l125 -167h-35l-121 103l-121 -103h-35z" />
    <glyph glyph-name="edieresis" unicode="&#xeb;" horiz-adv-x="479" 
d="M437 70l-20.001 -33.999c-5.33301 -8 -22.666 -18 -51.999 -30c-39.333 -17.333 -77.666 -26 -114.999 -26s-72 7.33301 -104 22s-58 35.334 -78 62.001c-28 39.333 -42 91 -42 155c0 52 9 94.667 27 128s47.333 61.666 88 84.999c42 24.667 82.333 37 121 37
c56 0 101 -17.333 135 -52s51 -80.667 51 -138c0 -4.66699 -0.666992 -16.334 -2 -35.001c-58.667 -9.33301 -119 -14 -181 -14h-146c2 -50 11.333 -89.667 28 -119c30 -52 79 -78 147 -78c21.333 0 40.166 3 56.499 9s40.833 18.667 73.5 38zM358.999 267.001
c-1.33301 33.333 -4.33203 59.001 -8.99902 77.001s-12.334 35.333 -23.001 52c-18 26.667 -43.667 40 -77 40c-24 0 -46 -6.33301 -66 -19s-35.333 -30 -46 -52c-11.333 -22.667 -17 -54.334 -17 -95.001c43.333 -4 85.333 -6 126 -6c22.667 0 60 1 112 3zM141 637.002
c14.667 0 26.501 -4.66699 35.501 -14s13.5 -21.333 13.5 -36c0 -15.333 -4.66699 -27.5 -14 -36.5s-21.333 -13.5 -36 -13.5s-26.667 4.5 -36 13.5s-14 21.167 -14 36.5s4.66699 27.5 14 36.5s21.666 13.5 36.999 13.5zM340.001 637.002
c14.667 0 26.501 -4.66699 35.501 -14s13.5 -21.333 13.5 -36c0 -15.333 -4.5 -27.5 -13.5 -36.5s-21.167 -13.5 -36.5 -13.5s-27.5 4.5 -36.5 13.5s-13.5 21.167 -13.5 36.5s4.66699 27.5 14 36.5s21.666 13.5 36.999 13.5z" />
    <glyph glyph-name="igrave" unicode="&#xec;" horiz-adv-x="287" 
d="M188 465l0.00195312 -363c0 -32 2 -51.833 6 -59.5s14.333 -11.834 31 -12.501l46 -3v-30c-66.667 2 -108.334 3 -125.001 3s-58.334 -1 -125.001 -3v30l46 3c16.667 0.666992 27 4.83398 31 12.501s6 27.5 6 59.5v225c0 33.333 -2.33301 53.833 -7 61.5
s-17 11.5 -37 11.5h-37v28c52 6 104 19.667 156 41zM192.002 506l-144 90c-16.667 10.667 -27.5 19 -32.5 25s-7.5 13.333 -7.5 22c0 9.33301 3 17.333 9 24s13.333 10 22 10c14.667 0 33 -11 55 -33l138 -138h-40z" />
    <glyph glyph-name="iacute" unicode="&#xed;" horiz-adv-x="287" 
d="M188 465l0.00195312 -363c0 -32 2 -51.833 6 -59.5s14.333 -11.834 31 -12.501l46 -3v-30c-66.667 2 -108.334 3 -125.001 3s-58.334 -1 -125.001 -3v30l46 3c16.667 0.666992 27 4.83398 31 12.501s6 27.5 6 59.5v225c0 33.333 -2.33301 53.833 -7 61.5
s-17 11.5 -37 11.5h-37v28c52 6 104 19.667 156 41zM55.002 506l138 138c22 22 40.333 33 55 33c8.66699 0 16 -3.33301 22 -10s9 -14.667 9 -24c0 -8.66699 -2.5 -16 -7.5 -22s-15.833 -14.333 -32.5 -25l-144 -90h-40z" />
    <glyph glyph-name="icircumflex" unicode="&#xee;" horiz-adv-x="287" 
d="M188 465l0.00195312 -363c0 -32 2 -51.833 6 -59.5s14.333 -11.834 31 -12.501l46 -3v-30c-66.667 2 -108.334 3 -125.001 3s-58.334 -1 -125.001 -3v30l46 3c16.667 0.666992 27 4.83398 31 12.501s6 27.5 6 59.5v225c0 33.333 -2.33301 53.833 -7 61.5
s-17 11.5 -37 11.5h-37v28c52 6 104 19.667 156 41zM113.002 677h62l125 -167h-35l-121 103l-121 -103h-35z" />
    <glyph glyph-name="idieresis" unicode="&#xef;" horiz-adv-x="287" 
d="M188 465l0.00195312 -363c0 -32 2 -51.833 6 -59.5s14.333 -11.834 31 -12.501l46 -3v-30c-66.667 2 -108.334 3 -125.001 3s-58.334 -1 -125.001 -3v30l46 3c16.667 0.666992 27 4.83398 31 12.501s6 27.5 6 59.5v225c0 33.333 -2.33301 53.833 -7 61.5
s-17 11.5 -37 11.5h-37v28c52 6 104 19.667 156 41zM45.002 657c14.667 0 26.501 -4.66699 35.501 -14s13.5 -21.333 13.5 -36c0 -15.333 -4.66699 -27.5 -14 -36.5s-21.333 -13.5 -36 -13.5s-26.667 4.5 -36 13.5s-14 21.167 -14 36.5s4.66699 27.5 14 36.5
s21.666 13.5 36.999 13.5zM244.003 657c14.667 0 26.501 -4.66699 35.501 -14s13.5 -21.333 13.5 -36c0 -15.333 -4.5 -27.5 -13.5 -36.5s-21.167 -13.5 -36.5 -13.5s-27.5 4.5 -36.5 13.5s-13.5 21.167 -13.5 36.5s4.66699 27.5 14 36.5s21.666 13.5 36.999 13.5z" />
    <glyph glyph-name="eth" unicode="&#xf0;" horiz-adv-x="546" 
d="M124 550l136.001 66c-28 26 -68.667 52.667 -122 80l34 32c62 -37.333 106.333 -67.333 133 -90l143 70l18 -30l-131 -64c44 -44 78.333 -85.667 103 -125c44 -72.667 66 -148.334 66 -227.001c0 -84 -23.167 -152 -69.5 -204s-106.5 -78 -180.5 -78
c-66.667 0 -120.334 21.833 -161.001 65.5s-61 100.834 -61 171.501c0 74 22.333 134.5 67 181.5s102 70.5 172 70.5c38.667 0 74.334 -8.33301 107.001 -25l2 2c-26.667 58.667 -59.334 106 -98.001 142l-140 -68zM261.001 436c-43.333 0 -76.8311 -16 -100.498 -48
s-35.5 -77.333 -35.5 -136c0 -70 13.667 -127.333 41 -172s62.666 -67 105.999 -67c32 0 58.667 10.667 80 32c42.667 44 64 109 64 195c0 62 -13 109 -39 141c-30.667 36.667 -69.334 55 -116.001 55z" />
    <glyph glyph-name="ntilde" unicode="&#xf1;" horiz-adv-x="582" 
d="M410 -3v284.001c0 38.667 -10.167 69.5 -30.5 92.5s-47.166 34.5 -80.499 34.5c-30.667 0 -59.5 -10 -86.5 -30s-40.5 -41.333 -40.5 -64v-212c0 -32 2 -51.833 6 -59.5s14.333 -11.834 31 -12.501l45 -3v-30c-68 2 -109.333 3 -124 3s-56 -1 -124 -3v30l45 3
c16.667 0.666992 27 4.83398 31 12.501s6 27.5 6 59.5v225c0 33.333 -2.33301 53.833 -7 61.5s-17 11.5 -37 11.5h-37v28c52 6 104 19.667 156 41l9 -4v-87l76 66c19.333 16.667 45.666 25 78.999 25c111.333 0 167 -58 167 -174v-193c0 -32 2 -51.833 6 -59.5
s14.333 -11.834 31 -12.501l41 -3v-30c-46 2 -73.667 3 -83 3c-12 0 -38.333 -1 -79 -3zM422 640.001l29 -0.000976562c-2 -29.333 -13.5 -54.166 -34.5 -74.499s-45.833 -30.5 -74.5 -30.5c-18 0 -40.667 6.33301 -68 19c-34 17.333 -57.667 26 -71 26
c-22.667 0 -40.334 -15 -53.001 -45h-29c14.667 66.667 50 100 106 100c18.667 0 48.334 -10 89.001 -30c22 -10 37.667 -15 47 -15c26 0 45.667 16.667 59 50z" />
    <glyph glyph-name="ograve" unicode="&#xf2;" horiz-adv-x="546" 
d="M279 469c68.667 0 124.999 -21.835 168.999 -65.502s66 -99.167 66 -166.5c0 -74.667 -24.667 -136.167 -74 -184.5s-112.666 -72.5 -189.999 -72.5c-64.667 0 -117.167 21.833 -157.5 65.5s-60.5 100.834 -60.5 171.501c0 74.667 22.833 135.334 68.5 182.001
s105.167 70 178.5 70zM260.999 435.998c-44 0 -77.668 -15.833 -101.001 -47.5s-35 -77.5 -35 -137.5c0 -71.333 15.167 -128.833 45.5 -172.5s69.833 -65.5 118.5 -65.5c40.667 0 72.834 16.833 96.501 50.5s35.5 79.167 35.5 136.5c0 68 -15.167 124.333 -45.5 169
s-68.5 67 -114.5 67zM320.998 505.998l-144 90c-16.667 10.667 -27.5 19 -32.5 25s-7.5 13.333 -7.5 22c0 9.33301 3 17.333 9 24s13.333 10 22 10c14.667 0 33 -11 55 -33l138 -138h-40z" />
    <glyph glyph-name="oacute" unicode="&#xf3;" horiz-adv-x="546" 
d="M279 469c68.667 0 124.999 -21.835 168.999 -65.502s66 -99.167 66 -166.5c0 -74.667 -24.667 -136.167 -74 -184.5s-112.666 -72.5 -189.999 -72.5c-64.667 0 -117.167 21.833 -157.5 65.5s-60.5 100.834 -60.5 171.501c0 74.667 22.833 135.334 68.5 182.001
s105.167 70 178.5 70zM260.999 435.998c-44 0 -77.668 -15.833 -101.001 -47.5s-35 -77.5 -35 -137.5c0 -71.333 15.167 -128.833 45.5 -172.5s69.833 -65.5 118.5 -65.5c40.667 0 72.834 16.833 96.501 50.5s35.5 79.167 35.5 136.5c0 68 -15.167 124.333 -45.5 169
s-68.5 67 -114.5 67zM178.998 505.998l138 138c22 22 40.333 33 55 33c8.66699 0 16 -3.33301 22 -10s9 -14.667 9 -24c0 -8.66699 -2.5 -16 -7.5 -22s-15.833 -14.333 -32.5 -25l-144 -90h-40z" />
    <glyph glyph-name="ocircumflex" unicode="&#xf4;" horiz-adv-x="546" 
d="M279 469c68.667 0 124.999 -21.835 168.999 -65.502s66 -99.167 66 -166.5c0 -74.667 -24.667 -136.167 -74 -184.5s-112.666 -72.5 -189.999 -72.5c-64.667 0 -117.167 21.833 -157.5 65.5s-60.5 100.834 -60.5 171.501c0 74.667 22.833 135.334 68.5 182.001
s105.167 70 178.5 70zM260.999 435.998c-44 0 -77.668 -15.833 -101.001 -47.5s-35 -77.5 -35 -137.5c0 -71.333 15.167 -128.833 45.5 -172.5s69.833 -65.5 118.5 -65.5c40.667 0 72.834 16.833 96.501 50.5s35.5 79.167 35.5 136.5c0 68 -15.167 124.333 -45.5 169
s-68.5 67 -114.5 67zM235.998 676.998h62l125 -167h-35l-121 103l-121 -103h-35z" />
    <glyph glyph-name="otilde" unicode="&#xf5;" horiz-adv-x="546" 
d="M279 469c68.667 0 124.999 -21.835 168.999 -65.502s66 -99.167 66 -166.5c0 -74.667 -24.667 -136.167 -74 -184.5s-112.666 -72.5 -189.999 -72.5c-64.667 0 -117.167 21.833 -157.5 65.5s-60.5 100.834 -60.5 171.501c0 74.667 22.833 135.334 68.5 182.001
s105.167 70 178.5 70zM260.999 435.998c-44 0 -77.668 -15.833 -101.001 -47.5s-35 -77.5 -35 -137.5c0 -71.333 15.167 -128.833 45.5 -172.5s69.833 -65.5 118.5 -65.5c40.667 0 72.834 16.833 96.501 50.5s35.5 79.167 35.5 136.5c0 68 -15.167 124.333 -45.5 169
s-68.5 67 -114.5 67zM403.998 639.998l29 -0.000976562c-2 -29.333 -13.5 -54.166 -34.5 -74.499s-45.833 -30.5 -74.5 -30.5c-18 0 -40.667 6.33301 -68 19c-34 17.333 -57.667 26 -71 26c-22.667 0 -40.334 -15 -53.001 -45h-29c14.667 66.667 50 100 106 100
c18.667 0 48.334 -10 89.001 -30c22 -10 37.667 -15 47 -15c26 0 45.667 16.667 59 50z" />
    <glyph glyph-name="odieresis" unicode="&#xf6;" horiz-adv-x="546" 
d="M279 469c68.667 0 124.999 -21.835 168.999 -65.502s66 -99.167 66 -166.5c0 -74.667 -24.667 -136.167 -74 -184.5s-112.666 -72.5 -189.999 -72.5c-64.667 0 -117.167 21.833 -157.5 65.5s-60.5 100.834 -60.5 171.501c0 74.667 22.833 135.334 68.5 182.001
s105.167 70 178.5 70zM260.999 435.998c-44 0 -77.668 -15.833 -101.001 -47.5s-35 -77.5 -35 -137.5c0 -71.333 15.167 -128.833 45.5 -172.5s69.833 -65.5 118.5 -65.5c40.667 0 72.834 16.833 96.501 50.5s35.5 79.167 35.5 136.5c0 68 -15.167 124.333 -45.5 169
s-68.5 67 -114.5 67zM166.998 636.998c14.667 0 26.501 -4.66699 35.501 -14s13.5 -21.333 13.5 -36c0 -15.333 -4.66699 -27.5 -14 -36.5s-21.333 -13.5 -36 -13.5s-26.667 4.5 -36 13.5s-14 21.167 -14 36.5s4.66699 27.5 14 36.5s21.666 13.5 36.999 13.5z
M365.999 636.998c14.667 0 26.501 -4.66699 35.501 -14s13.5 -21.333 13.5 -36c0 -15.333 -4.5 -27.5 -13.5 -36.5s-21.167 -13.5 -36.5 -13.5s-27.5 4.5 -36.5 13.5s-13.5 21.167 -13.5 36.5s4.66699 27.5 14 36.5s21.666 13.5 36.999 13.5z" />
    <glyph glyph-name="divide" unicode="&#xf7;" horiz-adv-x="606" 
d="M51 233v56h504v-56h-504zM304 512c15.333 0 28.832 -6.00098 40.499 -18.001s17.5 -25.667 17.5 -41s-5.83301 -28.666 -17.5 -39.999s-25.5 -17 -41.5 -17c-15.333 0 -28.666 5.83301 -39.999 17.5s-17 25.167 -17 40.5s5.83301 28.833 17.5 40.5s25.167 17.5 40.5 17.5
zM303.999 125.999c15.333 0 28.832 -6.00098 40.499 -18.001s17.5 -25.667 17.5 -41s-5.83301 -28.666 -17.5 -39.999s-25.5 -17 -41.5 -17c-15.333 0 -28.666 5.83301 -39.999 17.5s-17 25.167 -17 40.5s5.83301 28.833 17.5 40.5s25.167 17.5 40.5 17.5z" />
    <glyph glyph-name="oslash" unicode="&#xf8;" horiz-adv-x="556" 
d="M16 0l66.999 64c-30.667 47.333 -46 98 -46 152c0 74 23.5 134.667 70.5 182s107.167 71 180.5 71c56 0 107 -18.333 153 -55l62 60l27 -25l-63 -61c34.667 -46.667 52 -96.667 52 -150c0 -74.667 -24.667 -136.334 -74 -185.001s-111.666 -73 -186.999 -73
c-31.333 0 -58.5 4.33301 -81.5 13s-46.5 23.334 -70.5 44.001l-62 -60zM403.999 327l-238 -232c32.667 -54.667 75 -82 127 -82c40 0 72.167 16.833 96.5 50.5s36.5 78.167 36.5 133.5c0 40 -7.33301 83.333 -22 130zM149.999 130l238.001 231.999
c-32.667 49.333 -73.667 74 -123 74c-42.667 0 -75.834 -15.667 -99.501 -47s-35.5 -75.666 -35.5 -132.999c0 -41.333 6.66699 -83.333 20 -126z" />
    <glyph glyph-name="ugrave" unicode="&#xf9;" horiz-adv-x="603" 
d="M503 465l0.000976562 -362.999c0 -32 2 -51.833 6 -59.5s14.333 -11.834 31 -12.501l41 -3v-30c-46 2 -73.667 3 -83 3c-10.667 0 -38.334 -1 -83.001 -3c2.66699 42 4 72.667 4 92l-67 -62c-28 -26 -65.333 -39 -112 -39c-56 0 -95 15 -117 45c-16 22 -24 64 -24 126
v168c0 33.333 -2.33301 53.833 -7 61.5s-17 11.5 -37 11.5h-37v28c52 6 104 19.667 156 41l9 -4v-295c0 -44.667 7 -75 21 -91c16.667 -20 43 -30 79 -30c38 0 71 14 99 42c24.667 24.667 37 49 37 73v163c0 33.333 -2.33301 53.833 -7 61.5s-17 11.5 -37 11.5h-37v28
c52 6 104 19.667 156 41zM350.001 506.001l-144 90c-16.667 10.667 -27.5 19 -32.5 25s-7.5 13.333 -7.5 22c0 9.33301 3 17.333 9 24s13.333 10 22 10c14.667 0 33 -11 55 -33l138 -138h-40z" />
    <glyph glyph-name="uacute" unicode="&#xfa;" horiz-adv-x="603" 
d="M503 465l0.000976562 -362.999c0 -32 2 -51.833 6 -59.5s14.333 -11.834 31 -12.501l41 -3v-30c-46 2 -73.667 3 -83 3c-10.667 0 -38.334 -1 -83.001 -3c2.66699 42 4 72.667 4 92l-67 -62c-28 -26 -65.333 -39 -112 -39c-56 0 -95 15 -117 45c-16 22 -24 64 -24 126
v168c0 33.333 -2.33301 53.833 -7 61.5s-17 11.5 -37 11.5h-37v28c52 6 104 19.667 156 41l9 -4v-295c0 -44.667 7 -75 21 -91c16.667 -20 43 -30 79 -30c38 0 71 14 99 42c24.667 24.667 37 49 37 73v163c0 33.333 -2.33301 53.833 -7 61.5s-17 11.5 -37 11.5h-37v28
c52 6 104 19.667 156 41zM213.001 506.001l138 138c22 22 40.333 33 55 33c8.66699 0 16 -3.33301 22 -10s9 -14.667 9 -24c0 -8.66699 -2.5 -16 -7.5 -22s-15.833 -14.333 -32.5 -25l-144 -90h-40z" />
    <glyph glyph-name="ucircumflex" unicode="&#xfb;" horiz-adv-x="603" 
d="M503 465l0.000976562 -362.999c0 -32 2 -51.833 6 -59.5s14.333 -11.834 31 -12.501l41 -3v-30c-46 2 -73.667 3 -83 3c-10.667 0 -38.334 -1 -83.001 -3c2.66699 42 4 72.667 4 92l-67 -62c-28 -26 -65.333 -39 -112 -39c-56 0 -95 15 -117 45c-16 22 -24 64 -24 126
v168c0 33.333 -2.33301 53.833 -7 61.5s-17 11.5 -37 11.5h-37v28c52 6 104 19.667 156 41l9 -4v-295c0 -44.667 7 -75 21 -91c16.667 -20 43 -30 79 -30c38 0 71 14 99 42c24.667 24.667 37 49 37 73v163c0 33.333 -2.33301 53.833 -7 61.5s-17 11.5 -37 11.5h-37v28
c52 6 104 19.667 156 41zM271.001 677.001h62l125 -167h-35l-121 103l-121 -103h-35z" />
    <glyph glyph-name="udieresis" unicode="&#xfc;" horiz-adv-x="603" 
d="M503 465l0.000976562 -362.999c0 -32 2 -51.833 6 -59.5s14.333 -11.834 31 -12.501l41 -3v-30c-46 2 -73.667 3 -83 3c-10.667 0 -38.334 -1 -83.001 -3c2.66699 42 4 72.667 4 92l-67 -62c-28 -26 -65.333 -39 -112 -39c-56 0 -95 15 -117 45c-16 22 -24 64 -24 126
v168c0 33.333 -2.33301 53.833 -7 61.5s-17 11.5 -37 11.5h-37v28c52 6 104 19.667 156 41l9 -4v-295c0 -44.667 7 -75 21 -91c16.667 -20 43 -30 79 -30c38 0 71 14 99 42c24.667 24.667 37 49 37 73v163c0 33.333 -2.33301 53.833 -7 61.5s-17 11.5 -37 11.5h-37v28
c52 6 104 19.667 156 41zM203.001 637.001c14.667 0 26.501 -4.66699 35.501 -14s13.5 -21.333 13.5 -36c0 -15.333 -4.66699 -27.5 -14 -36.5s-21.333 -13.5 -36 -13.5s-26.667 4.5 -36 13.5s-14 21.167 -14 36.5s4.66699 27.5 14 36.5s21.666 13.5 36.999 13.5z
M402.002 637.001c14.667 0 26.501 -4.66699 35.501 -14s13.5 -21.333 13.5 -36c0 -15.333 -4.5 -27.5 -13.5 -36.5s-21.167 -13.5 -36.5 -13.5s-27.5 4.5 -36.5 13.5s-13.5 21.167 -13.5 36.5s4.66699 27.5 14 36.5s21.666 13.5 36.999 13.5z" />
    <glyph glyph-name="yacute" unicode="&#xfd;" horiz-adv-x="556" 
d="M297 86l118.997 292c4 10 6 18.667 6 26c0 14.667 -14 23 -42 25l-26 2v28c52.667 -2 84.334 -3 95.001 -3s42.334 1 95.001 3v-28l-28 -2c-12.667 -1.33301 -24.834 -10.5 -36.501 -27.5s-27.5 -48.167 -47.5 -93.5l-203 -468
c-19.333 -43.333 -40.5 -74.666 -63.5 -93.999s-51.167 -29 -84.5 -29c-17.333 0 -35.333 5 -54 15l24 75h13c17.333 -15.333 34.333 -23 51 -23c39.333 0 75.666 43.667 108.999 131l23 61c-11.333 32 -30 79.333 -56 142l-109 262
c-7.33301 17.333 -14.666 29.5 -21.999 36.5s-17.333 11.167 -30 12.5l-18 2v28c64.667 -2 103.334 -3 116.001 -3s51.334 1 116.001 3v-28l-38 -2c-22.667 -0.666992 -34 -8.33398 -34 -23.001c0 -9.33301 3.33301 -23.333 10 -42l64 -168
c14.667 -40 31.667 -76.667 51 -110zM189.997 506l138 138c22 22 40.333 33 55 33c8.66699 0 16 -3.33301 22 -10s9 -14.667 9 -24c0 -8.66699 -2.5 -16 -7.5 -22s-15.833 -14.333 -32.5 -25l-144 -90h-40z" />
    <glyph glyph-name="thorn" unicode="&#xfe;" horiz-adv-x="601" 
d="M0 661l0.00195312 28.001c66 10 118 22.333 156 37l9 -8v-349l55 56c29.333 29.333 70 44 122 44c56 0 103.667 -19.667 143 -59s59 -87 59 -143c0 -34.667 -7.83301 -70.334 -23.5 -107.001s-34.167 -62.667 -55.5 -78l-100 -72c-20.667 -14.667 -48 -22 -82 -22
c-36.667 0 -76 8.33301 -118 25v-189c0 -32 2 -51.833 6 -59.5s14.333 -11.834 31 -12.501l46 -3v-30c-66.667 2 -108.334 3 -125.001 3s-58.334 -1 -125.001 -3v30l46 3c16.667 0.666992 27 4.83398 31 12.501s6 27.5 6 59.5v796c0 27.333 -8.33301 41 -25 41h-56z
M165.002 306.001v-208c37.333 -39.333 82.333 -59 135 -59c48.667 0 87 17.167 115 51.5s42 80.833 42 139.5c0 54 -13.833 96.5 -41.5 127.5s-65.167 46.5 -112.5 46.5c-50.667 0 -90.667 -18.667 -120 -56c-12 -16 -18 -30 -18 -42z" />
    <glyph glyph-name="ydieresis" unicode="&#xff;" horiz-adv-x="556" 
d="M297 86l118.997 292c4 10 6 18.667 6 26c0 14.667 -14 23 -42 25l-26 2v28c52.667 -2 84.334 -3 95.001 -3s42.334 1 95.001 3v-28l-28 -2c-12.667 -1.33301 -24.834 -10.5 -36.501 -27.5s-27.5 -48.167 -47.5 -93.5l-203 -468
c-19.333 -43.333 -40.5 -74.666 -63.5 -93.999s-51.167 -29 -84.5 -29c-17.333 0 -35.333 5 -54 15l24 75h13c17.333 -15.333 34.333 -23 51 -23c39.333 0 75.666 43.667 108.999 131l23 61c-11.333 32 -30 79.333 -56 142l-109 262
c-7.33301 17.333 -14.666 29.5 -21.999 36.5s-17.333 11.167 -30 12.5l-18 2v28c64.667 -2 103.334 -3 116.001 -3s51.334 1 116.001 3v-28l-38 -2c-22.667 -0.666992 -34 -8.33398 -34 -23.001c0 -9.33301 3.33301 -23.333 10 -42l64 -168
c14.667 -40 31.667 -76.667 51 -110zM185.997 637c14.667 0 26.501 -4.66699 35.501 -14s13.5 -21.333 13.5 -36c0 -15.333 -4.5 -27.5 -13.5 -36.5s-21.167 -13.5 -36.5 -13.5s-27.5 4.5 -36.5 13.5s-13.5 21.167 -13.5 36.5s4.66699 27.5 14 36.5s21.666 13.5 36.999 13.5
zM384.998 637c14.667 0 26.501 -4.66699 35.501 -14s13.5 -21.333 13.5 -36c0 -15.333 -4.66699 -27.5 -14 -36.5s-21.333 -13.5 -36 -13.5s-26.667 4.5 -36 13.5s-14 21.167 -14 36.5s4.66699 27.5 14 36.5s21.666 13.5 36.999 13.5z" />
    <glyph glyph-name="Amacron" unicode="&#x100;" horiz-adv-x="778" 
d="M408 700l241.999 -568.001c18 -41.333 31.333 -68.166 40 -80.499s19.334 -19.5 32.001 -21.5l34 -3v-30c-72 2 -114.333 3 -127 3c-10.667 0 -57 -1 -139 -3v30l47 3c27.333 2 41 8.66699 41 20c0 8 -7 29.333 -21 64l-46 115h-288l-28 -67
c-23.333 -55.333 -35 -90.666 -35 -105.999c0 -14.667 16 -23.334 48 -26.001l37 -3v-30c-72 2 -112.333 3 -121 3c-10.667 0 -47 -1 -109 -3v30l37 3c23.333 2 41.333 18.333 54 49l178 405l53 121l39 95h32zM239.999 268.999h253l-126 298zM545.999 768.999h-312v53h312
v-53z" />
    <glyph glyph-name="amacron" unicode="&#x101;" 
d="M324 82l-124 -86c-7.33301 -5.33301 -21.333 -8 -42 -8c-39.333 0 -70.166 10.833 -92.499 32.5s-33.5 51.834 -33.5 90.501c0 43.333 15.167 77.5 45.5 102.5s79.5 43.833 147.5 56.5l99 18c-1.33301 45.333 -12.666 78 -33.999 98s-55.333 30 -102 30
c-23.333 0 -39.333 -3.16699 -48 -9.5s-18.334 -21.166 -29.001 -44.499l-13 -31l-26 7v65l53 32c37.333 22.667 77.666 34 120.999 34c58 0 98.833 -14.833 122.5 -44.5s35.5 -81.167 35.5 -154.5v-183c0 -24.667 1.66699 -40.334 5 -47.001s11 -10.334 23 -11.001l39 -2
v-30c-44 2 -68.667 3 -74 3c-8.66699 0 -34.667 -1 -78 -3zM324 124l-0.000976562 131.998c-78.667 -11.333 -130.667 -24.666 -156 -39.999c-33.333 -21.333 -50 -51.666 -50 -90.999c0 -21.333 7.5 -40 22.5 -56s32.5 -24 52.5 -24c19.333 0 42.333 8 69 24
s47.334 34.333 62.001 55zM406.999 537.998h-312v53h312v-53z" />
    <glyph glyph-name="Abreve" unicode="&#x102;" horiz-adv-x="778" 
d="M408 700l241.999 -568.001c18 -41.333 31.333 -68.166 40 -80.499s19.334 -19.5 32.001 -21.5l34 -3v-30c-72 2 -114.333 3 -127 3c-10.667 0 -57 -1 -139 -3v30l47 3c27.333 2 41 8.66699 41 20c0 8 -7 29.333 -21 64l-46 115h-288l-28 -67
c-23.333 -55.333 -35 -90.666 -35 -105.999c0 -14.667 16 -23.334 48 -26.001l37 -3v-30c-72 2 -112.333 3 -121 3c-10.667 0 -47 -1 -109 -3v30l37 3c23.333 2 41.333 18.333 54 49l178 405l53 121l39 95h32zM239.999 268.999h253l-126 298zM248.999 894.999h30
c1.33301 -28.667 12.5 -52.167 33.5 -70.5s46.833 -27.5 77.5 -27.5s56.5 9.16699 77.5 27.5s32.167 41.833 33.5 70.5h30c-2 -38 -10 -69 -24 -93c-24.667 -43.333 -63.667 -65 -117 -65c-56 0 -96.333 23.667 -121 71c-11.333 23.333 -18 52.333 -20 87z" />
    <glyph glyph-name="abreve" unicode="&#x103;" 
d="M324 82l-124 -86c-7.33301 -5.33301 -21.333 -8 -42 -8c-39.333 0 -70.166 10.833 -92.499 32.5s-33.5 51.834 -33.5 90.501c0 43.333 15.167 77.5 45.5 102.5s79.5 43.833 147.5 56.5l99 18c-1.33301 45.333 -12.666 78 -33.999 98s-55.333 30 -102 30
c-23.333 0 -39.333 -3.16699 -48 -9.5s-18.334 -21.166 -29.001 -44.499l-13 -31l-26 7v65l53 32c37.333 22.667 77.666 34 120.999 34c58 0 98.833 -14.833 122.5 -44.5s35.5 -81.167 35.5 -154.5v-183c0 -24.667 1.66699 -40.334 5 -47.001s11 -10.334 23 -11.001l39 -2
v-30c-44 2 -68.667 3 -74 3c-8.66699 0 -34.667 -1 -78 -3zM324 124l-0.000976562 131.998c-78.667 -11.333 -130.667 -24.666 -156 -39.999c-33.333 -21.333 -50 -51.666 -50 -90.999c0 -21.333 7.5 -40 22.5 -56s32.5 -24 52.5 -24c19.333 0 42.333 8 69 24
s47.334 34.333 62.001 55zM109.999 663.998h30c1.33301 -28.667 12.5 -52.167 33.5 -70.5s46.833 -27.5 77.5 -27.5s56.5 9.16699 77.5 27.5s32.167 41.833 33.5 70.5h30c-2 -38 -10 -69 -24 -93c-24.667 -43.333 -63.667 -65 -117 -65c-56 0 -96.333 23.667 -121 71
c-11.333 23.333 -18 52.333 -20 87z" />
    <glyph glyph-name="Aogonek" unicode="&#x104;" horiz-adv-x="778" 
d="M756 27l-0.00195312 -30.001c-5.33301 0.666992 -13 1 -23 1c-24.667 0 -45 -5.83301 -61 -17.5s-24 -26.167 -24 -43.5c0 -11.333 4 -21 12 -29s17.333 -12 28 -12c22.667 0 47.334 12 74.001 36l16 -21c-42.667 -37.333 -80 -56 -112 -56
c-18 0 -33.333 6.16699 -46 18.5s-19 27.5 -19 45.5c0 30.667 16.667 57.667 50 81h-24c-9.33301 0 -55 -1 -137 -3v30l47 3c27.333 2 41 8.66699 41 20c0 8 -7 29.333 -21 64l-46 115h-288l-28 -67c-23.333 -55.333 -35 -90.666 -35 -105.999
c0 -14.667 16 -23.334 48 -26.001l37 -3v-30c-72 2 -112.333 3 -121 3c-10.667 0 -47 -1 -109 -3v30l37 3c23.333 2 41.333 18.333 54 49l178 405l53 121l39 95h32l242 -568c18 -41.333 31.333 -68.166 40 -80.499s19.334 -19.5 32.001 -21.5zM239.998 268.999h253l-126 298
z" />
    <glyph glyph-name="aogonek" unicode="&#x105;" 
d="M471 27v-30.001c-2.66699 0.666992 -6.33398 1 -11.001 1c-13.333 0 -25 -6 -35 -18s-15 -26 -15 -42c0 -11.333 4 -21.166 12 -29.499s17.333 -12.5 28 -12.5c22.667 0 47.334 12 74.001 36l16 -21c-42.667 -37.333 -80 -56 -112 -56c-18 0 -33.333 6.16699 -46 18.5
s-19 27.5 -19 45.5c0 31.333 16.667 58.333 50 81h-6h-11c-8 0 -33.667 -1 -77 -3l5 85l-124 -86c-7.33301 -5.33301 -21.333 -8 -42 -8c-39.333 0 -70.166 10.833 -92.499 32.5s-33.5 51.834 -33.5 90.501c0 43.333 15.167 77.5 45.5 102.5s79.5 43.833 147.5 56.5l99 18
c-1.33301 45.333 -12.666 78 -33.999 98s-55.333 30 -102 30c-23.333 0 -39.333 -3.16699 -48 -9.5s-18.334 -21.166 -29.001 -44.499l-13 -31l-26 7v65l53 32c37.333 22.667 77.666 34 120.999 34c58 0 98.833 -14.833 122.5 -44.5s35.5 -81.167 35.5 -154.5v-183
c0 -24.667 1.66699 -40.334 5 -47.001s11 -10.334 23 -11.001zM324 123.999l-0.000976562 131.998c-78.667 -11.333 -130.667 -24.666 -156 -39.999c-33.333 -21.333 -50 -51.666 -50 -90.999c0 -21.333 7.5 -40 22.5 -56s32.5 -24 52.5 -24c19.333 0 42.333 8 69 24
s47.334 34.333 62.001 55z" />
    <glyph glyph-name="Cacute" unicode="&#x106;" horiz-adv-x="709" 
d="M670 84l-28.001 -49.999c-69.333 -36 -145 -54 -227 -54c-117.333 0 -212.166 33.333 -284.499 100s-108.5 154 -108.5 262c0 136.667 58 239 174 307c68.667 40 147.667 60 237 60c71.333 0 148.333 -13.667 231 -41c-12 -55.333 -18.333 -106 -19 -152h-31v72
c0 19.333 -20.833 37.333 -62.5 54s-87.167 25 -136.5 25c-86 0 -155.167 -28 -207.5 -84s-78.5 -130 -78.5 -222c0 -98.667 29.833 -177.834 89.5 -237.501s138.167 -89.5 235.5 -89.5c76 0 145 20 207 60zM325.999 737.001l138 138c22 22 40.333 33 55 33
c8.66699 0 16 -3.33301 22 -10s9 -14.667 9 -24c0 -8.66699 -2.5 -16 -7.5 -22s-15.833 -14.333 -32.5 -25l-144 -90h-40z" />
    <glyph glyph-name="cacute" unicode="&#x107;" horiz-adv-x="444" 
d="M399 311l-28.001 -0.000976562l-7 61c-9.33301 12.667 -24.5 23.334 -45.5 32.001s-42.5 13 -64.5 13c-44.667 0 -79.167 -14.5 -103.5 -43.5s-36.5 -70.167 -36.5 -123.5c0 -66 16.833 -118.833 50.5 -158.5s78.167 -59.5 133.5 -59.5c34 0 69 9.66699 105 29l10 -15
l-21 -32c-5.33301 -7.33301 -23 -14.833 -53 -22.5s-58 -11.5 -84 -11.5c-67.333 0 -122.333 21.5 -165 64.5s-64 98.167 -64 165.5c0 90 35.667 157.333 107 202c60 38 114.667 57 164 57c38.667 0 77.334 -11.667 116.001 -35c-9.33301 -37.333 -14 -78.333 -14 -123z
M219.999 505.999l138 138c22 22 40.333 33 55 33c8.66699 0 16 -3.33301 22 -10s9 -14.667 9 -24c0 -8.66699 -2.5 -16 -7.5 -22s-15.833 -14.333 -32.5 -25l-144 -90h-40z" />
    <glyph glyph-name="Ccircumflex" unicode="&#x108;" horiz-adv-x="709" 
d="M670 84l-28.001 -49.999c-69.333 -36 -145 -54 -227 -54c-117.333 0 -212.166 33.333 -284.499 100s-108.5 154 -108.5 262c0 136.667 58 239 174 307c68.667 40 147.667 60 237 60c71.333 0 148.333 -13.667 231 -41c-12 -55.333 -18.333 -106 -19 -152h-31v72
c0 19.333 -20.833 37.333 -62.5 54s-87.167 25 -136.5 25c-86 0 -155.167 -28 -207.5 -84s-78.5 -130 -78.5 -222c0 -98.667 29.833 -177.834 89.5 -237.501s138.167 -89.5 235.5 -89.5c76 0 145 20 207 60zM314.999 959.001h62l125 -167h-35l-121 103l-121 -103h-35z" />
    <glyph glyph-name="ccircumflex" unicode="&#x109;" horiz-adv-x="444" 
d="M399 311l-28.001 -0.000976562l-7 61c-9.33301 12.667 -24.5 23.334 -45.5 32.001s-42.5 13 -64.5 13c-44.667 0 -79.167 -14.5 -103.5 -43.5s-36.5 -70.167 -36.5 -123.5c0 -66 16.833 -118.833 50.5 -158.5s78.167 -59.5 133.5 -59.5c34 0 69 9.66699 105 29l10 -15
l-21 -32c-5.33301 -7.33301 -23 -14.833 -53 -22.5s-58 -11.5 -84 -11.5c-67.333 0 -122.333 21.5 -165 64.5s-64 98.167 -64 165.5c0 90 35.667 157.333 107 202c60 38 114.667 57 164 57c38.667 0 77.334 -11.667 116.001 -35c-9.33301 -37.333 -14 -78.333 -14 -123z
M188.999 735.999h62l125 -167h-35l-121 103l-121 -103h-35z" />
    <glyph glyph-name="Cdotaccent" unicode="&#x10a;" horiz-adv-x="709" 
d="M670 84l-28.001 -49.999c-69.333 -36 -145 -54 -227 -54c-117.333 0 -212.166 33.333 -284.499 100s-108.5 154 -108.5 262c0 136.667 58 239 174 307c68.667 40 147.667 60 237 60c71.333 0 148.333 -13.667 231 -41c-12 -55.333 -18.333 -106 -19 -152h-31v72
c0 19.333 -20.833 37.333 -62.5 54s-87.167 25 -136.5 25c-86 0 -155.167 -28 -207.5 -84s-78.5 -130 -78.5 -222c0 -98.667 29.833 -177.834 89.5 -237.501s138.167 -89.5 235.5 -89.5c76 0 145 20 207 60zM346.999 892.001c14.667 0 26.501 -4.66699 35.501 -14
s13.5 -21.333 13.5 -36c0 -15.333 -4.5 -27.5 -13.5 -36.5s-21.167 -13.5 -36.5 -13.5s-27.5 4.5 -36.5 13.5s-13.5 21.167 -13.5 36.5s4.66699 27.5 14 36.5s21.666 13.5 36.999 13.5z" />
    <glyph glyph-name="cdotaccent" unicode="&#x10b;" horiz-adv-x="444" 
d="M399 311l-28.001 -0.000976562l-7 61c-9.33301 12.667 -24.5 23.334 -45.5 32.001s-42.5 13 -64.5 13c-44.667 0 -79.167 -14.5 -103.5 -43.5s-36.5 -70.167 -36.5 -123.5c0 -66 16.833 -118.833 50.5 -158.5s78.167 -59.5 133.5 -59.5c34 0 69 9.66699 105 29l10 -15
l-21 -32c-5.33301 -7.33301 -23 -14.833 -53 -22.5s-58 -11.5 -84 -11.5c-67.333 0 -122.333 21.5 -165 64.5s-64 98.167 -64 165.5c0 90 35.667 157.333 107 202c60 38 114.667 57 164 57c38.667 0 77.334 -11.667 116.001 -35c-9.33301 -37.333 -14 -78.333 -14 -123z
M220.999 668.999c14.667 0 26.501 -4.66699 35.501 -14s13.5 -21.333 13.5 -36c0 -15.333 -4.5 -27.5 -13.5 -36.5s-21.167 -13.5 -36.5 -13.5s-27.5 4.5 -36.5 13.5s-13.5 21.167 -13.5 36.5s4.66699 27.5 14 36.5s21.666 13.5 36.999 13.5z" />
    <glyph glyph-name="Ccaron" unicode="&#x10c;" horiz-adv-x="709" 
d="M670 84l-28.001 -49.999c-69.333 -36 -145 -54 -227 -54c-117.333 0 -212.166 33.333 -284.499 100s-108.5 154 -108.5 262c0 136.667 58 239 174 307c68.667 40 147.667 60 237 60c71.333 0 148.333 -13.667 231 -41c-12 -55.333 -18.333 -106 -19 -152h-31v72
c0 19.333 -20.833 37.333 -62.5 54s-87.167 25 -136.5 25c-86 0 -155.167 -28 -207.5 -84s-78.5 -130 -78.5 -222c0 -98.667 29.833 -177.834 89.5 -237.501s138.167 -89.5 235.5 -89.5c76 0 145 20 207 60zM414.999 805.001l122 103h34l-125 -167h-62l-125 167h35z" />
    <glyph glyph-name="ccaron" unicode="&#x10d;" horiz-adv-x="444" 
d="M399 311l-28.001 -0.000976562l-7 61c-9.33301 12.667 -24.5 23.334 -45.5 32.001s-42.5 13 -64.5 13c-44.667 0 -79.167 -14.5 -103.5 -43.5s-36.5 -70.167 -36.5 -123.5c0 -66 16.833 -118.833 50.5 -158.5s78.167 -59.5 133.5 -59.5c34 0 69 9.66699 105 29l10 -15
l-21 -32c-5.33301 -7.33301 -23 -14.833 -53 -22.5s-58 -11.5 -84 -11.5c-67.333 0 -122.333 21.5 -165 64.5s-64 98.167 -64 165.5c0 90 35.667 157.333 107 202c60 38 114.667 57 164 57c38.667 0 77.334 -11.667 116.001 -35c-9.33301 -37.333 -14 -78.333 -14 -123z
M261.999 573.999l122 103h34l-125 -167h-62l-125 167h35z" />
    <glyph glyph-name="Dcaron" unicode="&#x10e;" horiz-adv-x="774" 
d="M57 20l31 16c16.667 8 25 27.667 25 59v474c0 39.333 -2.83301 63.833 -8.5 73.5s-19.834 15.167 -42.501 16.5l-40 3v30c114 -2 182.667 -3 206 -3c24 0 69.333 0.666992 136 2c12 0.666992 24.667 1 38 1c105.333 0 189.833 -28 253.5 -84s95.5 -130.333 95.5 -223
c0 -53.333 -10.333 -105.5 -31 -156.5s-49 -94.167 -85 -129.5c-68.667 -68 -166.667 -102 -294 -102c-9.33301 0 -40.333 0.666992 -93 2c-12 0.666992 -29.333 1 -52 1c-15.333 0 -61.666 -1 -138.999 -3v23zM208 644l0.000976562 -595
c23.333 -5.33301 57.666 -8 102.999 -8c56.667 0 102.167 4.83301 136.5 14.5s66.5 26.834 96.5 51.501c66.667 54.667 100 138.667 100 252c0 99.333 -23.667 172.666 -71 219.999c-19.333 19.333 -39 33 -59 41c-47.333 21.333 -112.333 32 -195 32
c-46 0 -83 -2.66699 -111 -8zM388.001 805l122 103h34l-125 -167h-62l-125 167h35z" />
    <glyph glyph-name="dcaron" unicode="&#x10f;" horiz-adv-x="671" 
d="M412 437l0.00195312 183.001c0 27.333 -8.33301 41 -25 41h-56v28c66 10 118 22.333 156 37l9 -8v-616c0 -32 2 -51.833 6 -59.5s14.333 -11.834 31 -12.501l46 -3v-30c-5.33301 0 -11.833 0.166992 -19.5 0.5s-13.834 0.666016 -18.501 0.999023s-8 0.5 -10 0.5
c-14 0.666992 -28.333 1 -43 1c-2 0 -27.667 -1 -77 -3l5 92l-111 -93c-6.66699 -5.33301 -22.667 -8 -48 -8c-64.667 0 -113.334 14 -146.001 42c-50.667 41.333 -76 103.333 -76 186c0 42.667 8.5 80.834 25.5 114.501s39.833 58.167 68.5 73.5l88 46
c24.667 12.667 50 19 76 19c29.333 0 69 -10.667 119 -32zM412.002 221.001l-0.00195312 128.999c0 8.66699 -11 20.334 -33 35.001c-36 24.667 -73.667 37 -113 37c-45.333 0 -80.666 -15.167 -105.999 -45.5s-38 -72.833 -38 -127.5
c0 -59.333 14.167 -108.166 42.5 -146.499s64.5 -57.5 108.5 -57.5c23.333 0 46.333 7.16699 69 21.5s41 33.166 55 56.499c6.66699 12 10.834 23.333 12.501 34s2.5 32 2.5 64zM561 514l-38.999 -22l-14 9c40.667 66.667 64 133.667 70 201l88 27l11 -12
c-28.667 -73.333 -67.334 -141 -116.001 -203z" />
    <glyph glyph-name="Dcroat" unicode="&#x110;" horiz-adv-x="774" 
d="M57 20l30.998 16c16.667 8 25 27.667 25 59v251h-99v36h99v187c0 39.333 -2.83301 63.833 -8.5 73.5s-19.834 15.167 -42.501 16.5l-40 3v30c112.667 -2 180 -3 202 -3c46.667 0 102.334 1 167.001 3h13c104 0 187.833 -27.833 251.5 -83.5s95.5 -129.167 95.5 -220.5
c0 -64.667 -14.167 -126.667 -42.5 -186s-65.833 -105 -112.5 -137c-65.333 -45.333 -147.333 -68 -246 -68c-6.66699 0 -27.667 0.333008 -63 1c-45.333 1.33301 -76.666 2 -93.999 2c-13.333 0 -58.666 -1 -135.999 -3v23zM207.998 644v-261.998h184v-36h-184v-297
c23.333 -5.33301 57.333 -8 102 -8c58.667 0 104.667 4.66699 138 14s65 26.666 95 51.999c67.333 57.333 101 142.333 101 255c0 111.333 -31.667 190.666 -95 237.999c-48 34.667 -124.667 52 -230 52c-46 0 -83 -2.66699 -111 -8z" />
    <glyph glyph-name="dcroat" unicode="&#x111;" horiz-adv-x="611" 
d="M412 555l-144.998 0.000976562v36h145v29c0 27.333 -8.33301 41 -25 41h-56v28c66 10 118 22.333 156 37l9 -8v-127h83v-36h-83v-453c0 -32 2 -51.833 6 -59.5s14.333 -11.834 31 -12.501l46 -3v-30c-5.33301 0 -11.833 0.166992 -19.5 0.5
s-13.834 0.666016 -18.501 0.999023s-8 0.5 -10 0.5c-14 0.666992 -28.333 1 -43 1c-2 0 -27.667 -1 -77 -3l5 92l-111 -93c-6.66699 -5.33301 -22.667 -8 -48 -8c-64.667 0 -113.334 14 -146.001 42c-50.667 41.333 -76 103.333 -76 186c0 42.667 8.5 80.834 25.5 114.501
s39.833 58.167 68.5 73.5l88 46c24.667 12.667 50 19 76 19c29.333 0 69 -10.667 119 -32v118zM412.002 221.001l-0.00195312 128.999c0 8.66699 -11 20.334 -33 35.001c-36 24.667 -73.667 37 -113 37c-45.333 0 -80.666 -15.167 -105.999 -45.5s-38 -72.833 -38 -127.5
c0 -59.333 14.167 -108.166 42.5 -146.499s64.5 -57.5 108.5 -57.5c23.333 0 46.333 7.16699 69 21.5s41 33.166 55 56.499c6.66699 12 10.834 23.333 12.501 34s2.5 32 2.5 64z" />
    <glyph glyph-name="Emacron" unicode="&#x112;" horiz-adv-x="611" 
d="M22 662l0.00195312 30.0029c99.333 -2 158.666 -3 177.999 -3c4.66699 0 49 0.666992 133 2c27.333 0.666992 60.333 1 99 1c33.333 0 74.666 -1 123.999 -3c-10.667 -42.667 -16 -93.334 -16 -152.001h-35v65c0 12 -1.5 20 -4.5 24s-10.5 7.33301 -22.5 10
c-33.333 9.33301 -81.666 14 -144.999 14c-54.667 0 -93.667 -2.66699 -117 -8v-267c34 -2 70.667 -3 110 -3c58 0 95.333 3.66699 112 11c4.66699 8.66699 7.33398 17.334 8.00098 26.001l5 52h30c-2 -66.667 -3 -105.334 -3 -116.001c0 -12 1 -49 3 -111h-30l-5 59l-8 25
c-16 8 -55.667 12 -119 12c-40.667 0 -75 -1 -103 -3v-280c26 -5.33301 59 -8 99 -8c98.667 0 160 4 184 12c15.333 5.33301 26.333 31.666 33 78.999c1.33301 4 3 15.333 5 34h35c-10.667 -55.333 -16 -110 -16 -164c-90.667 -2 -146.334 -3 -167.001 -3
c-14.667 0 -68.334 0.666992 -161.001 2c-25.333 0.666992 -49 1 -71 1c-16 0 -57 -1 -123 -3v30l36 3c23.333 2 37.666 7.66699 42.999 17s8 33.666 8 72.999v449c0 39.333 -2.66699 63.833 -8 73.5s-19.666 15.167 -42.999 16.5zM462.002 769.003h-312v53h312v-53z" />
    <glyph glyph-name="emacron" unicode="&#x113;" horiz-adv-x="479" 
d="M437 70l-20.001 -33.999c-5.33301 -8 -22.666 -18 -51.999 -30c-39.333 -17.333 -77.666 -26 -114.999 -26s-72 7.33301 -104 22s-58 35.334 -78 62.001c-28 39.333 -42 91 -42 155c0 52 9 94.667 27 128s47.333 61.666 88 84.999c42 24.667 82.333 37 121 37
c56 0 101 -17.333 135 -52s51 -80.667 51 -138c0 -4.66699 -0.666992 -16.334 -2 -35.001c-58.667 -9.33301 -119 -14 -181 -14h-146c2 -50 11.333 -89.667 28 -119c30 -52 79 -78 147 -78c21.333 0 40.166 3 56.499 9s40.833 18.667 73.5 38zM358.999 267.001
c-1.33301 33.333 -4.33203 59.001 -8.99902 77.001s-12.334 35.333 -23.001 52c-18 26.667 -43.667 40 -77 40c-24 0 -46 -6.33301 -66 -19s-35.333 -30 -46 -52c-11.333 -22.667 -17 -54.334 -17 -95.001c43.333 -4 85.333 -6 126 -6c22.667 0 60 1 112 3zM396 538.002
h-312v53h312v-53z" />
    <glyph glyph-name="Ebreve" unicode="&#x114;" horiz-adv-x="611" 
d="M22 662l0.00195312 30.0029c99.333 -2 158.666 -3 177.999 -3c4.66699 0 49 0.666992 133 2c27.333 0.666992 60.333 1 99 1c33.333 0 74.666 -1 123.999 -3c-10.667 -42.667 -16 -93.334 -16 -152.001h-35v65c0 12 -1.5 20 -4.5 24s-10.5 7.33301 -22.5 10
c-33.333 9.33301 -81.666 14 -144.999 14c-54.667 0 -93.667 -2.66699 -117 -8v-267c34 -2 70.667 -3 110 -3c58 0 95.333 3.66699 112 11c4.66699 8.66699 7.33398 17.334 8.00098 26.001l5 52h30c-2 -66.667 -3 -105.334 -3 -116.001c0 -12 1 -49 3 -111h-30l-5 59l-8 25
c-16 8 -55.667 12 -119 12c-40.667 0 -75 -1 -103 -3v-280c26 -5.33301 59 -8 99 -8c98.667 0 160 4 184 12c15.333 5.33301 26.333 31.666 33 78.999c1.33301 4 3 15.333 5 34h35c-10.667 -55.333 -16 -110 -16 -164c-90.667 -2 -146.334 -3 -167.001 -3
c-14.667 0 -68.334 0.666992 -161.001 2c-25.333 0.666992 -49 1 -71 1c-16 0 -57 -1 -123 -3v30l36 3c23.333 2 37.666 7.66699 42.999 17s8 33.666 8 72.999v449c0 39.333 -2.66699 63.833 -8 73.5s-19.666 15.167 -42.999 16.5zM156.002 950.003h30
c1.33301 -28.667 12.5 -52.167 33.5 -70.5s46.833 -27.5 77.5 -27.5s56.5 9.16699 77.5 27.5s32.167 41.833 33.5 70.5h30c-2 -38 -10 -69 -24 -93c-24.667 -43.333 -63.667 -65 -117 -65c-56 0 -96.333 23.667 -121 71c-11.333 23.333 -18 52.333 -20 87z" />
    <glyph glyph-name="ebreve" unicode="&#x115;" horiz-adv-x="479" 
d="M437 70l-20.001 -33.999c-5.33301 -8 -22.666 -18 -51.999 -30c-39.333 -17.333 -77.666 -26 -114.999 -26s-72 7.33301 -104 22s-58 35.334 -78 62.001c-28 39.333 -42 91 -42 155c0 52 9 94.667 27 128s47.333 61.666 88 84.999c42 24.667 82.333 37 121 37
c56 0 101 -17.333 135 -52s51 -80.667 51 -138c0 -4.66699 -0.666992 -16.334 -2 -35.001c-58.667 -9.33301 -119 -14 -181 -14h-146c2 -50 11.333 -89.667 28 -119c30 -52 79 -78 147 -78c21.333 0 40.166 3 56.499 9s40.833 18.667 73.5 38zM358.999 267.001
c-1.33301 33.333 -4.33203 59.001 -8.99902 77.001s-12.334 35.333 -23.001 52c-18 26.667 -43.667 40 -77 40c-24 0 -46 -6.33301 -66 -19s-35.333 -30 -46 -52c-11.333 -22.667 -17 -54.334 -17 -95.001c43.333 -4 85.333 -6 126 -6c22.667 0 60 1 112 3zM96 727.002h30
c1.33301 -28.667 12.5 -52.167 33.5 -70.5s46.833 -27.5 77.5 -27.5s56.5 9.16699 77.5 27.5s32.167 41.833 33.5 70.5h30c-2 -38 -10 -69 -24 -93c-24.667 -43.333 -63.667 -65 -117 -65c-56 0 -96.333 23.667 -121 71c-11.333 23.333 -18 52.333 -20 87z" />
    <glyph glyph-name="Edotaccent" unicode="&#x116;" horiz-adv-x="611" 
d="M22 662l0.00195312 30.0029c99.333 -2 158.666 -3 177.999 -3c4.66699 0 49 0.666992 133 2c27.333 0.666992 60.333 1 99 1c33.333 0 74.666 -1 123.999 -3c-10.667 -42.667 -16 -93.334 -16 -152.001h-35v65c0 12 -1.5 20 -4.5 24s-10.5 7.33301 -22.5 10
c-33.333 9.33301 -81.666 14 -144.999 14c-54.667 0 -93.667 -2.66699 -117 -8v-267c34 -2 70.667 -3 110 -3c58 0 95.333 3.66699 112 11c4.66699 8.66699 7.33398 17.334 8.00098 26.001l5 52h30c-2 -66.667 -3 -105.334 -3 -116.001c0 -12 1 -49 3 -111h-30l-5 59l-8 25
c-16 8 -55.667 12 -119 12c-40.667 0 -75 -1 -103 -3v-280c26 -5.33301 59 -8 99 -8c98.667 0 160 4 184 12c15.333 5.33301 26.333 31.666 33 78.999c1.33301 4 3 15.333 5 34h35c-10.667 -55.333 -16 -110 -16 -164c-90.667 -2 -146.334 -3 -167.001 -3
c-14.667 0 -68.334 0.666992 -161.001 2c-25.333 0.666992 -49 1 -71 1c-16 0 -57 -1 -123 -3v30l36 3c23.333 2 37.666 7.66699 42.999 17s8 33.666 8 72.999v449c0 39.333 -2.66699 63.833 -8 73.5s-19.666 15.167 -42.999 16.5zM306.002 868.003
c14.667 0 26.501 -4.66699 35.501 -14s13.5 -21.333 13.5 -36s-4.5 -26.667 -13.5 -36s-21.167 -14 -36.5 -14s-27.5 4.66699 -36.5 14s-13.5 21.333 -13.5 36c0 15.333 4.66699 27.5 14 36.5s21.666 13.5 36.999 13.5z" />
    <glyph glyph-name="edotaccent" unicode="&#x117;" horiz-adv-x="479" 
d="M437 70l-20.001 -33.999c-5.33301 -8 -22.666 -18 -51.999 -30c-39.333 -17.333 -77.666 -26 -114.999 -26s-72 7.33301 -104 22s-58 35.334 -78 62.001c-28 39.333 -42 91 -42 155c0 52 9 94.667 27 128s47.333 61.666 88 84.999c42 24.667 82.333 37 121 37
c56 0 101 -17.333 135 -52s51 -80.667 51 -138c0 -4.66699 -0.666992 -16.334 -2 -35.001c-58.667 -9.33301 -119 -14 -181 -14h-146c2 -50 11.333 -89.667 28 -119c30 -52 79 -78 147 -78c21.333 0 40.166 3 56.499 9s40.833 18.667 73.5 38zM358.999 267.001
c-1.33301 33.333 -4.33203 59.001 -8.99902 77.001s-12.334 35.333 -23.001 52c-18 26.667 -43.667 40 -77 40c-24 0 -46 -6.33301 -66 -19s-35.333 -30 -46 -52c-11.333 -22.667 -17 -54.334 -17 -95.001c43.333 -4 85.333 -6 126 -6c22.667 0 60 1 112 3zM240 637.002
c14.667 0 26.501 -4.66699 35.501 -14s13.5 -21.333 13.5 -36c0 -15.333 -4.5 -27.5 -13.5 -36.5s-21.167 -13.5 -36.5 -13.5s-27.5 4.5 -36.5 13.5s-13.5 21.167 -13.5 36.5s4.66699 27.5 14 36.5s21.666 13.5 36.999 13.5z" />
    <glyph glyph-name="Eogonek" unicode="&#x118;" horiz-adv-x="611" 
d="M537 164l35.002 0.00292969c-10.667 -55.333 -16 -110 -16 -164c-22.667 -1.33301 -40.834 -7.66602 -54.501 -18.999s-20.5 -26.333 -20.5 -45c0 -10.667 4 -20 12 -28s17.333 -12 28 -12c22 0 46.667 12 74 36l16 -21c-42.667 -37.333 -80 -56 -112 -56
c-18 0 -33.333 6.16699 -46 18.5s-19 27.5 -19 45.5c0 31.333 15.667 57.666 47 78.999h-11h-11c-16 -0.666992 -39 -1 -69 -1c-37.333 0 -91.333 0.666992 -162 2c-22.667 0.666992 -46.334 1 -71.001 1c-16.667 0 -57.667 -1 -123 -3v30l36 3
c23.333 2 37.666 7.66699 42.999 17s8 33.666 8 72.999v449c0 39.333 -2.66699 63.833 -8 73.5s-19.666 15.167 -42.999 16.5l-48 3v30c99.333 -2 158.666 -3 177.999 -3c4.66699 0 49 0.666992 133 2c27.333 0.666992 60.333 1 99 1c33.333 0 74.666 -1 123.999 -3
c-10.667 -42.667 -16 -93.334 -16 -152.001h-35v65c0 12 -1.5 20 -4.5 24s-10.5 7.33301 -22.5 10c-33.333 9.33301 -81.666 14 -144.999 14c-54.667 0 -93.667 -2.66699 -117 -8v-267c34 -2 70.667 -3 110 -3c58 0 95.333 3.66699 112 11
c4.66699 8.66699 7.33398 17.334 8.00098 26.001l5 52h30c-2 -66.667 -3 -105.334 -3 -116.001c0 -12 1 -49 3 -111h-30l-5 59l-8 25c-16 8 -55.667 12 -119 12c-40.667 0 -75 -1 -103 -3v-280c26 -5.33301 59 -8 99 -8c98.667 0 160 4 184 12
c15.333 5.33301 26.333 31.666 33 78.999c1.33301 4 3 15.333 5 34z" />
    <glyph glyph-name="eogonek" unicode="&#x119;" horiz-adv-x="479" 
d="M445 -68l16.001 -21.002c-42 -37.333 -79.333 -56 -112 -56c-18 0 -33.333 6.16699 -46 18.5s-19 27.5 -19 45.5c0 26.667 12 50.334 36 71.001c-23.333 -6.66699 -46.666 -10 -69.999 -10c-37.333 0 -72 7.33301 -104 22s-58 35.334 -78 62.001
c-28 38.667 -42 90.334 -42 155.001c0 52 9 94.667 27 128s47.333 61.666 88 84.999c42 24.667 82.333 37 121 37c56 0 101 -17.333 135 -52s51 -80.667 51 -138c0 -4.66699 -0.666992 -16.334 -2 -35.001c-58.667 -9.33301 -119 -14 -181 -14h-146
c2 -50 11.333 -89.667 28 -119c30 -52 79 -78 147 -78c21.333 0 40.166 3 56.499 9s40.833 18.667 73.5 38l13 -10l-20 -34c-0.666992 -1.33301 -11.334 -9.66602 -32.001 -24.999c-36 -27.333 -54 -52.333 -54 -75c0 -10.667 4 -20 12 -28s17.333 -12 28 -12
c23.333 0 48 12 74 36zM359.001 266.998c-1.33301 33.333 -4.33203 59.001 -8.99902 77.001s-12.334 35.333 -23.001 52c-18 26.667 -43.667 40 -77 40c-24 0 -46 -6.33301 -66 -19s-35.333 -30 -46 -52c-11.333 -22.667 -17 -54.334 -17 -95.001
c43.333 -4 85.333 -6 126 -6c22.667 0 60 1 112 3z" />
    <glyph glyph-name="Ecaron" unicode="&#x11a;" horiz-adv-x="611" 
d="M22 662l0.00195312 30.0029c99.333 -2 158.666 -3 177.999 -3c4.66699 0 49 0.666992 133 2c27.333 0.666992 60.333 1 99 1c33.333 0 74.666 -1 123.999 -3c-10.667 -42.667 -16 -93.334 -16 -152.001h-35v65c0 12 -1.5 20 -4.5 24s-10.5 7.33301 -22.5 10
c-33.333 9.33301 -81.666 14 -144.999 14c-54.667 0 -93.667 -2.66699 -117 -8v-267c34 -2 70.667 -3 110 -3c58 0 95.333 3.66699 112 11c4.66699 8.66699 7.33398 17.334 8.00098 26.001l5 52h30c-2 -66.667 -3 -105.334 -3 -116.001c0 -12 1 -49 3 -111h-30l-5 59l-8 25
c-16 8 -55.667 12 -119 12c-40.667 0 -75 -1 -103 -3v-280c26 -5.33301 59 -8 99 -8c98.667 0 160 4 184 12c15.333 5.33301 26.333 31.666 33 78.999c1.33301 4 3 15.333 5 34h35c-10.667 -55.333 -16 -110 -16 -164c-90.667 -2 -146.334 -3 -167.001 -3
c-14.667 0 -68.334 0.666992 -161.001 2c-25.333 0.666992 -49 1 -71 1c-16 0 -57 -1 -123 -3v30l36 3c23.333 2 37.666 7.66699 42.999 17s8 33.666 8 72.999v449c0 39.333 -2.66699 63.833 -8 73.5s-19.666 15.167 -42.999 16.5zM306.002 805.003l122 103h34l-125 -167
h-62l-125 167h35z" />
    <glyph glyph-name="ecaron" unicode="&#x11b;" horiz-adv-x="479" 
d="M437 70l-20.001 -33.999c-5.33301 -8 -22.666 -18 -51.999 -30c-39.333 -17.333 -77.666 -26 -114.999 -26s-72 7.33301 -104 22s-58 35.334 -78 62.001c-28 39.333 -42 91 -42 155c0 52 9 94.667 27 128s47.333 61.666 88 84.999c42 24.667 82.333 37 121 37
c56 0 101 -17.333 135 -52s51 -80.667 51 -138c0 -4.66699 -0.666992 -16.334 -2 -35.001c-58.667 -9.33301 -119 -14 -181 -14h-146c2 -50 11.333 -89.667 28 -119c30 -52 79 -78 147 -78c21.333 0 40.166 3 56.499 9s40.833 18.667 73.5 38zM358.999 267.001
c-1.33301 33.333 -4.33203 59.001 -8.99902 77.001s-12.334 35.333 -23.001 52c-18 26.667 -43.667 40 -77 40c-24 0 -46 -6.33301 -66 -19s-35.333 -30 -46 -52c-11.333 -22.667 -17 -54.334 -17 -95.001c43.333 -4 85.333 -6 126 -6c22.667 0 60 1 112 3zM240 574.002
l122 103h34l-125 -167h-62l-125 167h35z" />
    <glyph glyph-name="Gcircumflex" unicode="&#x11c;" horiz-adv-x="763" 
d="M641 516l0.00292969 53.001c0 18.667 -6.5 34.334 -19.5 47.001s-34.167 23.667 -63.5 33c-38 12 -82.667 18 -134 18c-93.333 0 -165.833 -26.667 -217.5 -80s-77.5 -128.333 -77.5 -225c0 -104 29.167 -186.667 87.5 -248s137.166 -92 236.499 -92
c33.333 0 63.166 3.16699 89.499 9.5s42.166 14.166 47.499 23.499c4 7.33301 6 21.666 6 42.999v101c0 12 -2.5 20.5 -7.5 25.5s-13.833 8.16699 -26.5 9.5l-83 7v30c58 -1.33301 98.667 -2 122 -2c22.667 0 63.667 0.666992 123 2l4 -25l-29 -10
c-5.33301 -2 -8.5 -4.83301 -9.5 -8.5s-1.5 -13.167 -1.5 -28.5v-168c-122 -34 -214 -51 -276 -51c-58 0 -112.667 9.5 -164 28.5s-94.333 45.833 -129 80.5c-64.667 62.667 -97 146.667 -97 252c0 110.667 39 199.667 117 267s181.667 101 311 101
c40 0 76.333 -2.83301 109 -8.5s77 -16.5 133 -32.5c-13.333 -51.333 -20 -102 -20 -152h-31zM344.003 959.001h62l125 -167h-35l-121 103l-121 -103h-35z" />
    <glyph glyph-name="gcircumflex" unicode="&#x11d;" horiz-adv-x="556" 
d="M519 378h-92.001c7.33301 -19.333 11 -37.333 11 -54c0 -51.333 -22.333 -93.333 -67 -126c-45.333 -32 -91 -48 -137 -48c-2.66699 0 -10.667 0.666992 -24 2c-4 -4 -8 -7.66699 -12 -11c-22.667 -19.333 -34 -34.666 -34 -45.999c0 -26 25.333 -39 76 -39h160
c34.667 0 63 -11.333 85 -34s33 -52 33 -88c0 -60.667 -26.167 -112 -78.5 -154s-116.166 -63 -191.499 -63c-63.333 0 -115.166 14.333 -155.499 43s-60.5 65.667 -60.5 111c0 15.333 2.83301 30.833 8.5 46.5s12.167 25.5 19.5 29.5l87 47c-24 6.66699 -41 14.5 -51 23.5
s-15 20.5 -15 34.5c0 13.333 5 27.666 15 42.999l79 61c-36.667 4 -65.834 17.833 -87.501 41.5s-32.5 54.167 -32.5 91.5c0 62 28.333 109.333 85 142c43.333 25.333 88.666 38 135.999 38c46.667 0 87.334 -14 122.001 -42l142 4l4 -12zM239.999 435
c-32 0 -56.833 -10.667 -74.5 -32s-26.5 -51.333 -26.5 -90s10.333 -69.834 31 -93.501s47.667 -35.5 81 -35.5c30.667 0 55.5 10.167 74.5 30.5s28.5 46.833 28.5 79.5c0 42.667 -10.5 76.834 -31.5 102.501s-48.5 38.5 -82.5 38.5zM286.999 -14
c-62 0 -99.666 -3.33203 -112.999 -9.99902c-20 -8.66699 -36 -22.334 -48 -41.001s-18 -39.334 -18 -62.001c0 -36.667 13.667 -66.667 41 -90s62.666 -35 105.999 -35c52.667 0 96.5 14.333 131.5 43s52.5 64.334 52.5 107.001c0 32.667 -11.167 55.5 -33.5 68.5
s-61.833 19.5 -118.5 19.5zM257 736.001h62l125 -167h-35l-121 103l-121 -103h-35z" />
    <glyph glyph-name="Gbreve" unicode="&#x11e;" horiz-adv-x="763" 
d="M641 516l0.00292969 53.001c0 18.667 -6.5 34.334 -19.5 47.001s-34.167 23.667 -63.5 33c-38 12 -82.667 18 -134 18c-93.333 0 -165.833 -26.667 -217.5 -80s-77.5 -128.333 -77.5 -225c0 -104 29.167 -186.667 87.5 -248s137.166 -92 236.499 -92
c33.333 0 63.166 3.16699 89.499 9.5s42.166 14.166 47.499 23.499c4 7.33301 6 21.666 6 42.999v101c0 12 -2.5 20.5 -7.5 25.5s-13.833 8.16699 -26.5 9.5l-83 7v30c58 -1.33301 98.667 -2 122 -2c22.667 0 63.667 0.666992 123 2l4 -25l-29 -10
c-5.33301 -2 -8.5 -4.83301 -9.5 -8.5s-1.5 -13.167 -1.5 -28.5v-168c-122 -34 -214 -51 -276 -51c-58 0 -112.667 9.5 -164 28.5s-94.333 45.833 -129 80.5c-64.667 62.667 -97 146.667 -97 252c0 110.667 39 199.667 117 267s181.667 101 311 101
c40 0 76.333 -2.83301 109 -8.5s77 -16.5 133 -32.5c-13.333 -51.333 -20 -102 -20 -152h-31zM281.003 895.001h30c1.33301 -28.667 12.5 -52.167 33.5 -70.5s46.833 -27.5 77.5 -27.5s56.5 9.16699 77.5 27.5s32.167 41.833 33.5 70.5h30c-2 -38 -10 -69 -24 -93
c-24.667 -43.333 -63.667 -65 -117 -65c-56 0 -96.333 23.667 -121 71c-11.333 23.333 -18 52.333 -20 87z" />
    <glyph glyph-name="gbreve" unicode="&#x11f;" horiz-adv-x="556" 
d="M519 378h-92.001c7.33301 -19.333 11 -37.333 11 -54c0 -51.333 -22.333 -93.333 -67 -126c-45.333 -32 -91 -48 -137 -48c-2.66699 0 -10.667 0.666992 -24 2c-4 -4 -8 -7.66699 -12 -11c-22.667 -19.333 -34 -34.666 -34 -45.999c0 -26 25.333 -39 76 -39h160
c34.667 0 63 -11.333 85 -34s33 -52 33 -88c0 -60.667 -26.167 -112 -78.5 -154s-116.166 -63 -191.499 -63c-63.333 0 -115.166 14.333 -155.499 43s-60.5 65.667 -60.5 111c0 15.333 2.83301 30.833 8.5 46.5s12.167 25.5 19.5 29.5l87 47c-24 6.66699 -41 14.5 -51 23.5
s-15 20.5 -15 34.5c0 13.333 5 27.666 15 42.999l79 61c-36.667 4 -65.834 17.833 -87.501 41.5s-32.5 54.167 -32.5 91.5c0 62 28.333 109.333 85 142c43.333 25.333 88.666 38 135.999 38c46.667 0 87.334 -14 122.001 -42l142 4l4 -12zM239.999 435
c-32 0 -56.833 -10.667 -74.5 -32s-26.5 -51.333 -26.5 -90s10.333 -69.834 31 -93.501s47.667 -35.5 81 -35.5c30.667 0 55.5 10.167 74.5 30.5s28.5 46.833 28.5 79.5c0 42.667 -10.5 76.834 -31.5 102.501s-48.5 38.5 -82.5 38.5zM286.999 -14
c-62 0 -99.666 -3.33203 -112.999 -9.99902c-20 -8.66699 -36 -22.334 -48 -41.001s-18 -39.334 -18 -62.001c0 -36.667 13.667 -66.667 41 -90s62.666 -35 105.999 -35c52.667 0 96.5 14.333 131.5 43s52.5 64.334 52.5 107.001c0 32.667 -11.167 55.5 -33.5 68.5
s-61.833 19.5 -118.5 19.5zM138 664.001h30c1.33301 -28.667 12.5 -52.167 33.5 -70.5s46.833 -27.5 77.5 -27.5s56.5 9.16699 77.5 27.5s32.167 41.833 33.5 70.5h30c-2 -38 -10 -69 -24 -93c-24.667 -43.333 -63.667 -65 -117 -65c-56 0 -96.333 23.667 -121 71
c-11.333 23.333 -18 52.333 -20 87z" />
    <glyph glyph-name="Gdotaccent" unicode="&#x120;" horiz-adv-x="763" 
d="M641 516l0.00292969 53.001c0 18.667 -6.5 34.334 -19.5 47.001s-34.167 23.667 -63.5 33c-38 12 -82.667 18 -134 18c-93.333 0 -165.833 -26.667 -217.5 -80s-77.5 -128.333 -77.5 -225c0 -104 29.167 -186.667 87.5 -248s137.166 -92 236.499 -92
c33.333 0 63.166 3.16699 89.499 9.5s42.166 14.166 47.499 23.499c4 7.33301 6 21.666 6 42.999v101c0 12 -2.5 20.5 -7.5 25.5s-13.833 8.16699 -26.5 9.5l-83 7v30c58 -1.33301 98.667 -2 122 -2c22.667 0 63.667 0.666992 123 2l4 -25l-29 -10
c-5.33301 -2 -8.5 -4.83301 -9.5 -8.5s-1.5 -13.167 -1.5 -28.5v-168c-122 -34 -214 -51 -276 -51c-58 0 -112.667 9.5 -164 28.5s-94.333 45.833 -129 80.5c-64.667 62.667 -97 146.667 -97 252c0 110.667 39 199.667 117 267s181.667 101 311 101
c40 0 76.333 -2.83301 109 -8.5s77 -16.5 133 -32.5c-13.333 -51.333 -20 -102 -20 -152h-31zM376.003 892.001c14.667 0 26.501 -4.66699 35.501 -14s13.5 -21.333 13.5 -36c0 -15.333 -4.5 -27.5 -13.5 -36.5s-21.167 -13.5 -36.5 -13.5s-27.5 4.5 -36.5 13.5
s-13.5 21.167 -13.5 36.5s4.66699 27.5 14 36.5s21.666 13.5 36.999 13.5z" />
    <glyph glyph-name="gdotaccent" unicode="&#x121;" horiz-adv-x="556" 
d="M519 378h-92.001c7.33301 -19.333 11 -37.333 11 -54c0 -51.333 -22.333 -93.333 -67 -126c-45.333 -32 -91 -48 -137 -48c-2.66699 0 -10.667 0.666992 -24 2c-4 -4 -8 -7.66699 -12 -11c-22.667 -19.333 -34 -34.666 -34 -45.999c0 -26 25.333 -39 76 -39h160
c34.667 0 63 -11.333 85 -34s33 -52 33 -88c0 -60.667 -26.167 -112 -78.5 -154s-116.166 -63 -191.499 -63c-63.333 0 -115.166 14.333 -155.499 43s-60.5 65.667 -60.5 111c0 15.333 2.83301 30.833 8.5 46.5s12.167 25.5 19.5 29.5l87 47c-24 6.66699 -41 14.5 -51 23.5
s-15 20.5 -15 34.5c0 13.333 5 27.666 15 42.999l79 61c-36.667 4 -65.834 17.833 -87.501 41.5s-32.5 54.167 -32.5 91.5c0 62 28.333 109.333 85 142c43.333 25.333 88.666 38 135.999 38c46.667 0 87.334 -14 122.001 -42l142 4l4 -12zM239.999 435
c-32 0 -56.833 -10.667 -74.5 -32s-26.5 -51.333 -26.5 -90s10.333 -69.834 31 -93.501s47.667 -35.5 81 -35.5c30.667 0 55.5 10.167 74.5 30.5s28.5 46.833 28.5 79.5c0 42.667 -10.5 76.834 -31.5 102.501s-48.5 38.5 -82.5 38.5zM286.999 -14
c-62 0 -99.666 -3.33203 -112.999 -9.99902c-20 -8.66699 -36 -22.334 -48 -41.001s-18 -39.334 -18 -62.001c0 -36.667 13.667 -66.667 41 -90s62.666 -35 105.999 -35c52.667 0 96.5 14.333 131.5 43s52.5 64.334 52.5 107.001c0 32.667 -11.167 55.5 -33.5 68.5
s-61.833 19.5 -118.5 19.5zM289 669.001c14.667 0 26.501 -4.66699 35.501 -14s13.5 -21.333 13.5 -36c0 -15.333 -4.5 -27.5 -13.5 -36.5s-21.167 -13.5 -36.5 -13.5s-27.5 4.5 -36.5 13.5s-13.5 21.167 -13.5 36.5s4.66699 27.5 14 36.5s21.666 13.5 36.999 13.5z" />
    <glyph glyph-name="Gcommaaccent" unicode="&#x122;" horiz-adv-x="763" 
d="M641 516l0.00292969 53.001c0 18.667 -6.5 34.334 -19.5 47.001s-34.167 23.667 -63.5 33c-38 12 -82.667 18 -134 18c-93.333 0 -165.833 -26.667 -217.5 -80s-77.5 -128.333 -77.5 -225c0 -104 29.167 -186.667 87.5 -248s137.166 -92 236.499 -92
c33.333 0 63.166 3.16699 89.499 9.5s42.166 14.166 47.499 23.499c4 7.33301 6 21.666 6 42.999v101c0 12 -2.5 20.5 -7.5 25.5s-13.833 8.16699 -26.5 9.5l-83 7v30c58 -1.33301 98.667 -2 122 -2c22.667 0 63.667 0.666992 123 2l4 -25l-29 -10
c-5.33301 -2 -8.5 -4.83301 -9.5 -8.5s-1.5 -13.167 -1.5 -28.5v-168c-122 -34 -214 -51 -276 -51c-58 0 -112.667 9.5 -164 28.5s-94.333 45.833 -129 80.5c-64.667 62.667 -97 146.667 -97 252c0 110.667 39 199.667 117 267s181.667 101 311 101
c40 0 76.333 -2.83301 109 -8.5s77 -16.5 133 -32.5c-13.333 -51.333 -20 -102 -20 -152h-31zM322.003 -252.999l-38.999 -21l-14 9c40.667 66 64 133 70 201c27.333 7.33301 56.666 16.333 87.999 27l11 -12c-28 -72 -66.667 -140 -116 -204z" />
    <glyph glyph-name="gcommaaccent" unicode="&#x123;" horiz-adv-x="556" 
d="M519 378h-92.001c7.33301 -19.333 11 -37.333 11 -54c0 -51.333 -22.333 -93.333 -67 -126c-45.333 -32 -91 -48 -137 -48c-2.66699 0 -10.667 0.666992 -24 2c-4 -4 -8 -7.66699 -12 -11c-22.667 -19.333 -34 -34.666 -34 -45.999c0 -26 25.333 -39 76 -39h160
c34.667 0 63 -11.333 85 -34s33 -52 33 -88c0 -60.667 -26.167 -112 -78.5 -154s-116.166 -63 -191.499 -63c-63.333 0 -115.166 14.333 -155.499 43s-60.5 65.667 -60.5 111c0 15.333 2.83301 30.833 8.5 46.5s12.167 25.5 19.5 29.5l87 47c-24 6.66699 -41 14.5 -51 23.5
s-15 20.5 -15 34.5c0 13.333 5 27.666 15 42.999l79 61c-36.667 4 -65.834 17.833 -87.501 41.5s-32.5 54.167 -32.5 91.5c0 62 28.333 109.333 85 142c43.333 25.333 88.666 38 135.999 38c46.667 0 87.334 -14 122.001 -42l142 4l4 -12zM239.999 435
c-32 0 -56.833 -10.667 -74.5 -32s-26.5 -51.333 -26.5 -90s10.333 -69.834 31 -93.501s47.667 -35.5 81 -35.5c30.667 0 55.5 10.167 74.5 30.5s28.5 46.833 28.5 79.5c0 42.667 -10.5 76.834 -31.5 102.501s-48.5 38.5 -82.5 38.5zM286.999 -14
c-62 0 -99.666 -3.33203 -112.999 -9.99902c-20 -8.66699 -36 -22.334 -48 -41.001s-18 -39.334 -18 -62.001c0 -36.667 13.667 -66.667 41 -90s62.666 -35 105.999 -35c52.667 0 96.5 14.333 131.5 43s52.5 64.334 52.5 107.001c0 32.667 -11.167 55.5 -33.5 68.5
s-61.833 19.5 -118.5 19.5zM309 714.001l39.999 21.999l13 -9c-40.667 -66 -64 -133 -70 -201c-32 -8.66699 -61 -17.667 -87 -27l-12 12c28.667 72.667 67.334 140.334 116.001 203.001z" />
    <glyph glyph-name="Hcircumflex" unicode="&#x124;" horiz-adv-x="832" 
d="M616 120v223c-18 1.33301 -45.667 2 -83 2h-234c-37.333 0 -65 -0.666992 -83 -2v-223c0 -39.333 2.66699 -63.833 8 -73.5s19.666 -15.167 42.999 -16.5l48 -3v-30c-59.333 2 -108.333 3 -147 3s-87.334 -1 -146.001 -3v30l48 3
c23.333 1.33301 37.666 6.83301 42.999 16.5s8 34.167 8 73.5v449c0 39.333 -2.66699 63.833 -8 73.5s-19.666 15.167 -42.999 16.5l-48 3v30c72 -2 120.667 -3 146 -3c49.333 0 98.333 1 147 3v-30l-48 -3c-23.333 -1.33301 -37.666 -6.83301 -42.999 -16.5
s-8 -34.167 -8 -73.5v-178c26.667 -1.33301 54.334 -2 83.001 -2h234c27.333 0 55 0.666992 83 2v178c0 39.333 -2.66699 63.833 -8 73.5s-19.666 15.167 -42.999 16.5l-48 3v30c72 -2 120.667 -3 146 -3c49.333 0 98.333 1 147 3v-30l-48 -3
c-23.333 -1.33301 -37.666 -6.83301 -42.999 -16.5s-8 -34.167 -8 -73.5v-449c0 -39.333 2.66699 -63.833 8 -73.5s19.666 -15.167 42.999 -16.5l48 -3v-30c-58.667 2 -107.667 3 -147 3c-38 0 -86.667 -1 -146 -3v30l48 3c23.333 1.33301 37.666 6.83301 42.999 16.5
s8 34.167 8 73.5zM385 959h62l125 -167h-35l-121 103l-121 -103h-35z" />
    <glyph glyph-name="hcircumflex" unicode="&#x125;" horiz-adv-x="582" 
d="M7 661v28.001c66 10 118 22.333 156 37l9 -8v-340l76 66c19.333 16.667 45.666 25 78.999 25c111.333 0 167 -58 167 -174v-193c0 -32 2 -51.833 6 -59.5s14.333 -11.834 31 -12.501l41 -3v-30c-46 2 -73.667 3 -83 3c-12 0 -38.333 -1 -79 -3v284
c0 38.667 -10.167 69.5 -30.5 92.5s-47.166 34.5 -80.499 34.5c-30.667 0 -59.5 -10 -86.5 -30s-40.5 -41.333 -40.5 -64v-212c0 -32 2 -51.833 6 -59.5s14.333 -11.834 31 -12.501l45 -3v-30c-68 2 -109.333 3 -124 3s-56 -1 -124 -3v30l45 3
c16.667 0.666992 27 4.83398 31 12.501s6 27.5 6 59.5v518c0 27.333 -8.33301 41 -25 41h-56zM258 993.001h62l125 -167h-35l-121 103l-121 -103h-35z" />
    <glyph glyph-name="Hbar" unicode="&#x126;" horiz-adv-x="832" 
d="M711 557h92v-53h-92v-384c0 -39.333 2.66699 -63.833 8 -73.5s19.666 -15.167 42.999 -16.5l48 -3v-30c-58.667 2 -107.667 3 -147 3c-38 0 -86.667 -1 -146 -3v30l48 3c23.333 1.33301 37.666 6.83301 42.999 16.5s8 34.167 8 73.5v223c-18 1.33301 -45.667 2 -83 2
h-234c-37.333 0 -65 -0.666992 -83 -2v-223c0 -39.333 2.66699 -63.833 8 -73.5s19.666 -15.167 42.999 -16.5l48 -3l-1 -30c-58.667 2 -107.667 3 -147 3c-38 0 -86.667 -1 -146 -3v30l48 3c23.333 1.33301 37.666 6.83301 42.999 16.5s8 34.167 8 73.5v384h-87v53h88v12
c0 39.333 -2.66699 63.833 -8 73.5s-19.666 15.167 -42.999 16.5l-48 3v30c72 -2 120.667 -3 146 -3c49.333 0 98.333 1 147 3v-30l-48 -3c-23.333 -1.33301 -37.666 -6.83301 -42.999 -16.5s-8 -34.167 -8 -73.5v-12h400v12c0 39.333 -2.66699 63.833 -8 73.5
s-19.666 15.167 -42.999 16.5l-48 3v30c72 -2 120.667 -3 146 -3c49.333 0 98.333 1 147 3v-30l-48 -3c-23.333 -1.33301 -37.666 -6.83301 -42.999 -16.5s-8 -34.167 -8 -73.5v-12zM616 504h-400.001v-113c26.667 -1.33301 54.334 -2 83.001 -2h234
c27.333 0 55 0.666992 83 2v113z" />
    <glyph glyph-name="hbar" unicode="&#x127;" horiz-adv-x="582" 
d="M7 661v28.001c66 10 118 22.333 156 37l9 -8v-340l76 66c19.333 16.667 45.666 25 78.999 25c111.333 0 167 -58 167 -174v-193c0 -32 2 -51.833 6 -59.5s14.333 -11.834 31 -12.501l41 -3v-30c-46 2 -73.667 3 -83 3c-12 0 -38.333 -1 -79 -3v284
c0 38.667 -10.167 69.5 -30.5 92.5s-47.166 34.5 -80.499 34.5c-30.667 0 -59.5 -10 -86.5 -30s-40.5 -41.333 -40.5 -64v-212c0 -32 2 -51.833 6 -59.5s14.333 -11.834 31 -12.501l45 -3v-30c-68 2 -109.333 3 -124 3s-56 -1 -124 -3v30l45 3
c16.667 0.666992 27 4.83398 31 12.501s6 27.5 6 59.5v518c0 27.333 -8.33301 41 -25 41h-56z" />
    <glyph glyph-name="Itilde" unicode="&#x128;" horiz-adv-x="337" 
d="M216 569l0.000976562 -449c0 -39.333 2.66699 -63.833 8 -73.5s19.666 -15.167 42.999 -16.5l48 -3v-30c-59.333 2 -108.333 3 -147 3s-87.334 -1 -146.001 -3v30l48 3c23.333 1.33301 37.666 6.83301 42.999 16.5s8 34.167 8 73.5v449c0 39.333 -2.66699 63.833 -8 73.5
s-19.666 15.167 -42.999 16.5l-48 3v30c72 -2 120.667 -3 146 -3c49.333 0 98.333 1 147 3v-30l-48 -3c-23.333 -1.33301 -37.666 -6.83301 -42.999 -16.5s-8 -34.167 -8 -73.5zM305.001 897l29 -0.000976562c-2 -29.333 -13.5 -54.166 -34.5 -74.499
s-45.833 -30.5 -74.5 -30.5c-18 0 -40.667 6.33301 -68 19c-34 17.333 -57.667 26 -71 26c-22.667 0 -40.334 -15 -53.001 -45h-29c14.667 66.667 50 100 106 100c18.667 0 48.334 -10 89.001 -30c22 -10 37.667 -15 47 -15c26 0 45.667 16.667 59 50z" />
    <glyph glyph-name="itilde" unicode="&#x129;" horiz-adv-x="287" 
d="M188 465l0.00195312 -363c0 -32 2 -51.833 6 -59.5s14.333 -11.834 31 -12.501l46 -3v-30c-66.667 2 -108.334 3 -125.001 3s-58.334 -1 -125.001 -3v30l46 3c16.667 0.666992 27 4.83398 31 12.501s6 27.5 6 59.5v225c0 33.333 -2.33301 53.833 -7 61.5
s-17 11.5 -37 11.5h-37v28c52 6 104 19.667 156 41zM282.002 674l29 -0.000976562c-2 -29.333 -13.5 -54.166 -34.5 -74.499s-45.833 -30.5 -74.5 -30.5c-18 0 -40.667 6.33301 -68 19c-34 17.333 -57.667 26 -71 26c-22.667 0 -40.334 -15 -53.001 -45h-29
c14.667 66.667 50 100 106 100c18.667 0 48.334 -10 89.001 -30c22 -10 37.667 -15 47 -15c26 0 45.667 16.667 59 50z" />
    <glyph glyph-name="Imacron" unicode="&#x12a;" horiz-adv-x="337" 
d="M216 569l0.000976562 -449c0 -39.333 2.66699 -63.833 8 -73.5s19.666 -15.167 42.999 -16.5l48 -3v-30c-59.333 2 -108.333 3 -147 3s-87.334 -1 -146.001 -3v30l48 3c23.333 1.33301 37.666 6.83301 42.999 16.5s8 34.167 8 73.5v449c0 39.333 -2.66699 63.833 -8 73.5
s-19.666 15.167 -42.999 16.5l-48 3v30c72 -2 120.667 -3 146 -3c49.333 0 98.333 1 147 3v-30l-48 -3c-23.333 -1.33301 -37.666 -6.83301 -42.999 -16.5s-8 -34.167 -8 -73.5zM325.001 769h-312v53h312v-53z" />
    <glyph glyph-name="imacron" unicode="&#x12b;" horiz-adv-x="287" 
d="M188 465l0.00195312 -363c0 -32 2 -51.833 6 -59.5s14.333 -11.834 31 -12.501l46 -3v-30c-66.667 2 -108.334 3 -125.001 3s-58.334 -1 -125.001 -3v30l46 3c16.667 0.666992 27 4.83398 31 12.501s6 27.5 6 59.5v225c0 33.333 -2.33301 53.833 -7 61.5
s-17 11.5 -37 11.5h-37v28c52 6 104 19.667 156 41zM300.002 538h-312v53h312v-53z" />
    <glyph glyph-name="Ibreve" unicode="&#x12c;" horiz-adv-x="337" 
d="M216 569l0.000976562 -449c0 -39.333 2.66699 -63.833 8 -73.5s19.666 -15.167 42.999 -16.5l48 -3v-30c-59.333 2 -108.333 3 -147 3s-87.334 -1 -146.001 -3v30l48 3c23.333 1.33301 37.666 6.83301 42.999 16.5s8 34.167 8 73.5v449c0 39.333 -2.66699 63.833 -8 73.5
s-19.666 15.167 -42.999 16.5l-48 3v30c72 -2 120.667 -3 146 -3c49.333 0 98.333 1 147 3v-30l-48 -3c-23.333 -1.33301 -37.666 -6.83301 -42.999 -16.5s-8 -34.167 -8 -73.5zM28.001 950h30c1.33301 -28.667 12.5 -52.167 33.5 -70.5s46.833 -27.5 77.5 -27.5
s56.5 9.16699 77.5 27.5s32.167 41.833 33.5 70.5h30c-2 -38 -10 -69 -24 -93c-24.667 -43.333 -63.667 -65 -117 -65c-56 0 -96.333 23.667 -121 71c-11.333 23.333 -18 52.333 -20 87z" />
    <glyph glyph-name="ibreve" unicode="&#x12d;" horiz-adv-x="287" 
d="M188 465l0.00195312 -363c0 -32 2 -51.833 6 -59.5s14.333 -11.834 31 -12.501l46 -3v-30c-66.667 2 -108.334 3 -125.001 3s-58.334 -1 -125.001 -3v30l46 3c16.667 0.666992 27 4.83398 31 12.501s6 27.5 6 59.5v225c0 33.333 -2.33301 53.833 -7 61.5
s-17 11.5 -37 11.5h-37v28c52 6 104 19.667 156 41zM5.00195 727h30c1.33301 -28.667 12.5 -52.167 33.5 -70.5s46.833 -27.5 77.5 -27.5s56.5 9.16699 77.5 27.5s32.167 41.833 33.5 70.5h30c-2 -38 -10 -69 -24 -93c-24.667 -43.333 -63.667 -65 -117 -65
c-56 0 -96.333 23.667 -121 71c-11.333 23.333 -18 52.333 -20 87z" />
    <glyph glyph-name="Iogonek" unicode="&#x12e;" horiz-adv-x="337" 
d="M315 27v-29.999c-12.667 1.33301 -24.667 2 -36 2c-21.333 0 -38.666 -5.83301 -51.999 -17.5s-20 -26.834 -20 -45.501c0 -10.667 4 -20 12 -28s17.333 -12 28 -12c22 0 46.667 12 74 36l16 -21c-42.667 -37.333 -80 -56 -112 -56c-18 0 -33.333 6.16699 -46 18.5
s-19 27.5 -19 45.5c0 31.333 16.667 58.333 50 81h-45c-36.667 0 -84.334 -1 -143.001 -3v30l48 3c23.333 1.33301 37.666 6.83301 42.999 16.5s8 34.167 8 73.5v449c0 39.333 -2.66699 63.833 -8 73.5s-19.666 15.167 -42.999 16.5l-48 3v30c72 -2 120.667 -3 146 -3
c49.333 0 98.333 1 147 3v-30l-48 -3c-23.333 -1.33301 -37.666 -6.83301 -42.999 -16.5s-8 -34.167 -8 -73.5v-449c0 -39.333 2.66699 -63.833 8 -73.5s19.666 -15.167 42.999 -16.5z" />
    <glyph glyph-name="iogonek" unicode="&#x12f;" horiz-adv-x="291" 
d="M271 27v-30.002c-4 0.666992 -9 1 -15 1c-14.667 0 -27.5 -6.16699 -38.5 -18.5s-16.5 -26.166 -16.5 -41.499c0 -11.333 4 -21.166 12 -29.499s17.333 -12.5 28 -12.5c22 0 46.667 12 74 36l16 -21c-42.667 -37.333 -80 -56 -112 -56c-18 0 -33.333 6.16699 -46 18.5
s-19 27.5 -19 45.5c0 31.333 16.333 58 49 80c-23.333 0.666992 -43 1 -59 1c-15.333 0 -56.333 -1 -123 -3v30l46 3c16.667 0.666992 27 4.83398 31 12.501s6 27.5 6 59.5v225c0 33.333 -2.33301 53.833 -7 61.5s-17 11.5 -37 11.5h-37v28c52 6 104 19.667 156 41l9 -4
v-363c0 -32 2 -51.833 6 -59.5s14.333 -11.834 31 -12.501zM142 686.998c14 0 26.667 -5.83301 38 -17.5s17 -24.5 17 -38.5c0 -14.667 -5.66699 -27.5 -17 -38.5s-24.333 -16.5 -39 -16.5s-27.5 5.5 -38.5 16.5s-16.5 23.833 -16.5 38.5c0 15.333 5.66699 28.5 17 39.5
s24.333 16.5 39 16.5z" />
    <glyph glyph-name="Idotaccent" unicode="&#x130;" horiz-adv-x="337" 
d="M216 569l0.000976562 -449c0 -39.333 2.66699 -63.833 8 -73.5s19.666 -15.167 42.999 -16.5l48 -3v-30c-59.333 2 -108.333 3 -147 3s-87.334 -1 -146.001 -3v30l48 3c23.333 1.33301 37.666 6.83301 42.999 16.5s8 34.167 8 73.5v449c0 39.333 -2.66699 63.833 -8 73.5
s-19.666 15.167 -42.999 16.5l-48 3v30c72 -2 120.667 -3 146 -3c49.333 0 98.333 1 147 3v-30l-48 -3c-23.333 -1.33301 -37.666 -6.83301 -42.999 -16.5s-8 -34.167 -8 -73.5zM169.001 868c14.667 0 26.501 -4.66699 35.501 -14s13.5 -21.333 13.5 -36
s-4.66699 -26.667 -14 -36s-21.333 -14 -36 -14s-26.667 4.66699 -36 14s-14 21.333 -14 36c0 15.333 4.66699 27.5 14 36.5s21.666 13.5 36.999 13.5z" />
    <glyph glyph-name="dotlessi" unicode="&#x131;" horiz-adv-x="287" 
d="M188 465l0.00195312 -363c0 -32 2 -51.833 6 -59.5s14.333 -11.834 31 -12.501l46 -3v-30c-66.667 2 -108.334 3 -125.001 3s-58.334 -1 -125.001 -3v30l46 3c16.667 0.666992 27 4.83398 31 12.501s6 27.5 6 59.5v225c0 33.333 -2.33301 53.833 -7 61.5
s-17 11.5 -37 11.5h-37v28c52 6 104 19.667 156 41z" />
    <glyph glyph-name="IJ" unicode="&#x132;" horiz-adv-x="690" 
d="M216 569l0.000976562 -449c0 -39.333 2.66699 -63.833 8 -73.5s19.666 -15.167 42.999 -16.5l48 -3v-30c-59.333 2 -108.333 3 -147 3s-87.334 -1 -146.001 -3v30l48 3c23.333 1.33301 37.666 6.83301 42.999 16.5s8 34.167 8 73.5v449c0 39.333 -2.66699 63.833 -8 73.5
s-19.666 15.167 -42.999 16.5l-48 3v30c72 -2 120.667 -3 146 -3c49.333 0 98.333 1 147 3v-30l-48 -3c-23.333 -1.33301 -37.666 -6.83301 -42.999 -16.5s-8 -34.167 -8 -73.5zM341.001 -192l-5.00195 76.001l11 6c22 -13.333 44.333 -20 67 -20c20 0 34 8.33301 42 25
s12 46 12 88v586c0 39.333 -2.66699 63.833 -8 73.5s-19.666 15.167 -42.999 16.5l-48 3v30c72 -2 120.667 -3 146 -3c49.333 0 98.333 1 147 3v-30l-48 -3c-23.333 -1.33301 -37.666 -6.83301 -42.999 -16.5s-8 -34.167 -8 -73.5v-452
c0 -60.667 -4.16699 -106.834 -12.5 -138.501s-24.833 -62.5 -49.5 -92.5c-19.333 -24.667 -42.5 -45 -69.5 -61s-49.167 -22.667 -66.5 -20l-7 1z" />
    <glyph glyph-name="ij" unicode="&#x133;" horiz-adv-x="504" 
d="M188 465l0.00195312 -363c0 -32 2 -51.833 6 -59.5s14.333 -11.834 31 -12.501l46 -3v-30c-66.667 2 -108.334 3 -125.001 3s-58.334 -1 -125.001 -3v30l46 3c16.667 0.666992 27 4.83398 31 12.501s6 27.5 6 59.5v225c0 33.333 -2.33301 53.833 -7 61.5
s-17 11.5 -37 11.5h-37v28c52 6 104 19.667 156 41zM142.002 687c14 0 26.667 -5.83301 38 -17.5s17 -24.5 17 -38.5c0 -14.667 -5.66699 -27.5 -17 -38.5s-24.333 -16.5 -39 -16.5s-27.5 5.5 -38.5 16.5s-16.5 23.833 -16.5 38.5c0 15.333 5.66699 28.5 17 39.5
s24.333 16.5 39 16.5zM411.002 465l0.000976562 -483.999c0 -79.333 -17.667 -142.333 -53 -189c-18.667 -24.667 -38.334 -42.834 -59.001 -54.501s-45.667 -18.5 -75 -20.5l-12 38c16 -2 26 -3 30 -3c24 0 42.667 12.667 56 38c19.333 33.333 29 101 29 203v334
c0 33.333 -2.33301 53.833 -7 61.5s-17 11.5 -37 11.5h-37v28c52 6 104 19.667 156 41zM364.003 688.001c14.667 0 27.5 -5.5 38.5 -16.5s16.5 -23.833 16.5 -38.5c0 -15.333 -5.5 -28.5 -16.5 -39.5s-24.167 -16.5 -39.5 -16.5c-14 0 -26.667 5.66699 -38 17
s-17 24.333 -17 39c0 14 5.66699 26.667 17 38s24.333 17 39 17z" />
    <glyph glyph-name="Jcircumflex" unicode="&#x134;" horiz-adv-x="333" 
d="M-10 -192l-5.00195 76.001l11 6c22 -13.333 44.333 -20 67 -20c20 0 34 8.33301 42 25s12 46 12 88v586c0 39.333 -2.66699 63.833 -8 73.5s-19.666 15.167 -42.999 16.5l-48 3v30c72 -2 120.667 -3 146 -3c49.333 0 98.333 1 147 3v-30l-48 -3
c-23.333 -1.33301 -37.666 -6.83301 -42.999 -16.5s-8 -34.167 -8 -73.5v-452c0 -60.667 -4.16699 -106.834 -12.5 -138.501s-24.833 -62.5 -49.5 -92.5c-19.333 -24.667 -42.5 -45 -69.5 -61s-49.167 -22.667 -66.5 -20l-7 1zM116.998 959.001h62l125 -167h-35l-121 103
l-121 -103h-35z" />
    <glyph glyph-name="jcircumflex" unicode="&#x135;" horiz-adv-x="234" 
d="M159 465l0.000976562 -483.999c0 -79.333 -17.667 -142.333 -53 -189c-18.667 -24.667 -38.334 -42.834 -59.001 -54.501s-45.667 -18.5 -75 -20.5l-12 38c16 -2 26 -3 30 -3c24 0 42.667 12.667 56 38c19.333 33.333 29 101 29 203v334
c0 33.333 -2.33301 53.833 -7 61.5s-17 11.5 -37 11.5h-37v28c52 6 104 19.667 156 41zM65.001 739.001h62l126 -167h-36l-120 103l-122 -103h-34z" />
    <glyph glyph-name="Kcommaaccent" unicode="&#x136;" horiz-adv-x="726" 
d="M216 325l0.00195312 -204.998c0 -39.333 2.66699 -63.833 8 -73.5s19.666 -15.167 42.999 -16.5l48 -3v-30c-59.333 2 -108.333 3 -147 3s-87.334 -1 -146.001 -3v30l48 3c23.333 1.33301 37.666 6.83301 42.999 16.5s8 34.167 8 73.5v449
c0 39.333 -2.66699 63.833 -8 73.5s-19.666 15.167 -42.999 16.5l-48 3v30c72 -2 120.667 -3 146 -3c49.333 0 98.333 1 147 3v-30l-48 -3c-23.333 -1.33301 -37.666 -6.83301 -42.999 -16.5s-8 -34.167 -8 -73.5v-214l278 271c19.333 19.333 29 32.333 29 39v27
c58 -2 87.667 -3 89 -3c11.333 0 38 1 80 3v-30l-42 -2c-24.667 -0.666992 -50.667 -13.334 -78 -38.001l-266 -240l330 -312c28 -26.667 48.667 -40.334 62 -41.001l21 -2v-30c-33.333 2 -55 3 -65 3c-6.66699 0 -33.334 -1 -80.001 -3l-348 335zM303.002 -252.998
l-38.999 -21l-14 9c40.667 66 64 133 70 201c27.333 7.33301 56.666 16.333 87.999 27l11 -12c-28 -72 -66.667 -140 -116 -204z" />
    <glyph glyph-name="kcommaaccent" unicode="&#x137;" horiz-adv-x="556" 
d="M23 661l0.000976562 28c66 10 118 22.333 156 37l9 -8v-457l73 59c36 28.667 86 75 150 139h100v-30c-30 0.666992 -66 -15 -108 -47l-129 -101c18.667 -22 40 -44.667 64 -68l126 -125c33.333 -32 61.666 -48 84.999 -48v-23l-96 -29l-265 252v-138
c0 -32 2 -51.833 6 -59.5s14.333 -11.834 31 -12.501l44 -3v-30c-59.333 2 -100 3 -122 3c-17.333 0 -59.333 -1 -126 -3v30l46 3c16.667 0.666992 27 4.83398 31 12.501s6 27.5 6 59.5v518c0 27.333 -8.33301 41 -25 41h-56zM218.001 -253l-38.999 -21l-14 9
c40.667 66 64 133 70 201c27.333 7.33301 56.666 16.333 87.999 27l11 -12c-28 -72 -66.667 -140 -116 -204z" />
    <glyph glyph-name="kgreenlandic" unicode="&#x138;" horiz-adv-x="556" 
d="M23 404l0.000976562 28c66 10 118 22.333 156 37l9 -8v-200l73 59c36 28.667 86 75 150 139h100v-30c-30 0.666992 -66 -15 -108 -47l-129 -101c18.667 -22 40 -44.667 64 -68l126 -125c33.333 -32 61.666 -48 84.999 -48v-23l-96 -29l-265 252v-138
c0 -32 2 -51.833 6 -59.5s14.333 -11.834 31 -12.501l44 -3v-30c-59.333 2 -100 3 -122 3c-17.333 0 -59.333 -1 -126 -3v30l46 3c16.667 0.666992 27 4.83398 31 12.501s6 27.5 6 59.5v261c0 27.333 -8.33301 41 -25 41h-56z" />
    <glyph glyph-name="Lacute" unicode="&#x139;" horiz-adv-x="611" 
d="M216 569v-522.001c23.333 -5.33301 51.666 -8 84.999 -8c132 0 205 6 219 18c6 5.33301 12.333 23.333 19 54l1 3c0 1.33301 0.333008 2.83301 1 4.5s1 2.83398 1 3.50098l12 50h32c-8 -78 -15 -135.333 -21 -172c-90.667 -2 -146.667 -3 -168 -3
c-58.667 0 -120.667 0.666992 -186 2c-14.667 0.666992 -30.334 1 -47.001 1c-22 0 -55 -1 -99 -3v23l31 16c16.667 8 25 27.667 25 59v474c0 39.333 -2.66699 63.833 -8 73.5s-19.666 15.167 -42.999 16.5l-48 3v30c72 -2 120.667 -3 146 -3c49.333 0 98.333 1 147 3v-30
l-48 -3c-23.333 -1.33301 -37.666 -6.83301 -42.999 -16.5s-8 -34.167 -8 -73.5zM177 736.999l138 138c22 22 40.333 33 55 33c8.66699 0 16 -3.33301 22 -10s9 -14.667 9 -24c0 -8.66699 -2.5 -16 -7.5 -22s-15.833 -14.333 -32.5 -25l-144 -90h-40z" />
    <glyph glyph-name="lacute" unicode="&#x13a;" horiz-adv-x="291" 
d="M23 661l0.00195312 28c66 10 118 22.333 156 37l9 -8v-616c0 -32 2 -51.833 6 -59.5s14.333 -11.834 31 -12.501l46 -3v-30c-66.667 2 -108.334 3 -125.001 3s-58.334 -1 -125.001 -3v30l46 3c16.667 0.666992 27 4.83398 31 12.501s6 27.5 6 59.5v518
c0 27.333 -8.33301 41 -25 41h-56zM57.002 737l138 138c22 22 40.333 33 55 33c8.66699 0 16 -3.33301 22 -10s9 -14.667 9 -24c0 -8.66699 -2.5 -16 -7.5 -22s-15.833 -14.333 -32.5 -25l-144 -90h-40z" />
    <glyph glyph-name="Lcommaaccent" unicode="&#x13b;" horiz-adv-x="611" 
d="M216 569v-522.001c23.333 -5.33301 51.666 -8 84.999 -8c132 0 205 6 219 18c6 5.33301 12.333 23.333 19 54l1 3c0 1.33301 0.333008 2.83301 1 4.5s1 2.83398 1 3.50098l12 50h32c-8 -78 -15 -135.333 -21 -172c-90.667 -2 -146.667 -3 -168 -3
c-58.667 0 -120.667 0.666992 -186 2c-14.667 0.666992 -30.334 1 -47.001 1c-22 0 -55 -1 -99 -3v23l31 16c16.667 8 25 27.667 25 59v474c0 39.333 -2.66699 63.833 -8 73.5s-19.666 15.167 -42.999 16.5l-48 3v30c72 -2 120.667 -3 146 -3c49.333 0 98.333 1 147 3v-30
l-48 -3c-23.333 -1.33301 -37.666 -6.83301 -42.999 -16.5s-8 -34.167 -8 -73.5zM246 -253.001l-38.999 -21l-14 9c40.667 66 64 133 70 201c27.333 7.33301 56.666 16.333 87.999 27l11 -12c-28 -72 -66.667 -140 -116 -204z" />
    <glyph glyph-name="lcommaaccent" unicode="&#x13c;" horiz-adv-x="291" 
d="M23 661l0.00195312 28c66 10 118 22.333 156 37l9 -8v-616c0 -32 2 -51.833 6 -59.5s14.333 -11.834 31 -12.501l46 -3v-30c-66.667 2 -108.334 3 -125.001 3s-58.334 -1 -125.001 -3v30l46 3c16.667 0.666992 27 4.83398 31 12.501s6 27.5 6 59.5v518
c0 27.333 -8.33301 41 -25 41h-56zM86.002 -253l-38.999 -21l-14 9c40.667 66 64 133 70 201c27.333 7.33301 56.666 16.333 87.999 27l11 -12c-28 -72 -66.667 -140 -116 -204z" />
    <glyph glyph-name="Lcaron" unicode="&#x13d;" horiz-adv-x="611" 
d="M216 569v-522.001c23.333 -5.33301 51.666 -8 84.999 -8c132 0 205 6 219 18c6 5.33301 12.333 23.333 19 54l1 3c0 1.33301 0.333008 2.83301 1 4.5s1 2.83398 1 3.50098l12 50h32c-8 -78 -15 -135.333 -21 -172c-90.667 -2 -146.667 -3 -168 -3
c-58.667 0 -120.667 0.666992 -186 2c-14.667 0.666992 -30.334 1 -47.001 1c-22 0 -55 -1 -99 -3v23l31 16c16.667 8 25 27.667 25 59v474c0 39.333 -2.66699 63.833 -8 73.5s-19.666 15.167 -42.999 16.5l-48 3v30c72 -2 120.667 -3 146 -3c49.333 0 98.333 1 147 3v-30
l-48 -3c-23.333 -1.33301 -37.666 -6.83301 -42.999 -16.5s-8 -34.167 -8 -73.5zM414 480.999l-39 -21.999l-14 9c40.667 66 64 133 70 201l88 27l11 -12c-28 -72.667 -66.667 -140.334 -116 -203.001z" />
    <glyph glyph-name="lcaron" unicode="&#x13e;" horiz-adv-x="375" 
d="M23 661l0.00195312 28c66 10 118 22.333 156 37l9 -8v-616c0 -32 2 -51.833 6 -59.5s14.333 -11.834 31 -12.501l46 -3v-30c-66.667 2 -108.334 3 -125.001 3s-58.334 -1 -125.001 -3v30l46 3c16.667 0.666992 27 4.83398 31 12.501s6 27.5 6 59.5v518
c0 27.333 -8.33301 41 -25 41h-56zM265.002 514l-38.999 -22l-14 9c40.667 66.667 64 133.667 70 201l88 27l11 -12c-28.667 -73.333 -67.334 -141 -116.001 -203z" />
    <glyph glyph-name="Ldot" unicode="&#x13f;" horiz-adv-x="611" 
d="M216 569v-522.001c23.333 -5.33301 51.666 -8 84.999 -8c132 0 205 6 219 18c6 5.33301 12.333 23.333 19 54l1 3c0 1.33301 0.333008 2.83301 1 4.5s1 2.83398 1 3.50098l12 50h32c-8 -78 -15 -135.333 -21 -172c-90.667 -2 -146.667 -3 -168 -3
c-58.667 0 -120.667 0.666992 -186 2c-14.667 0.666992 -30.334 1 -47.001 1c-22 0 -55 -1 -99 -3v23l31 16c16.667 8 25 27.667 25 59v474c0 39.333 -2.66699 63.833 -8 73.5s-19.666 15.167 -42.999 16.5l-48 3v30c72 -2 120.667 -3 146 -3c49.333 0 98.333 1 147 3v-30
l-48 -3c-23.333 -1.33301 -37.666 -6.83301 -42.999 -16.5s-8 -34.167 -8 -73.5zM401 398.999c15.333 0 28.999 -6.00098 40.999 -18.001s18 -25.667 18 -41s-6 -28.666 -18 -39.999s-26 -17 -42 -17c-14.667 0 -27.667 5.83301 -39 17.5s-17 25.167 -17 40.5
s5.83301 28.833 17.5 40.5s24.834 17.5 39.501 17.5z" />
    <glyph glyph-name="ldot" unicode="&#x140;" horiz-adv-x="440" 
d="M321 319c15.333 0 28.999 -6.00098 40.999 -18.001s18 -25.667 18 -41s-6 -28.666 -18 -39.999s-26 -17 -42 -17c-14.667 0 -27.667 5.83301 -39 17.5s-17 25.167 -17 40.5s5.83301 28.833 17.5 40.5s24.834 17.5 39.501 17.5zM22.999 660.999l0.00195312 28
c66 10 118 22.333 156 37l9 -8v-616c0 -32 2 -51.833 6 -59.5s14.333 -11.834 31 -12.501l46 -3v-30c-66.667 2 -108.334 3 -125.001 3s-58.334 -1 -125.001 -3v30l46 3c16.667 0.666992 27 4.83398 31 12.501s6 27.5 6 59.5v518c0 27.333 -8.33301 41 -25 41h-56z" />
    <glyph glyph-name="Lslash" unicode="&#x141;" horiz-adv-x="611" 
d="M216 346v-299.001c23.333 -5.33301 51.666 -8 84.999 -8c132 0 205 6 219 18c6 5.33301 12.333 23.333 19 54l1 3c0 1.33301 0.333008 2.83301 1 4.5s1 2.83398 1 3.50098l12 50h32c-8 -78 -15 -135.333 -21 -172c-90.667 -2 -146.667 -3 -168 -3
c-58.667 0 -120.667 0.666992 -186 2c-14.667 0.666992 -30.334 1 -47.001 1c-22 0 -55 -1 -99 -3v23l31 16c16.667 8 25 27.667 25 59v193l-99 -60l-16 32l115 70v239c0 39.333 -2.66699 63.833 -8 73.5s-19.666 15.167 -42.999 16.5l-48 3v30c72 -2 120.667 -3 146 -3
c49.333 0 98.333 1 147 3v-30l-48 -3c-23.333 -1.33301 -37.666 -6.83301 -42.999 -16.5s-8 -34.167 -8 -73.5v-181l138 84l16 -32z" />
    <glyph glyph-name="lslash" unicode="&#x142;" horiz-adv-x="291" 
d="M104 390l0.00195312 230c0 27.333 -8.33301 41 -25 41h-56v28c66 10 118 22.333 156 37l9 -8v-277l103 63l15 -32l-118 -72v-298c0 -32 2 -51.833 6 -59.5s14.333 -11.834 31 -12.501l46 -3v-30c-66.667 2 -108.334 3 -125.001 3s-58.334 -1 -125.001 -3v30l46 3
c16.667 0.666992 27 4.83398 31 12.501s6 27.5 6 59.5v246l-102 -62l-16 32z" />
    <glyph glyph-name="Nacute" unicode="&#x143;" horiz-adv-x="831" 
d="M137 689l54.001 3l481 -594v471c0 39.333 -2.83301 63.833 -8.5 73.5s-19.834 15.167 -42.501 16.5l-44 3v30c66 -2 104.667 -3 116 -3c10 0 50 1 120 3v-30l-44 -3c-22.667 -1.33301 -36.834 -6.83301 -42.501 -16.5s-8.5 -34.167 -8.5 -73.5v-552
c0 -2 0.666992 -10.333 2 -25c0.666992 -4.66699 1 -8.66699 1 -12l-90 16l-473 587v-463c0 -39.333 2.83301 -63.833 8.5 -73.5s19.834 -15.167 42.501 -16.5l44 -3v-30c-70 2 -110 3 -120 3c-11.333 0 -50 -1 -116 -3v30l44 3c22.667 1.33301 36.834 6.83301 42.501 16.5
s8.5 34.167 8.5 73.5v449c0 39.333 -2.83301 63.833 -8.5 73.5s-19.834 15.167 -42.501 16.5l-44 3v30c30.667 -1.33301 70.667 -2.33301 120 -3zM327.001 737l138 138c22 22 40.333 33 55 33c8.66699 0 16 -3.33301 22 -10s9 -14.667 9 -24c0 -8.66699 -2.5 -16 -7.5 -22
s-15.833 -14.333 -32.5 -25l-144 -90h-40z" />
    <glyph glyph-name="nacute" unicode="&#x144;" horiz-adv-x="582" 
d="M410 -3v284.001c0 38.667 -10.167 69.5 -30.5 92.5s-47.166 34.5 -80.499 34.5c-30.667 0 -59.5 -10 -86.5 -30s-40.5 -41.333 -40.5 -64v-212c0 -32 2 -51.833 6 -59.5s14.333 -11.834 31 -12.501l45 -3v-30c-68 2 -109.333 3 -124 3s-56 -1 -124 -3v30l45 3
c16.667 0.666992 27 4.83398 31 12.501s6 27.5 6 59.5v225c0 33.333 -2.33301 53.833 -7 61.5s-17 11.5 -37 11.5h-37v28c52 6 104 19.667 156 41l9 -4v-87l76 66c19.333 16.667 45.666 25 78.999 25c111.333 0 167 -58 167 -174v-193c0 -32 2 -51.833 6 -59.5
s14.333 -11.834 31 -12.501l41 -3v-30c-46 2 -73.667 3 -83 3c-12 0 -38.333 -1 -79 -3zM203 506.001l138 138c22 22 40.333 33 55 33c8.66699 0 16 -3.33301 22 -10s9 -14.667 9 -24c0 -8.66699 -2.5 -16 -7.5 -22s-15.833 -14.333 -32.5 -25l-144 -90h-40z" />
    <glyph glyph-name="Ncommaaccent" unicode="&#x145;" horiz-adv-x="831" 
d="M137 689l54.001 3l481 -594v471c0 39.333 -2.83301 63.833 -8.5 73.5s-19.834 15.167 -42.501 16.5l-44 3v30c66 -2 104.667 -3 116 -3c10 0 50 1 120 3v-30l-44 -3c-22.667 -1.33301 -36.834 -6.83301 -42.501 -16.5s-8.5 -34.167 -8.5 -73.5v-552
c0 -2 0.666992 -10.333 2 -25c0.666992 -4.66699 1 -8.66699 1 -12l-90 16l-473 587v-463c0 -39.333 2.83301 -63.833 8.5 -73.5s19.834 -15.167 42.501 -16.5l44 -3v-30c-70 2 -110 3 -120 3c-11.333 0 -50 -1 -116 -3v30l44 3c22.667 1.33301 36.834 6.83301 42.501 16.5
s8.5 34.167 8.5 73.5v449c0 39.333 -2.83301 63.833 -8.5 73.5s-19.834 15.167 -42.501 16.5l-44 3v30c30.667 -1.33301 70.667 -2.33301 120 -3zM356.001 -253l-38.999 -21l-14 9c40.667 66 64 133 70 201c27.333 7.33301 56.666 16.333 87.999 27l11 -12
c-28 -72 -66.667 -140 -116 -204z" />
    <glyph glyph-name="ncommaaccent" unicode="&#x146;" horiz-adv-x="582" 
d="M410 -3v284.001c0 38.667 -10.167 69.5 -30.5 92.5s-47.166 34.5 -80.499 34.5c-30.667 0 -59.5 -10 -86.5 -30s-40.5 -41.333 -40.5 -64v-212c0 -32 2 -51.833 6 -59.5s14.333 -11.834 31 -12.501l45 -3v-30c-68 2 -109.333 3 -124 3s-56 -1 -124 -3v30l45 3
c16.667 0.666992 27 4.83398 31 12.501s6 27.5 6 59.5v225c0 33.333 -2.33301 53.833 -7 61.5s-17 11.5 -37 11.5h-37v28c52 6 104 19.667 156 41l9 -4v-87l76 66c19.333 16.667 45.666 25 78.999 25c111.333 0 167 -58 167 -174v-193c0 -32 2 -51.833 6 -59.5
s14.333 -11.834 31 -12.501l41 -3v-30c-46 2 -73.667 3 -83 3c-12 0 -38.333 -1 -79 -3zM231 -252.999l-38.999 -21l-14 9c40.667 66 64 133 70 201c27.333 7.33301 56.666 16.333 87.999 27l11 -12c-28 -72 -66.667 -140 -116 -204z" />
    <glyph glyph-name="Ncaron" unicode="&#x147;" horiz-adv-x="831" 
d="M137 689l54.001 3l481 -594v471c0 39.333 -2.83301 63.833 -8.5 73.5s-19.834 15.167 -42.501 16.5l-44 3v30c66 -2 104.667 -3 116 -3c10 0 50 1 120 3v-30l-44 -3c-22.667 -1.33301 -36.834 -6.83301 -42.501 -16.5s-8.5 -34.167 -8.5 -73.5v-552
c0 -2 0.666992 -10.333 2 -25c0.666992 -4.66699 1 -8.66699 1 -12l-90 16l-473 587v-463c0 -39.333 2.83301 -63.833 8.5 -73.5s19.834 -15.167 42.501 -16.5l44 -3v-30c-70 2 -110 3 -120 3c-11.333 0 -50 -1 -116 -3v30l44 3c22.667 1.33301 36.834 6.83301 42.501 16.5
s8.5 34.167 8.5 73.5v449c0 39.333 -2.83301 63.833 -8.5 73.5s-19.834 15.167 -42.501 16.5l-44 3v30c30.667 -1.33301 70.667 -2.33301 120 -3zM416.001 805l122 103h34l-125 -167h-62l-125 167h35z" />
    <glyph glyph-name="ncaron" unicode="&#x148;" horiz-adv-x="582" 
d="M410 -3v284.001c0 38.667 -10.167 69.5 -30.5 92.5s-47.166 34.5 -80.499 34.5c-30.667 0 -59.5 -10 -86.5 -30s-40.5 -41.333 -40.5 -64v-212c0 -32 2 -51.833 6 -59.5s14.333 -11.834 31 -12.501l45 -3v-30c-68 2 -109.333 3 -124 3s-56 -1 -124 -3v30l45 3
c16.667 0.666992 27 4.83398 31 12.501s6 27.5 6 59.5v225c0 33.333 -2.33301 53.833 -7 61.5s-17 11.5 -37 11.5h-37v28c52 6 104 19.667 156 41l9 -4v-87l76 66c19.333 16.667 45.666 25 78.999 25c111.333 0 167 -58 167 -174v-193c0 -32 2 -51.833 6 -59.5
s14.333 -11.834 31 -12.501l41 -3v-30c-46 2 -73.667 3 -83 3c-12 0 -38.333 -1 -79 -3zM292 574.001l122 103h34l-125 -167h-62l-125 167h35z" />
    <glyph glyph-name="napostrophe" unicode="&#x149;" horiz-adv-x="582" 
d="M410 -3v284.001c0 38.667 -10.167 69.5 -30.5 92.5s-47.166 34.5 -80.499 34.5c-30.667 0 -59.5 -10 -86.5 -30s-40.5 -41.333 -40.5 -64v-212c0 -32 2 -51.833 6 -59.5s14.333 -11.834 31 -12.501l45 -3v-30c-68 2 -109.333 3 -124 3s-56 -1 -124 -3v30l45 3
c16.667 0.666992 27 4.83398 31 12.501s6 27.5 6 59.5v225c0 33.333 -2.33301 53.833 -7 61.5s-17 11.5 -37 11.5h-37v28c52 6 104 19.667 156 41l9 -4v-87l76 66c19.333 16.667 45.666 25 78.999 25c111.333 0 167 -58 167 -174v-193c0 -32 2 -51.833 6 -59.5
s14.333 -11.834 31 -12.501l41 -3v-30c-46 2 -73.667 3 -83 3c-12 0 -38.333 -1 -79 -3z" />
    <glyph glyph-name="Eng" unicode="&#x14a;" horiz-adv-x="831" 
d="M137 689l54.001 3l481 -594v471c0 39.333 -2.83301 63.833 -8.5 73.5s-19.834 15.167 -42.501 16.5l-44 3v30c66 -2 104.667 -3 116 -3c10 0 50 1 120 3v-30l-44 -3c-22.667 -1.33301 -36.834 -6.83301 -42.501 -16.5s-8.5 -34.167 -8.5 -73.5v-552
c0 -2 0.666992 -10.333 2 -25c0.666992 -4.66699 1 -8.66699 1 -12l-90 16l-473 587v-463c0 -39.333 2.83301 -63.833 8.5 -73.5s19.834 -15.167 42.501 -16.5l44 -3v-30c-70 2 -110 3 -120 3c-11.333 0 -50 -1 -116 -3v30l44 3c22.667 1.33301 36.834 6.83301 42.501 16.5
s8.5 34.167 8.5 73.5v449c0 39.333 -2.83301 63.833 -8.5 73.5s-19.834 15.167 -42.501 16.5l-44 3v30c30.667 -1.33301 70.667 -2.33301 120 -3z" />
    <glyph glyph-name="eng" unicode="&#x14b;" horiz-adv-x="582" 
d="M410 -3v284.001c0 38.667 -10.167 69.5 -30.5 92.5s-47.166 34.5 -80.499 34.5c-30.667 0 -59.5 -10 -86.5 -30s-40.5 -41.333 -40.5 -64v-212c0 -32 2 -51.833 6 -59.5s14.333 -11.834 31 -12.501l45 -3v-30c-68 2 -109.333 3 -124 3s-56 -1 -124 -3v30l45 3
c16.667 0.666992 27 4.83398 31 12.501s6 27.5 6 59.5v225c0 33.333 -2.33301 53.833 -7 61.5s-17 11.5 -37 11.5h-37v28c52 6 104 19.667 156 41l9 -4v-87l76 66c19.333 16.667 45.666 25 78.999 25c111.333 0 167 -58 167 -174v-193c0 -32 2 -51.833 6 -59.5
s14.333 -11.834 31 -12.501l41 -3v-30c-46 2 -73.667 3 -83 3c-12 0 -38.333 -1 -79 -3z" />
    <glyph glyph-name="Omacron" unicode="&#x14c;" horiz-adv-x="786" 
d="M402 709c111.333 0 199.499 -30.832 264.499 -92.499s97.5 -144.834 97.5 -249.501c0 -110 -37.667 -202 -113 -276s-169 -111 -281 -111c-101.333 0 -184.666 34 -249.999 102s-98 154.333 -98 259c0 110 34.833 198.833 104.5 266.5s161.5 101.5 275.5 101.5z
M384.999 667.001c-82 0 -145.167 -25.001 -189.5 -75.001s-66.5 -121.333 -66.5 -214c0 -106.667 25.833 -192.667 77.5 -258s119.5 -98 203.5 -98c77.333 0 137.833 27.833 181.5 83.5s65.5 132.834 65.5 231.501c0 104 -24 185 -72 243s-114.667 87 -200 87zM549.999 769
h-312v53h312v-53z" />
    <glyph glyph-name="omacron" unicode="&#x14d;" horiz-adv-x="546" 
d="M279 469c68.667 0 124.999 -21.835 168.999 -65.502s66 -99.167 66 -166.5c0 -74.667 -24.667 -136.167 -74 -184.5s-112.666 -72.5 -189.999 -72.5c-64.667 0 -117.167 21.833 -157.5 65.5s-60.5 100.834 -60.5 171.501c0 74.667 22.833 135.334 68.5 182.001
s105.167 70 178.5 70zM260.999 435.998c-44 0 -77.668 -15.833 -101.001 -47.5s-35 -77.5 -35 -137.5c0 -71.333 15.167 -128.833 45.5 -172.5s69.833 -65.5 118.5 -65.5c40.667 0 72.834 16.833 96.501 50.5s35.5 79.167 35.5 136.5c0 68 -15.167 124.333 -45.5 169
s-68.5 67 -114.5 67zM429.998 537.998h-312v53h312v-53z" />
    <glyph glyph-name="Obreve" unicode="&#x14e;" horiz-adv-x="786" 
d="M402 709c111.333 0 199.499 -30.832 264.499 -92.499s97.5 -144.834 97.5 -249.501c0 -110 -37.667 -202 -113 -276s-169 -111 -281 -111c-101.333 0 -184.666 34 -249.999 102s-98 154.333 -98 259c0 110 34.833 198.833 104.5 266.5s161.5 101.5 275.5 101.5z
M384.999 667.001c-82 0 -145.167 -25.001 -189.5 -75.001s-66.5 -121.333 -66.5 -214c0 -106.667 25.833 -192.667 77.5 -258s119.5 -98 203.5 -98c77.333 0 137.833 27.833 181.5 83.5s65.5 132.834 65.5 231.501c0 104 -24 185 -72 243s-114.667 87 -200 87zM251.999 950
h30c1.33301 -28.667 12.5 -52.167 33.5 -70.5s46.833 -27.5 77.5 -27.5s56.5 9.16699 77.5 27.5s32.167 41.833 33.5 70.5h30c-2 -38 -10 -69 -24 -93c-24.667 -43.333 -63.667 -65 -117 -65c-56 0 -96.333 23.667 -121 71c-11.333 23.333 -18 52.333 -20 87z" />
    <glyph glyph-name="obreve" unicode="&#x14f;" horiz-adv-x="546" 
d="M279 469c68.667 0 124.999 -21.835 168.999 -65.502s66 -99.167 66 -166.5c0 -74.667 -24.667 -136.167 -74 -184.5s-112.666 -72.5 -189.999 -72.5c-64.667 0 -117.167 21.833 -157.5 65.5s-60.5 100.834 -60.5 171.501c0 74.667 22.833 135.334 68.5 182.001
s105.167 70 178.5 70zM260.999 435.998c-44 0 -77.668 -15.833 -101.001 -47.5s-35 -77.5 -35 -137.5c0 -71.333 15.167 -128.833 45.5 -172.5s69.833 -65.5 118.5 -65.5c40.667 0 72.834 16.833 96.501 50.5s35.5 79.167 35.5 136.5c0 68 -15.167 124.333 -45.5 169
s-68.5 67 -114.5 67zM131.998 726.998h30c1.33301 -28.667 12.5 -52.167 33.5 -70.5s46.833 -27.5 77.5 -27.5s56.5 9.16699 77.5 27.5s32.167 41.833 33.5 70.5h30c-2 -38 -10 -69 -24 -93c-24.667 -43.333 -63.667 -65 -117 -65c-56 0 -96.333 23.667 -121 71
c-11.333 23.333 -18 52.333 -20 87z" />
    <glyph glyph-name="Ohungarumlaut" unicode="&#x150;" horiz-adv-x="786" 
d="M402 709c111.333 0 199.499 -30.832 264.499 -92.499s97.5 -144.834 97.5 -249.501c0 -110 -37.667 -202 -113 -276s-169 -111 -281 -111c-101.333 0 -184.666 34 -249.999 102s-98 154.333 -98 259c0 110 34.833 198.833 104.5 266.5s161.5 101.5 275.5 101.5z
M384.999 667.001c-82 0 -145.167 -25.001 -189.5 -75.001s-66.5 -121.333 -66.5 -214c0 -106.667 25.833 -192.667 77.5 -258s119.5 -98 203.5 -98c77.333 0 137.833 27.833 181.5 83.5s65.5 132.834 65.5 231.501c0 104 -24 185 -72 243s-114.667 87 -200 87zM205.999 737
l128 148c18.667 22 37 33 55 33c8.66699 0 16 -3.16699 22 -9.5s9 -14.166 9 -23.499c0 -14.667 -13 -31.334 -39 -50.001l-135 -98h-40zM365.999 737l128 148c18.667 22 37 33 55 33c8.66699 0 16 -3.16699 22 -9.5s9 -14.166 9 -23.499c0 -14.667 -13 -31.334 -39 -50.001
l-135 -98h-40z" />
    <glyph glyph-name="ohungarumlaut" unicode="&#x151;" horiz-adv-x="546" 
d="M279 469c68.667 0 124.999 -21.835 168.999 -65.502s66 -99.167 66 -166.5c0 -74.667 -24.667 -136.167 -74 -184.5s-112.666 -72.5 -189.999 -72.5c-64.667 0 -117.167 21.833 -157.5 65.5s-60.5 100.834 -60.5 171.501c0 74.667 22.833 135.334 68.5 182.001
s105.167 70 178.5 70zM260.999 435.998c-44 0 -77.668 -15.833 -101.001 -47.5s-35 -77.5 -35 -137.5c0 -71.333 15.167 -128.833 45.5 -172.5s69.833 -65.5 118.5 -65.5c40.667 0 72.834 16.833 96.501 50.5s35.5 79.167 35.5 136.5c0 68 -15.167 124.333 -45.5 169
s-68.5 67 -114.5 67zM85.998 505.998l128 148c18.667 22 37 33 55 33c8.66699 0 16 -3.16699 22 -9.5s9 -14.166 9 -23.499c0 -14.667 -13 -31.334 -39 -50.001l-135 -98h-40zM245.998 505.998l128 148c18.667 22 37 33 55 33c8.66699 0 16 -3.16699 22 -9.5
s9 -14.166 9 -23.499c0 -14.667 -13 -31.334 -39 -50.001l-135 -98h-40z" />
    <glyph glyph-name="OE" unicode="&#x152;" horiz-adv-x="998" 
d="M927 164l35 0.000976562c-10.667 -55.333 -16 -110 -16 -164c-93.333 -2 -146.666 -3 -159.999 -3h-51c-17.333 0.666992 -36 1 -56 1c-53.333 0 -110 -3 -170 -9c-47.333 -6 -88.333 -9 -123 -9c-108 0 -195.667 33.333 -263 100s-101 153.334 -101 260.001
c0 110 34.833 199 104.5 267s160.5 102 272.5 102c44.667 0 92.667 -5 144 -15c16.667 -3.33301 31.667 -5 45 -5c4 0 83 1 237 3c35.333 0 75.666 -1 120.999 -3c-10.667 -42.667 -16 -93.334 -16 -152.001h-35v65c0 12 -1.5 20 -4.5 24s-10.5 7.33301 -22.5 10
c-36 9.33301 -83 14 -141 14c-52 0 -89.667 -2.66699 -113 -8v-267c39.333 -2 73.666 -3 102.999 -3c58.667 0 95.667 3.66699 111 11c4.66699 8.66699 7.33398 17.334 8.00098 26.001l5 52h30c-2 -66.667 -3 -105.334 -3 -116.001c0 -12 1 -49 3 -111h-30l-5 59l-8 25
c-16 8 -55 12 -117 12c-38.667 0 -71 -1 -97 -3v-280c26 -5.33301 58.333 -8 97 -8c96 0 155 4 177 12c16 5.33301 27.333 31.666 34 78.999zM519 139.001l-0.000976562 398.998c0 32.667 -1.66699 60.334 -5 83.001c-33.333 29.333 -77.666 44 -132.999 44
c-81.333 0 -144.833 -26 -190.5 -78s-68.5 -124.333 -68.5 -217c0 -101.333 24.5 -184.333 73.5 -249s112.167 -97 189.5 -97c23.333 0 47.5 3.16699 72.5 9.5s43.833 13.833 56.5 22.5c3.33301 22.667 5 50.334 5 83.001z" />
    </font>
</defs>
</svg>
